outward-borders.ufo
<glyph name="exclam" format="2">
  <advance width="79"/>
  <unicode hex="0021"/>
  <outline>
    <contour>
      <point x="12" y="688" type="line"/>
      <point x="12" y="170" type="line"/>
      <point x="55" y="170" type="line"/>
      <point x="55" y="688" type="line"/>
    </contour>
    <contour>
      <point x="12" y="134" type="line"/>
      <point x="12" y="12" type="line"/>
      <point x="55" y="12" type="line"/>
      <point x="55" y="134" type="line"/>
    </contour>
    <contour>
      <point x="67" y="158" type="line"/>
      <point x="0" y="158" type="line"/>
      <point x="0" y="700" type="line"/>
      <point x="67" y="700" type="line"/>
    </contour>
    <contour>
      <point x="67" y="0" type="line"/>
      <point x="0" y="0" type="line"/>
      <point x="0" y="146" type="line"/>
      <point x="67" y="146" type="line"/>
    </contour>
  </outline>
</glyph>
<glyph name="numbersign" format="2">
  <advance width="237"/>
  <unicode hex="0023"/>
  <outline>
    <contour>
      <point x="131" y="688" type="line"/>
      <point x="131" y="411" type="line"/>
      <point x="94" y="411" type="line"/>
      <point x="94" y="688" type="line"/>
      <point x="52" y="688" type="line"/>
      <point x="52" y="411" type="line"/>
      <point x="12" y="411" type="line"/>
      <point x="12" y="368" type="line"/>
      <point x="52" y="368" type="line"/>
      <point x="52" y="332" type="line"/>
      <point x="12" y="332" type="line"/>
      <point x="12" y="289" type="line"/>
      <point x="52" y="289" type="line"/>
      <point x="52" y="12" type="line"/>
      <point x="94" y="12" type="line"/>
      <point x="94" y="289" type="line"/>
      <point x="131" y="289" type="line"/>
      <point x="131" y="12" type="line"/>
      <point x="174" y="12" type="line"/>
      <point x="174" y="289" type="line"/>
      <point x="213" y="289" type="line"/>
      <point x="213" y="332" type="line"/>
      <point x="174" y="332" type="line"/>
      <point x="174" y="368" type="line"/>
      <point x="213" y="368" type="line"/>
      <point x="213" y="411" type="line"/>
      <point x="174" y="411" type="line"/>
      <point x="174" y="688" type="line"/>
    </contour>
    <contour>
      <point x="94" y="368" type="line"/>
      <point x="131" y="368" type="line"/>
      <point x="131" y="332" type="line"/>
      <point x="94" y="332" type="line"/>
    </contour>
    <contour>
      <point x="186" y="423" type="line"/>
      <point x="225" y="423" type="line"/>
      <point x="225" y="356" type="line"/>
      <point x="186" y="356" type="line"/>
      <point x="186" y="344" type="line"/>
      <point x="225" y="344" type="line"/>
      <point x="225" y="277" type="line"/>
      <point x="186" y="277" type="line"/>
      <point x="186" y="0" type="line"/>
      <point x="119" y="0" type="line"/>
      <point x="119" y="277" type="line"/>
      <point x="106" y="277" type="line"/>
      <point x="106" y="0" type="line"/>
      <point x="40" y="0" type="line"/>
      <point x="40" y="277" type="line"/>
      <point x="0" y="277" type="line"/>
      <point x="0" y="344" type="line"/>
      <point x="40" y="344" type="line"/>
      <point x="40" y="356" type="line"/>
      <point x="0" y="356" type="line"/>
      <point x="0" y="423" type="line"/>
      <point x="40" y="423" type="line"/>
      <point x="40" y="700" type="line"/>
      <point x="106" y="700" type="line"/>
      <point x="106" y="423" type="line"/>
      <point x="119" y="423" type="line"/>
      <point x="119" y="700" type="line"/>
      <point x="186" y="700" type="line"/>
    </contour>
    <contour>
      <point x="119" y="344" type="line"/>
      <point x="119" y="356" type="line"/>
      <point x="106" y="356" type="line"/>
      <point x="106" y="344" type="line"/>
    </contour>
  </outline>
</glyph>
<glyph name="dollar" format="2">
  <advance width="237"/>
  <unicode hex="0024"/>
  <outline>
    <contour>
      <point x="91" y="688" type="line"/>
      <point x="91" y="609" type="line"/>
      <point x="34" y="609" type="line" smooth="yes"/>
      <point x="25" y="609"/>
      <point x="12" y="596"/>
      <point x="12" y="588" type="qcurve" smooth="yes"/>
      <point x="12" y="350" type="line" smooth="yes"/>
      <point x="12" y="341"/>
      <point x="25" y="328"/>
      <point x="34" y="328" type="qcurve" smooth="yes"/>
      <point x="91" y="328" type="line"/>
      <point x="91" y="134" type="line"/>
      <point x="55" y="134" type="line"/>
      <point x="55" y="292" type="line"/>
      <point x="12" y="292" type="line"/>
      <point x="12" y="113" type="line" smooth="yes"/>
      <point x="12" y="104"/>
      <point x="25" y="91"/>
      <point x="34" y="91" type="qcurve" smooth="yes"/>
      <point x="91" y="91" type="line"/>
      <point x="91" y="12" type="line"/>
      <point x="134" y="12" type="line"/>
      <point x="134" y="91" type="line"/>
      <point x="192" y="91" type="line" smooth="yes"/>
      <point x="201" y="91"/>
      <point x="213" y="104"/>
      <point x="213" y="113" type="qcurve" smooth="yes"/>
      <point x="213" y="350" type="line" smooth="yes"/>
      <point x="213" y="359"/>
      <point x="201" y="372"/>
      <point x="192" y="372" type="qcurve" smooth="yes"/>
      <point x="134" y="372" type="line"/>
      <point x="134" y="566" type="line"/>
      <point x="170" y="566" type="line"/>
      <point x="170" y="408" type="line"/>
      <point x="213" y="408" type="line"/>
      <point x="213" y="588" type="line" smooth="yes"/>
      <point x="213" y="596"/>
      <point x="201" y="609"/>
      <point x="192" y="609" type="qcurve" smooth="yes"/>
      <point x="134" y="609" type="line"/>
      <point x="134" y="688" type="line"/>
    </contour>
    <contour>
      <point x="55" y="566" type="line"/>
      <point x="91" y="566" type="line"/>
      <point x="91" y="372" type="line"/>
      <point x="55" y="372" type="line"/>
    </contour>
    <contour>
      <point x="134" y="328" type="line"/>
      <point x="170" y="328" type="line"/>
      <point x="170" y="134" type="line"/>
      <point x="134" y="134" type="line"/>
    </contour>
    <contour>
      <point x="146" y="621" type="line"/>
      <point x="192" y="621" type="line" smooth="yes"/>
      <point x="206" y="621"/>
      <point x="225" y="602"/>
      <point x="225" y="588" type="qcurve" smooth="yes"/>
      <point x="225" y="396" type="line"/>
      <point x="158" y="396" type="line"/>
      <point x="158" y="554" type="line"/>
      <point x="146" y="554" type="line"/>
      <point x="146" y="384" type="line"/>
      <point x="192" y="384" type="line" smooth="yes"/>
      <point x="206" y="384"/>
      <point x="225" y="364"/>
      <point x="225" y="350" type="qcurve" smooth="yes"/>
      <point x="225" y="113" type="line" smooth="yes"/>
      <point x="225" y="99"/>
      <point x="206" y="79"/>
      <point x="192" y="79" type="qcurve" smooth="yes"/>
      <point x="146" y="79" type="line"/>
      <point x="146" y="0" type="line"/>
      <point x="79" y="0" type="line"/>
      <point x="79" y="79" type="line"/>
      <point x="34" y="79" type="line" smooth="yes"/>
      <point x="20" y="79"/>
      <point x="0" y="99"/>
      <point x="0" y="113" type="qcurve" smooth="yes"/>
      <point x="0" y="304" type="line"/>
      <point x="67" y="304" type="line"/>
      <point x="67" y="146" type="line"/>
      <point x="79" y="146" type="line"/>
      <point x="79" y="316" type="line"/>
      <point x="34" y="316" type="line" smooth="yes"/>
      <point x="20" y="316"/>
      <point x="0" y="336"/>
      <point x="0" y="350" type="qcurve" smooth="yes"/>
      <point x="0" y="588" type="line" smooth="yes"/>
      <point x="0" y="602"/>
      <point x="20" y="621"/>
      <point x="34" y="621" type="qcurve" smooth="yes"/>
      <point x="79" y="621" type="line"/>
      <point x="79" y="700" type="line"/>
      <point x="146" y="700" type="line"/>
    </contour>
    <contour>
      <point x="79" y="384" type="line"/>
      <point x="79" y="554" type="line"/>
      <point x="67" y="554" type="line"/>
      <point x="67" y="384" type="line"/>
    </contour>
    <contour>
      <point x="158" y="146" type="line"/>
      <point x="158" y="316" type="line"/>
      <point x="146" y="316" type="line"/>
      <point x="146" y="146" type="line"/>
    </contour>
  </outline>
</glyph>
<glyph name="percent" format="2">
  <advance width="237"/>
  <unicode hex="0025"/>
  <outline>
    <contour>
      <point x="170" y="688" type="line"/>
      <point x="170" y="371" type="line"/>
      <point x="34" y="371" type="line" smooth="yes"/>
      <point x="25" y="371"/>
      <point x="12" y="358"/>
      <point x="12" y="350" type="qcurve" smooth="yes"/>
      <point x="12" y="12" type="line"/>
      <point x="55" y="12" type="line"/>
      <point x="55" y="328" type="line"/>
      <point x="192" y="328" type="line" smooth="yes"/>
      <point x="201" y="328"/>
      <point x="213" y="341"/>
      <point x="213" y="350" type="qcurve" smooth="yes"/>
      <point x="213" y="688" type="line"/>
    </contour>
    <contour>
      <point x="34" y="688" type="line" smooth="yes"/>
      <point x="25" y="688"/>
      <point x="12" y="675"/>
      <point x="12" y="666" type="qcurve" smooth="yes"/>
      <point x="12" y="429" type="line" smooth="yes"/>
      <point x="12" y="420"/>
      <point x="25" y="407"/>
      <point x="34" y="407" type="qcurve" smooth="yes"/>
      <point x="113" y="407" type="line" smooth="yes"/>
      <point x="122" y="407"/>
      <point x="134" y="420"/>
      <point x="134" y="429" type="qcurve" smooth="yes"/>
      <point x="134" y="666" type="line" smooth="yes"/>
      <point x="134" y="675"/>
      <point x="122" y="688"/>
      <point x="113" y="688" type="qcurve" smooth="yes"/>
    </contour>
    <contour>
      <point x="55" y="644" type="line"/>
      <point x="91" y="644" type="line"/>
      <point x="91" y="450" type="line"/>
      <point x="55" y="450" type="line"/>
    </contour>
    <contour>
      <point x="113" y="292" type="line" smooth="yes"/>
      <point x="104" y="292"/>
      <point x="91" y="279"/>
      <point x="91" y="270" type="qcurve" smooth="yes"/>
      <point x="91" y="33" type="line" smooth="yes"/>
      <point x="91" y="24"/>
      <point x="104" y="12"/>
      <point x="113" y="12" type="qcurve" smooth="yes"/>
      <point x="192" y="12" type="line" smooth="yes"/>
      <point x="201" y="12"/>
      <point x="213" y="24"/>
      <point x="213" y="33" type="qcurve" smooth="yes"/>
      <point x="213" y="270" type="line" smooth="yes"/>
      <point x="213" y="279"/>
      <point x="201" y="292"/>
      <point x="192" y="292" type="qcurve" smooth="yes"/>
    </contour>
    <contour>
      <point x="134" y="249" type="line"/>
      <point x="170" y="249" type="line"/>
      <point x="170" y="54" type="line"/>
      <point x="134" y="54" type="line"/>
    </contour>
    <contour>
      <point x="225" y="350" type="line" smooth="yes"/>
      <point x="225" y="336"/>
      <point x="206" y="316"/>
      <point x="192" y="316" type="qcurve" smooth="yes"/>
      <point x="67" y="316" type="line"/>
      <point x="67" y="0" type="line"/>
      <point x="0" y="0" type="line"/>
      <point x="0" y="350" type="line" smooth="yes"/>
      <point x="0" y="364"/>
      <point x="20" y="383"/>
      <point x="34" y="383" type="qcurve" smooth="yes"/>
      <point x="158" y="383" type="line"/>
      <point x="158" y="700" type="line"/>
      <point x="225" y="700" type="line"/>
    </contour>
    <contour>
      <point x="113" y="700" type="line" smooth="yes"/>
      <point x="127" y="700"/>
      <point x="146" y="680"/>
      <point x="146" y="666" type="qcurve" smooth="yes"/>
      <point x="146" y="429" type="line" smooth="yes"/>
      <point x="146" y="415"/>
      <point x="127" y="395"/>
      <point x="113" y="395" type="qcurve" smooth="yes"/>
      <point x="34" y="395" type="line" smooth="yes"/>
      <point x="20" y="395"/>
      <point x="0" y="415"/>
      <point x="0" y="429" type="qcurve" smooth="yes"/>
      <point x="0" y="666" type="line" smooth="yes"/>
      <point x="0" y="680"/>
      <point x="20" y="700"/>
      <point x="34" y="700" type="qcurve" smooth="yes"/>
    </contour>
    <contour>
      <point x="79" y="462" type="line"/>
      <point x="79" y="632" type="line"/>
      <point x="67" y="632" type="line"/>
      <point x="67" y="462" type="line"/>
    </contour>
    <contour>
      <point x="192" y="304" type="line" smooth="yes"/>
      <point x="206" y="304"/>
      <point x="225" y="284"/>
      <point x="225" y="270" type="qcurve" smooth="yes"/>
      <point x="225" y="33" type="line" smooth="yes"/>
      <point x="225" y="19"/>
      <point x="206" y="0"/>
      <point x="192" y="0" type="qcurve" smooth="yes"/>
      <point x="113" y="0" type="line" smooth="yes"/>
      <point x="99" y="0"/>
      <point x="79" y="19"/>
      <point x="79" y="33" type="qcurve" smooth="yes"/>
      <point x="79" y="270" type="line" smooth="yes"/>
      <point x="79" y="284"/>
      <point x="99" y="304"/>
      <point x="113" y="304" type="qcurve" smooth="yes"/>
    </contour>
    <contour>
      <point x="158" y="66" type="line"/>
      <point x="158" y="237" type="line"/>
      <point x="146" y="237" type="line"/>
      <point x="146" y="66" type="line"/>
    </contour>
  </outline>
</glyph>
<glyph name="ampersand" format="2">
  <advance width="198"/>
  <unicode hex="0026"/>
  <outline>
    <contour>
      <point x="34" y="688" type="line" smooth="yes"/>
      <point x="25" y="688"/>
      <point x="12" y="675"/>
      <point x="12" y="666" type="qcurve" smooth="yes"/>
      <point x="12" y="429" type="line" smooth="yes"/>
      <point x="12.0" y="424.5" name="inserted"/>
      <point x="15.0" y="417.0"/>
      <point x="18" y="414" type="qcurve" smooth="yes"/>
      <point x="43" y="390" type="line"/>
      <point x="18" y="365" type="line" smooth="yes"/>
      <point x="15.0" y="362.0" name="inserted"/>
      <point x="12.0" y="354.5"/>
      <point x="12" y="350" type="qcurve" smooth="yes"/>
      <point x="12" y="34" type="line" smooth="yes"/>
      <point x="12" y="25"/>
      <point x="25" y="12"/>
      <point x="34" y="12" type="qcurve" smooth="yes"/>
      <point x="113" y="12" type="line" smooth="yes"/>
      <point x="122" y="12"/>
      <point x="134" y="25"/>
      <point x="134" y="34" type="qcurve" smooth="yes"/>
      <point x="134" y="289" type="line"/>
      <point x="174" y="289" type="line"/>
      <point x="174" y="332" type="line"/>
      <point x="113" y="332" type="line" smooth="yes"/>
      <point x="104" y="332"/>
      <point x="91" y="319"/>
      <point x="91" y="310" type="qcurve" smooth="yes"/>
      <point x="91" y="55" type="line"/>
      <point x="55" y="55" type="line"/>
      <point x="55" y="341" type="line"/>
      <point x="128" y="414" type="line" smooth="yes"/>
      <point x="131.0" y="417.0" name="inserted"/>
      <point x="134.0" y="424.5"/>
      <point x="134" y="429" type="qcurve" smooth="yes"/>
      <point x="134" y="666" type="line" smooth="yes"/>
      <point x="134" y="675"/>
      <point x="122" y="688"/>
      <point x="113" y="688" type="qcurve" smooth="yes"/>
    </contour>
    <contour>
      <point x="55" y="438" type="line"/>
      <point x="55" y="645" type="line"/>
      <point x="91" y="645" type="line"/>
      <point x="91" y="438" type="line"/>
      <point x="73" y="420" type="line"/>
    </contour>
    <contour>
      <point x="113" y="700" type="line" smooth="yes"/>
      <point x="127" y="700"/>
      <point x="146" y="680"/>
      <point x="146" y="666" type="qcurve" smooth="yes"/>
      <point x="146" y="429" type="line" smooth="yes"/>
      <point x="146.0" y="422.0" name="inserted"/>
      <point x="141.0" y="410.0"/>
      <point x="136" y="405" type="qcurve" smooth="yes"/>
      <point x="67" y="336" type="line"/>
      <point x="67" y="67" type="line"/>
      <point x="79" y="67" type="line"/>
      <point x="79" y="310" type="line" smooth="yes"/>
      <point x="79" y="324"/>
      <point x="99" y="344"/>
      <point x="113" y="344" type="qcurve" smooth="yes"/>
      <point x="186" y="344" type="line"/>
      <point x="186" y="277" type="line"/>
      <point x="146" y="277" type="line"/>
      <point x="146" y="34" type="line" smooth="yes"/>
      <point x="146" y="20"/>
      <point x="127" y="0"/>
      <point x="113" y="0" type="qcurve" smooth="yes"/>
      <point x="34" y="0" type="line" smooth="yes"/>
      <point x="20" y="0"/>
      <point x="0" y="20"/>
      <point x="0" y="34" type="qcurve" smooth="yes"/>
      <point x="0" y="350" type="line" smooth="yes"/>
      <point x="0.0" y="356.0" name="inserted"/>
      <point x="5.0" y="368.0"/>
      <point x="10" y="374" type="qcurve"/>
      <point x="26" y="390" type="line"/>
      <point x="10" y="405" type="line"/>
      <point x="5.0" y="411.0" name="inserted"/>
      <point x="0.0" y="423.0"/>
      <point x="0" y="429" type="qcurve" smooth="yes"/>
      <point x="0" y="666" type="line" smooth="yes"/>
      <point x="0" y="680"/>
      <point x="20" y="700"/>
      <point x="34" y="700" type="qcurve" smooth="yes"/>
    </contour>
    <contour>
      <point x="79" y="443" type="line"/>
      <point x="79" y="633" type="line"/>
      <point x="67" y="633" type="line"/>
      <point x="67" y="443" type="line"/>
      <point x="73" y="437" type="line"/>
    </contour>
  </outline>
</glyph>
<glyph name="quotesingle" format="2">
  <advance width="79"/>
  <unicode hex="0027"/>
  <outline>
    <contour>
      <point x="12" y="688" type="line"/>
      <point x="12" y="566" type="line"/>
      <point x="55" y="566" type="line"/>
      <point x="55" y="688" type="line"/>
    </contour>
    <contour>
      <point x="67" y="554" type="line"/>
      <point x="0" y="554" type="line"/>
      <point x="0" y="700" type="line"/>
      <point x="67" y="700" type="line"/>
    </contour>
  </outline>
</glyph>
<glyph name="parenleft" format="2">
  <advance width="119"/>
  <unicode hex="0028"/>
  <outline>
    <contour>
      <point x="34" y="688" type="line" smooth="yes"/>
      <point x="25" y="688"/>
      <point x="12" y="675"/>
      <point x="12" y="666" type="qcurve" smooth="yes"/>
      <point x="12" y="34" type="line" smooth="yes"/>
      <point x="12" y="25"/>
      <point x="25" y="12"/>
      <point x="34" y="12" type="qcurve" smooth="yes"/>
      <point x="95" y="12" type="line"/>
      <point x="95" y="55" type="line"/>
      <point x="55" y="55" type="line"/>
      <point x="55" y="645" type="line"/>
      <point x="95" y="645" type="line"/>
      <point x="95" y="688" type="line"/>
    </contour>
    <contour>
      <point x="107" y="633" type="line"/>
      <point x="67" y="633" type="line"/>
      <point x="67" y="67" type="line"/>
      <point x="107" y="67" type="line"/>
      <point x="107" y="0" type="line"/>
      <point x="34" y="0" type="line" smooth="yes"/>
      <point x="20" y="0"/>
      <point x="0" y="20"/>
      <point x="0" y="34" type="qcurve" smooth="yes"/>
      <point x="0" y="666" type="line" smooth="yes"/>
      <point x="0" y="680"/>
      <point x="20" y="700"/>
      <point x="34" y="700" type="qcurve" smooth="yes"/>
      <point x="107" y="700" type="line"/>
    </contour>
  </outline>
</glyph>
<glyph name="parenright" format="2">
  <advance width="119"/>
  <unicode hex="0029"/>
  <outline>
    <contour>
      <point x="12" y="688" type="line"/>
      <point x="12" y="645" type="line"/>
      <point x="52" y="645" type="line"/>
      <point x="52" y="55" type="line"/>
      <point x="12" y="55" type="line"/>
      <point x="12" y="12" type="line"/>
      <point x="73" y="12" type="line" smooth="yes"/>
      <point x="82" y="12"/>
      <point x="95" y="25"/>
      <point x="95" y="34" type="qcurve" smooth="yes"/>
      <point x="95" y="666" type="line" smooth="yes"/>
      <point x="95" y="675"/>
      <point x="82" y="688"/>
      <point x="73" y="688" type="qcurve" smooth="yes"/>
    </contour>
    <contour>
      <point x="0" y="700" type="line"/>
      <point x="73" y="700" type="line" smooth="yes"/>
      <point x="87" y="700"/>
      <point x="107" y="680"/>
      <point x="107" y="666" type="qcurve" smooth="yes"/>
      <point x="107" y="34" type="line" smooth="yes"/>
      <point x="107" y="20"/>
      <point x="87" y="0"/>
      <point x="73" y="0" type="qcurve" smooth="yes"/>
      <point x="0" y="0" type="line"/>
      <point x="0" y="67" type="line"/>
      <point x="40" y="67" type="line"/>
      <point x="40" y="633" type="line"/>
      <point x="0" y="633" type="line"/>
    </contour>
  </outline>
</glyph>
<glyph name="asterisk" format="2">
  <advance width="237"/>
  <unicode hex="002A"/>
  <outline>
    <contour>
      <point x="91" y="688" type="line"/>
      <point x="91" y="610" type="line"/>
      <point x="12" y="610" type="line"/>
      <point x="12" y="566" type="line"/>
      <point x="91" y="566" type="line"/>
      <point x="91" y="487" type="line"/>
      <point x="134" y="487" type="line"/>
      <point x="134" y="566" type="line"/>
      <point x="213" y="566" type="line"/>
      <point x="213" y="610" type="line"/>
      <point x="134" y="610" type="line"/>
      <point x="134" y="688" type="line"/>
    </contour>
    <contour>
      <point x="146" y="621" type="line"/>
      <point x="225" y="621" type="line"/>
      <point x="225" y="554" type="line"/>
      <point x="146" y="554" type="line"/>
      <point x="146" y="475" type="line"/>
      <point x="79" y="475" type="line"/>
      <point x="79" y="554" type="line"/>
      <point x="0" y="554" type="line"/>
      <point x="0" y="621" type="line"/>
      <point x="79" y="621" type="line"/>
      <point x="79" y="700" type="line"/>
      <point x="146" y="700" type="line"/>
    </contour>
  </outline>
</glyph>
<glyph name="plus" format="2">
  <advance width="237"/>
  <unicode hex="002B"/>
  <outline>
    <contour>
      <point x="91" y="372" type="line"/>
      <point x="91" y="294" type="line"/>
      <point x="12" y="294" type="line"/>
      <point x="12" y="250" type="line"/>
      <point x="91" y="250" type="line"/>
      <point x="91" y="171" type="line"/>
      <point x="134" y="171" type="line"/>
      <point x="134" y="250" type="line"/>
      <point x="213" y="250" type="line"/>
      <point x="213" y="294" type="line"/>
      <point x="134" y="294" type="line"/>
      <point x="134" y="372" type="line"/>
    </contour>
    <contour>
      <point x="146" y="305" type="line"/>
      <point x="225" y="305" type="line"/>
      <point x="225" y="238" type="line"/>
      <point x="146" y="238" type="line"/>
      <point x="146" y="159" type="line"/>
      <point x="79" y="159" type="line"/>
      <point x="79" y="238" type="line"/>
      <point x="0" y="238" type="line"/>
      <point x="0" y="305" type="line"/>
      <point x="79" y="305" type="line"/>
      <point x="79" y="384" type="line"/>
      <point x="146" y="384" type="line"/>
    </contour>
  </outline>
</glyph>
<glyph name="comma" format="2">
  <advance width="79"/>
  <unicode hex="002C"/>
  <outline>
    <contour>
      <point x="12" y="135" type="line"/>
      <point x="12" y="-24" type="line"/>
      <point x="-27" y="-24" type="line"/>
      <point x="-27" y="-67" type="line"/>
      <point x="34" y="-67" type="line" smooth="yes"/>
      <point x="43" y="-67"/>
      <point x="55" y="-54"/>
      <point x="55" y="-45" type="qcurve" smooth="yes"/>
      <point x="55" y="135" type="line"/>
    </contour>
    <contour>
      <point x="67" y="-45" type="line" smooth="yes"/>
      <point x="67" y="-59"/>
      <point x="48" y="-79"/>
      <point x="34" y="-79" type="qcurve" smooth="yes"/>
      <point x="-39" y="-79" type="line"/>
      <point x="-39" y="-12" type="line"/>
      <point x="0" y="-12" type="line"/>
      <point x="0" y="147" type="line"/>
      <point x="67" y="147" type="line"/>
    </contour>
  </outline>
</glyph>
<glyph name="hyphen" format="2">
  <advance width="158"/>
  <unicode hex="002D"/>
  <outline>
    <contour>
      <point x="12" y="293" type="line"/>
      <point x="12" y="250" type="line"/>
      <point x="134" y="250" type="line"/>
      <point x="134" y="293" type="line"/>
    </contour>
    <contour>
      <point x="146" y="238" type="line"/>
      <point x="0" y="238" type="line"/>
      <point x="0" y="305" type="line"/>
      <point x="146" y="305" type="line"/>
    </contour>
  </outline>
</glyph>
<glyph name="period" format="2">
  <advance width="79"/>
  <unicode hex="002E"/>
  <outline>
    <contour>
      <point x="12" y="134" type="line"/>
      <point x="12" y="12" type="line"/>
      <point x="55" y="12" type="line"/>
      <point x="55" y="134" type="line"/>
    </contour>
    <contour>
      <point x="67" y="0" type="line"/>
      <point x="0" y="0" type="line"/>
      <point x="0" y="146" type="line"/>
      <point x="67" y="146" type="line"/>
    </contour>
  </outline>
</glyph>
<glyph name="slash" format="2">
  <advance width="158"/>
  <unicode hex="002F"/>
  <outline>
    <contour>
      <point x="91" y="688" type="line"/>
      <point x="91" y="509" type="line"/>
      <point x="13" y="197" type="line"/>
      <point x="12.5" y="196.0" name="inserted"/>
      <point x="12.0" y="193.0"/>
      <point x="12" y="191" type="qcurve" smooth="yes"/>
      <point x="12" y="12" type="line"/>
      <point x="55" y="12" type="line"/>
      <point x="55" y="190" type="line"/>
      <point x="134" y="503" type="line"/>
      <point x="134" y="688" type="line"/>
    </contour>
    <contour>
      <point x="146" y="508" type="line" smooth="yes"/>
      <point x="146.0" y="505.0" name="inserted"/>
      <point x="145.5" y="501.0"/>
      <point x="145" y="500" type="qcurve"/>
      <point x="67" y="187" type="line"/>
      <point x="67" y="0" type="line"/>
      <point x="0" y="0" type="line"/>
      <point x="0" y="191" type="line" smooth="yes"/>
      <point x="0.0" y="194.0" name="inserted"/>
      <point x="0.5" y="198.5"/>
      <point x="1" y="200" type="qcurve"/>
      <point x="79" y="512" type="line"/>
      <point x="79" y="700" type="line"/>
      <point x="146" y="700" type="line"/>
    </contour>
  </outline>
</glyph>
<glyph name="zero" format="2">
  <advance width="158"/>
  <unicode hex="0030"/>
  <outline>
    <contour>
      <point x="34" y="688" type="line" smooth="yes"/>
      <point x="25" y="688"/>
      <point x="12" y="675"/>
      <point x="12" y="666" type="qcurve" smooth="yes"/>
      <point x="12" y="33" type="line" smooth="yes"/>
      <point x="12" y="24"/>
      <point x="25" y="12"/>
      <point x="34" y="12" type="qcurve" smooth="yes"/>
      <point x="113" y="12" type="line" smooth="yes"/>
      <point x="122" y="12"/>
      <point x="134" y="24"/>
      <point x="134" y="33" type="qcurve" smooth="yes"/>
      <point x="134" y="666" type="line" smooth="yes"/>
      <point x="134" y="675"/>
      <point x="122" y="688"/>
      <point x="113" y="688" type="qcurve" smooth="yes"/>
    </contour>
    <contour>
      <point x="55" y="644" type="line"/>
      <point x="91" y="644" type="line"/>
      <point x="91" y="54" type="line"/>
      <point x="55" y="54" type="line"/>
    </contour>
    <contour>
      <point x="113" y="700" type="line" smooth="yes"/>
      <point x="127" y="700"/>
      <point x="146" y="680"/>
      <point x="146" y="666" type="qcurve" smooth="yes"/>
      <point x="146" y="33" type="line" smooth="yes"/>
      <point x="146" y="19"/>
      <point x="127" y="0"/>
      <point x="113" y="0" type="qcurve" smooth="yes"/>
      <point x="34" y="0" type="line" smooth="yes"/>
      <point x="20" y="0"/>
      <point x="0" y="19"/>
      <point x="0" y="33" type="qcurve" smooth="yes"/>
      <point x="0" y="666" type="line" smooth="yes"/>
      <point x="0" y="680"/>
      <point x="20" y="700"/>
      <point x="34" y="700" type="qcurve" smooth="yes"/>
    </contour>
    <contour>
      <point x="79" y="66" type="line"/>
      <point x="79" y="632" type="line"/>
      <point x="67" y="632" type="line"/>
      <point x="67" y="66" type="line"/>
    </contour>
  </outline>
</glyph>
<glyph name="one" format="2">
  <advance width="119"/>
  <unicode hex="0031"/>
  <outline>
    <contour>
      <point x="12" y="688" type="line"/>
      <point x="12" y="645" type="line"/>
      <point x="52" y="645" type="line"/>
      <point x="52" y="12" type="line"/>
      <point x="95" y="12" type="line"/>
      <point x="95" y="688" type="line"/>
    </contour>
    <contour>
      <point x="107" y="0" type="line"/>
      <point x="40" y="0" type="line"/>
      <point x="40" y="633" type="line"/>
      <point x="0" y="633" type="line"/>
      <point x="0" y="700" type="line"/>
      <point x="107" y="700" type="line"/>
    </contour>
  </outline>
</glyph>
<glyph name="two" format="2">
  <advance width="158"/>
  <unicode hex="0032"/>
  <outline>
    <contour>
      <point x="34" y="688" type="line" smooth="yes"/>
      <point x="25" y="688"/>
      <point x="12" y="675"/>
      <point x="12" y="666" type="qcurve" smooth="yes"/>
      <point x="12" y="407" type="line"/>
      <point x="55" y="407" type="line"/>
      <point x="55" y="644" type="line"/>
      <point x="91" y="644" type="line"/>
      <point x="91" y="371" type="line"/>
      <point x="34" y="371" type="line" smooth="yes"/>
      <point x="25" y="371"/>
      <point x="12" y="358"/>
      <point x="12" y="350" type="qcurve" smooth="yes"/>
      <point x="12" y="12" type="line"/>
      <point x="134" y="12" type="line"/>
      <point x="134" y="292" type="line"/>
      <point x="91" y="292" type="line"/>
      <point x="91" y="54" type="line"/>
      <point x="55" y="54" type="line"/>
      <point x="55" y="328" type="line"/>
      <point x="113" y="328" type="line" smooth="yes"/>
      <point x="122" y="328"/>
      <point x="134" y="341"/>
      <point x="134" y="350" type="qcurve" smooth="yes"/>
      <point x="134" y="666" type="line" smooth="yes"/>
      <point x="134" y="675"/>
      <point x="122" y="688"/>
      <point x="113" y="688" type="qcurve" smooth="yes"/>
    </contour>
    <contour>
      <point x="113" y="700" type="line" smooth="yes"/>
      <point x="127" y="700"/>
      <point x="146" y="680"/>
      <point x="146" y="666" type="qcurve" smooth="yes"/>
      <point x="146" y="350" type="line" smooth="yes"/>
      <point x="146" y="336"/>
      <point x="127" y="316"/>
      <point x="113" y="316" type="qcurve" smooth="yes"/>
      <point x="67" y="316" type="line"/>
      <point x="67" y="66" type="line"/>
      <point x="79" y="66" type="line"/>
      <point x="79" y="304" type="line"/>
      <point x="146" y="304" type="line"/>
      <point x="146" y="0" type="line"/>
      <point x="0" y="0" type="line"/>
      <point x="0" y="350" type="line" smooth="yes"/>
      <point x="0" y="364"/>
      <point x="20" y="383"/>
      <point x="34" y="383" type="qcurve" smooth="yes"/>
      <point x="79" y="383" type="line"/>
      <point x="79" y="632" type="line"/>
      <point x="67" y="632" type="line"/>
      <point x="67" y="395" type="line"/>
      <point x="0" y="395" type="line"/>
      <point x="0" y="666" type="line" smooth="yes"/>
      <point x="0" y="680"/>
      <point x="20" y="700"/>
      <point x="34" y="700" type="qcurve" smooth="yes"/>
    </contour>
  </outline>
</glyph>
<glyph name="four" format="2">
  <advance width="158"/>
  <unicode hex="0034"/>
  <outline>
    <contour>
      <point x="91" y="688" type="line"/>
      <point x="91" y="371" type="line"/>
      <point x="55" y="371" type="line"/>
      <point x="55" y="688" type="line"/>
      <point x="12" y="688" type="line"/>
      <point x="12" y="328" type="line"/>
      <point x="91" y="328" type="line"/>
      <point x="91" y="12" type="line"/>
      <point x="134" y="12" type="line"/>
      <point x="134" y="688" type="line"/>
    </contour>
    <contour>
      <point x="146" y="0" type="line"/>
      <point x="79" y="0" type="line"/>
      <point x="79" y="316" type="line"/>
      <point x="0" y="316" type="line"/>
      <point x="0" y="700" type="line"/>
      <point x="67" y="700" type="line"/>
      <point x="67" y="383" type="line"/>
      <point x="79" y="383" type="line"/>
      <point x="79" y="700" type="line"/>
      <point x="146" y="700" type="line"/>
    </contour>
  </outline>
</glyph>
<glyph name="five" format="2">
  <advance width="158"/>
  <unicode hex="0035"/>
  <outline>
    <contour>
      <point x="113" y="12" type="line" smooth="yes"/>
      <point x="122" y="12"/>
      <point x="134" y="25"/>
      <point x="134" y="34" type="qcurve" smooth="yes"/>
      <point x="134" y="350" type="line" smooth="yes"/>
      <point x="134" y="359"/>
      <point x="122" y="372"/>
      <point x="113" y="372" type="qcurve" smooth="yes"/>
      <point x="55" y="372" type="line"/>
      <point x="55" y="646" type="line"/>
      <point x="91" y="646" type="line"/>
      <point x="91" y="408" type="line"/>
      <point x="134" y="408" type="line"/>
      <point x="134" y="688" type="line"/>
      <point x="12" y="688" type="line"/>
      <point x="12" y="350" type="line" smooth="yes"/>
      <point x="12" y="342"/>
      <point x="25" y="329"/>
      <point x="34" y="329" type="qcurve" smooth="yes"/>
      <point x="91" y="329" type="line"/>
      <point x="91" y="56" type="line"/>
      <point x="55" y="56" type="line"/>
      <point x="55" y="293" type="line"/>
      <point x="12" y="293" type="line"/>
      <point x="12" y="34" type="line" smooth="yes"/>
      <point x="12" y="25"/>
      <point x="25" y="12"/>
      <point x="34" y="12" type="qcurve" smooth="yes"/>
    </contour>
    <contour>
      <point x="34" y="0" type="line" smooth="yes"/>
      <point x="20" y="0"/>
      <point x="0" y="20"/>
      <point x="0" y="34" type="qcurve" smooth="yes"/>
      <point x="0" y="305" type="line"/>
      <point x="67" y="305" type="line"/>
      <point x="67" y="68" type="line"/>
      <point x="79" y="68" type="line"/>
      <point x="79" y="317" type="line"/>
      <point x="34" y="317" type="line" smooth="yes"/>
      <point x="20" y="317"/>
      <point x="0" y="336"/>
      <point x="0" y="350" type="qcurve" smooth="yes"/>
      <point x="0" y="700" type="line"/>
      <point x="146" y="700" type="line"/>
      <point x="146" y="396" type="line"/>
      <point x="79" y="396" type="line"/>
      <point x="79" y="634" type="line"/>
      <point x="67" y="634" type="line"/>
      <point x="67" y="384" type="line"/>
      <point x="113" y="384" type="line" smooth="yes"/>
      <point x="127" y="384"/>
      <point x="146" y="364"/>
      <point x="146" y="350" type="qcurve" smooth="yes"/>
      <point x="146" y="34" type="line" smooth="yes"/>
      <point x="146" y="20"/>
      <point x="127" y="0"/>
      <point x="113" y="0" type="qcurve" smooth="yes"/>
    </contour>
  </outline>
</glyph>
<glyph name="eight" format="2">
  <advance width="158"/>
  <unicode hex="0038"/>
  <outline>
    <contour>
      <point x="34" y="688" type="line" smooth="yes"/>
      <point x="25" y="688"/>
      <point x="12" y="675"/>
      <point x="12" y="666" type="qcurve" smooth="yes"/>
      <point x="12" y="390" type="line" smooth="yes"/>
      <point x="12.0" y="385.0" name="inserted"/>
      <point x="15.0" y="377.0"/>
      <point x="18" y="374" type="qcurve" smooth="yes"/>
      <point x="43" y="350" type="line"/>
      <point x="18" y="326" type="line" smooth="yes"/>
      <point x="15.0" y="323.0" name="inserted"/>
      <point x="12.0" y="315.0"/>
      <point x="12" y="310" type="qcurve" smooth="yes"/>
      <point x="12" y="34" type="line" smooth="yes"/>
      <point x="12" y="25"/>
      <point x="25" y="12"/>
      <point x="34" y="12" type="qcurve" smooth="yes"/>
      <point x="113" y="12" type="line" smooth="yes"/>
      <point x="122" y="12"/>
      <point x="134" y="25"/>
      <point x="134" y="34" type="qcurve" smooth="yes"/>
      <point x="134" y="310" type="line" smooth="yes"/>
      <point x="134.0" y="315.0" name="inserted"/>
      <point x="131.0" y="323.0"/>
      <point x="128" y="326" type="qcurve" smooth="yes"/>
      <point x="103" y="350" type="line"/>
      <point x="128" y="374" type="line" smooth="yes"/>
      <point x="131.0" y="377.0" name="inserted"/>
      <point x="134.0" y="385.0"/>
      <point x="134" y="390" type="qcurve" smooth="yes"/>
      <point x="134" y="666" type="line" smooth="yes"/>
      <point x="134" y="675"/>
      <point x="122" y="688"/>
      <point x="113" y="688" type="qcurve" smooth="yes"/>
    </contour>
    <contour>
      <point x="55" y="398" type="line"/>
      <point x="55" y="645" type="line"/>
      <point x="91" y="645" type="line"/>
      <point x="91" y="398" type="line"/>
      <point x="73" y="380" type="line"/>
    </contour>
    <contour>
      <point x="55" y="302" type="line"/>
      <point x="73" y="320" type="line"/>
      <point x="91" y="302" type="line"/>
      <point x="91" y="55" type="line"/>
      <point x="55" y="55" type="line"/>
    </contour>
    <contour>
      <point x="113" y="700" type="line" smooth="yes"/>
      <point x="127" y="700"/>
      <point x="146" y="680"/>
      <point x="146" y="666" type="qcurve" smooth="yes"/>
      <point x="146" y="390" type="line" smooth="yes"/>
      <point x="146.0" y="382.5" name="inserted"/>
      <point x="141.0" y="370.5"/>
      <point x="136" y="366" type="qcurve" smooth="yes"/>
      <point x="119" y="350" type="line"/>
      <point x="136" y="334" type="line" smooth="yes"/>
      <point x="141.0" y="329.5" name="inserted"/>
      <point x="146.0" y="317.5"/>
      <point x="146" y="310" type="qcurve" smooth="yes"/>
      <point x="146" y="34" type="line" smooth="yes"/>
      <point x="146" y="20"/>
      <point x="127" y="0"/>
      <point x="113" y="0" type="qcurve" smooth="yes"/>
      <point x="34" y="0" type="line" smooth="yes"/>
      <point x="20" y="0"/>
      <point x="0" y="20"/>
      <point x="0" y="34" type="qcurve" smooth="yes"/>
      <point x="0" y="310" type="line" smooth="yes"/>
      <point x="0.0" y="317.0" name="inserted"/>
      <point x="5.0" y="329.0"/>
      <point x="10" y="334" type="qcurve"/>
      <point x="28" y="350" type="line"/>
      <point x="10" y="366" type="line"/>
      <point x="5.0" y="371.0" name="inserted"/>
      <point x="0.0" y="383.0"/>
      <point x="0" y="390" type="qcurve" smooth="yes"/>
      <point x="0" y="666" type="line" smooth="yes"/>
      <point x="0" y="680"/>
      <point x="20" y="700"/>
      <point x="34" y="700" type="qcurve" smooth="yes"/>
    </contour>
    <contour>
      <point x="79" y="403" type="line"/>
      <point x="79" y="633" type="line"/>
      <point x="67" y="633" type="line"/>
      <point x="67" y="403" type="line"/>
      <point x="73" y="397" type="line"/>
    </contour>
    <contour>
      <point x="79" y="67" type="line"/>
      <point x="79" y="297" type="line"/>
      <point x="73" y="303" type="line"/>
      <point x="67" y="297" type="line"/>
      <point x="67" y="67" type="line"/>
    </contour>
  </outline>
</glyph>
<glyph name="nine" format="2">
  <advance width="158"/>
  <unicode hex="0039"/>
  <outline>
    <contour>
      <point x="112" y="12" type="line" smooth="yes"/>
      <point x="121" y="12"/>
      <point x="134" y="25"/>
      <point x="134" y="34" type="qcurve" smooth="yes"/>
      <point x="134" y="666" type="line" smooth="yes"/>
      <point x="134" y="675"/>
      <point x="121" y="688"/>
      <point x="112" y="688" type="qcurve" smooth="yes"/>
      <point x="33" y="688" type="line" smooth="yes"/>
      <point x="24" y="688"/>
      <point x="12" y="675"/>
      <point x="12" y="666" type="qcurve" smooth="yes"/>
      <point x="12" y="350" type="line" smooth="yes"/>
      <point x="12" y="341"/>
      <point x="24" y="328"/>
      <point x="33" y="328" type="qcurve" smooth="yes"/>
      <point x="91" y="328" type="line"/>
      <point x="91" y="55" type="line"/>
      <point x="55" y="55" type="line"/>
      <point x="55" y="67" type="line"/>
      <point x="55" y="292" type="line"/>
      <point x="12" y="292" type="line"/>
      <point x="12" y="34" type="line" smooth="yes"/>
      <point x="12" y="25"/>
      <point x="24" y="12"/>
      <point x="33" y="12" type="qcurve" smooth="yes"/>
    </contour>
    <contour>
      <point x="91" y="372" type="line"/>
      <point x="55" y="372" type="line"/>
      <point x="55" y="645" type="line"/>
      <point x="91" y="645" type="line"/>
    </contour>
    <contour>
      <point x="33" y="0" type="line" smooth="yes"/>
      <point x="19" y="0"/>
      <point x="0" y="20"/>
      <point x="0" y="34" type="qcurve" smooth="yes"/>
      <point x="0" y="304" type="line"/>
      <point x="67" y="304" type="line"/>
      <point x="67" y="67" type="line"/>
      <point x="79" y="67" type="line"/>
      <point x="79" y="316" type="line"/>
      <point x="33" y="316" type="line" smooth="yes"/>
      <point x="19" y="316"/>
      <point x="0" y="336"/>
      <point x="0" y="350" type="qcurve" smooth="yes"/>
      <point x="0" y="666" type="line" smooth="yes"/>
      <point x="0" y="680"/>
      <point x="19" y="700"/>
      <point x="33" y="700" type="qcurve" smooth="yes"/>
      <point x="112" y="700" type="line" smooth="yes"/>
      <point x="126" y="700"/>
      <point x="146" y="680"/>
      <point x="146" y="666" type="qcurve" smooth="yes"/>
      <point x="146" y="34" type="line" smooth="yes"/>
      <point x="146" y="20"/>
      <point x="126" y="0"/>
      <point x="112" y="0" type="qcurve" smooth="yes"/>
    </contour>
    <contour>
      <point x="67" y="633" type="line"/>
      <point x="67" y="384" type="line"/>
      <point x="79" y="384" type="line"/>
      <point x="79" y="633" type="line"/>
    </contour>
  </outline>
</glyph>
<glyph name="colon" format="2">
  <advance width="79"/>
  <unicode hex="003A"/>
  <outline>
    <contour>
      <point x="12" y="214" type="line"/>
      <point x="12" y="92" type="line"/>
      <point x="54" y="92" type="line"/>
      <point x="54" y="214" type="line"/>
    </contour>
    <contour>
      <point x="67" y="80" type="line"/>
      <point x="0" y="80" type="line"/>
      <point x="0" y="226" type="line"/>
      <point x="67" y="226" type="line"/>
    </contour>
    <contour>
      <point x="12" y="451" type="line"/>
      <point x="12" y="329" type="line"/>
      <point x="55" y="329" type="line"/>
      <point x="55" y="451" type="line"/>
    </contour>
    <contour>
      <point x="67" y="317" type="line"/>
      <point x="0" y="317" type="line"/>
      <point x="0" y="463" type="line"/>
      <point x="67" y="463" type="line"/>
    </contour>
  </outline>
</glyph>
<glyph name="semicolon" format="2">
  <advance width="119"/>
  <unicode hex="003B"/>
  <outline>
    <contour>
      <point x="52" y="213" type="line"/>
      <point x="52" y="55" type="line"/>
      <point x="12" y="55" type="line"/>
      <point x="12" y="12" type="line"/>
      <point x="73" y="12" type="line" smooth="yes"/>
      <point x="82" y="12"/>
      <point x="94" y="24"/>
      <point x="94" y="33" type="qcurve" smooth="yes"/>
      <point x="94" y="213" type="line"/>
    </contour>
    <contour>
      <point x="107" y="33" type="line" smooth="yes"/>
      <point x="107" y="19"/>
      <point x="88" y="0"/>
      <point x="74" y="0" type="qcurve" smooth="yes"/>
      <point x="0" y="0" type="line"/>
      <point x="0" y="67" type="line"/>
      <point x="40" y="67" type="line"/>
      <point x="40" y="225" type="line"/>
      <point x="107" y="225" type="line"/>
    </contour>
    <contour>
      <point x="52" y="450" type="line"/>
      <point x="52" y="328" type="line"/>
      <point x="94" y="328" type="line"/>
      <point x="94" y="450" type="line"/>
    </contour>
    <contour>
      <point x="107" y="316" type="line"/>
      <point x="40" y="316" type="line"/>
      <point x="40" y="462" type="line"/>
      <point x="107" y="462" type="line"/>
    </contour>
  </outline>
</glyph>
<glyph name="less" format="2">
  <advance width="198"/>
  <unicode hex="003C"/>
  <outline>
    <contour>
      <point x="113" y="371" type="line" smooth="yes"/>
      <point x="108.0" y="371.0" name="inserted"/>
      <point x="100.0" y="368.0"/>
      <point x="97" y="365" type="qcurve" smooth="yes"/>
      <point x="18" y="286" type="line" smooth="yes"/>
      <point x="15.0" y="283.0" name="inserted"/>
      <point x="12.0" y="275.5"/>
      <point x="12" y="271" type="qcurve" smooth="yes"/>
      <point x="12.0" y="266.0" name="inserted"/>
      <point x="15.0" y="258.0"/>
      <point x="18" y="255" type="qcurve" smooth="yes"/>
      <point x="97" y="176" type="line" smooth="yes"/>
      <point x="100.0" y="173.0" name="inserted"/>
      <point x="108.0" y="170.0"/>
      <point x="113" y="170" type="qcurve" smooth="yes"/>
      <point x="174" y="170" type="line"/>
      <point x="174" y="213" type="line"/>
      <point x="122" y="213" type="line"/>
      <point x="64" y="271" type="line"/>
      <point x="122" y="328" type="line"/>
      <point x="174" y="328" type="line"/>
      <point x="174" y="371" type="line"/>
    </contour>
    <contour>
      <point x="186" y="316" type="line"/>
      <point x="127" y="316" type="line"/>
      <point x="81" y="271" type="line"/>
      <point x="127" y="225" type="line"/>
      <point x="186" y="225" type="line"/>
      <point x="186" y="158" type="line"/>
      <point x="113" y="158" type="line" smooth="yes"/>
      <point x="105.5" y="158.0" name="inserted"/>
      <point x="93.5" y="163.0"/>
      <point x="89" y="168" type="qcurve"/>
      <point x="10" y="247" type="line" smooth="yes"/>
      <point x="5.0" y="252.0" name="inserted"/>
      <point x="0.0" y="264.0"/>
      <point x="0" y="271" type="qcurve" smooth="yes"/>
      <point x="0.0" y="277.5" name="inserted"/>
      <point x="5.0" y="289.0"/>
      <point x="10" y="294" type="qcurve" smooth="yes"/>
      <point x="89" y="373" type="line"/>
      <point x="93.5" y="378.0" name="inserted"/>
      <point x="105.5" y="383.0"/>
      <point x="113" y="383" type="qcurve" smooth="yes"/>
      <point x="186" y="383" type="line"/>
    </contour>
  </outline>
</glyph>
<glyph name="equal" format="2">
  <advance width="198"/>
  <unicode hex="003D"/>
  <outline>
    <contour>
      <point x="12" y="333" type="line"/>
      <point x="12" y="290" type="line"/>
      <point x="174" y="290" type="line"/>
      <point x="174" y="333" type="line"/>
    </contour>
    <contour>
      <point x="12" y="254" type="line"/>
      <point x="12" y="210" type="line"/>
      <point x="174" y="210" type="line"/>
      <point x="174" y="254" type="line"/>
    </contour>
    <contour>
      <point x="186" y="278" type="line"/>
      <point x="0" y="278" type="line"/>
      <point x="0" y="344" type="line"/>
      <point x="186" y="344" type="line"/>
    </contour>
    <contour>
      <point x="186" y="198" type="line"/>
      <point x="0" y="198" type="line"/>
      <point x="0" y="266" type="line"/>
      <point x="186" y="266" type="line"/>
    </contour>
  </outline>
</glyph>
<glyph name="greater" format="2">
  <advance width="198"/>
  <unicode hex="003E"/>
  <outline>
    <contour>
      <point x="12" y="371" type="line"/>
      <point x="12" y="328" type="line"/>
      <point x="64" y="328" type="line"/>
      <point x="122" y="271" type="line"/>
      <point x="64" y="213" type="line"/>
      <point x="12" y="213" type="line"/>
      <point x="12" y="170" type="line"/>
      <point x="73" y="170" type="line" smooth="yes"/>
      <point x="78.0" y="170.0" name="inserted"/>
      <point x="86.0" y="173.0"/>
      <point x="89" y="176" type="qcurve" smooth="yes"/>
      <point x="168" y="255" type="line" smooth="yes"/>
      <point x="171.0" y="258.0" name="inserted"/>
      <point x="174.0" y="266.0"/>
      <point x="174" y="271" type="qcurve" smooth="yes"/>
      <point x="174.0" y="275.5" name="inserted"/>
      <point x="171.0" y="283.0"/>
      <point x="168" y="286" type="qcurve" smooth="yes"/>
      <point x="89" y="365" type="line" smooth="yes"/>
      <point x="86.0" y="368.0" name="inserted"/>
      <point x="78.0" y="371.0"/>
      <point x="73" y="371" type="qcurve" smooth="yes"/>
    </contour>
    <contour>
      <point x="0" y="383" type="line"/>
      <point x="73" y="383" type="line" smooth="yes"/>
      <point x="80.5" y="383.0" name="inserted"/>
      <point x="92.5" y="378.0"/>
      <point x="97" y="373" type="qcurve"/>
      <point x="176" y="294" type="line" smooth="yes"/>
      <point x="181.0" y="289.0" name="inserted"/>
      <point x="186.0" y="277.5"/>
      <point x="186" y="271" type="qcurve" smooth="yes"/>
      <point x="186.0" y="264.0" name="inserted"/>
      <point x="181.0" y="252.0"/>
      <point x="176" y="247" type="qcurve" smooth="yes"/>
      <point x="97" y="168" type="line"/>
      <point x="92.5" y="163.0" name="inserted"/>
      <point x="80.5" y="158.0"/>
      <point x="73" y="158" type="qcurve" smooth="yes"/>
      <point x="0" y="158" type="line"/>
      <point x="0" y="225" type="line"/>
      <point x="59" y="225" type="line"/>
      <point x="105" y="271" type="line"/>
      <point x="59" y="316" type="line"/>
      <point x="0" y="316" type="line"/>
    </contour>
  </outline>
</glyph>
<glyph name="at" format="2">
  <advance width="237"/>
  <unicode hex="0040"/>
  <outline>
    <contour>
      <point x="34" y="609" type="line" smooth="yes"/>
      <point x="25" y="609"/>
      <point x="12" y="596"/>
      <point x="12" y="588" type="qcurve" smooth="yes"/>
      <point x="12" y="113" type="line" smooth="yes"/>
      <point x="12" y="104"/>
      <point x="25" y="91"/>
      <point x="34" y="91" type="qcurve" smooth="yes"/>
      <point x="213" y="91" type="line"/>
      <point x="213" y="134" type="line"/>
      <point x="55" y="134" type="line"/>
      <point x="55" y="566" type="line"/>
      <point x="170" y="566" type="line"/>
      <point x="170" y="530" type="line"/>
      <point x="113" y="530" type="line" smooth="yes"/>
      <point x="104" y="530"/>
      <point x="91" y="517"/>
      <point x="91" y="508" type="qcurve" smooth="yes"/>
      <point x="91" y="192" type="line" smooth="yes"/>
      <point x="91" y="183"/>
      <point x="104" y="170"/>
      <point x="113" y="170" type="qcurve" smooth="yes"/>
      <point x="213" y="170" type="line"/>
      <point x="213" y="588" type="line" smooth="yes"/>
      <point x="213" y="596"/>
      <point x="200" y="609"/>
      <point x="191" y="609" type="qcurve" smooth="yes"/>
    </contour>
    <contour>
      <point x="134" y="487" type="line"/>
      <point x="170" y="487" type="line"/>
      <point x="170" y="213" type="line"/>
      <point x="134" y="213" type="line"/>
    </contour>
    <contour>
      <point x="191" y="621" type="line" smooth="yes"/>
      <point x="205" y="621"/>
      <point x="225" y="602"/>
      <point x="225" y="588" type="qcurve" smooth="yes"/>
      <point x="225" y="158" type="line"/>
      <point x="113" y="158" type="line" smooth="yes"/>
      <point x="99" y="158"/>
      <point x="79" y="178"/>
      <point x="79" y="192" type="qcurve" smooth="yes"/>
      <point x="79" y="508" type="line" smooth="yes"/>
      <point x="79" y="522"/>
      <point x="99" y="542"/>
      <point x="113" y="542" type="qcurve" smooth="yes"/>
      <point x="158" y="542" type="line"/>
      <point x="158" y="554" type="line"/>
      <point x="67" y="554" type="line"/>
      <point x="67" y="146" type="line"/>
      <point x="225" y="146" type="line"/>
      <point x="225" y="79" type="line"/>
      <point x="34" y="79" type="line" smooth="yes"/>
      <point x="20" y="79"/>
      <point x="0" y="99"/>
      <point x="0" y="113" type="qcurve" smooth="yes"/>
      <point x="0" y="588" type="line" smooth="yes"/>
      <point x="0" y="602"/>
      <point x="20" y="621"/>
      <point x="34" y="621" type="qcurve" smooth="yes"/>
    </contour>
    <contour>
      <point x="158" y="225" type="line"/>
      <point x="158" y="475" type="line"/>
      <point x="146" y="475" type="line"/>
      <point x="146" y="225" type="line"/>
    </contour>
  </outline>
</glyph>
<glyph name="A" format="2">
  <advance width="158"/>
  <unicode hex="0041"/>
  <outline>
    <contour>
      <point x="33" y="688" type="line" smooth="yes"/>
      <point x="24" y="688"/>
      <point x="12" y="675"/>
      <point x="12" y="666" type="qcurve" smooth="yes"/>
      <point x="12" y="12" type="line"/>
      <point x="55" y="12" type="line"/>
      <point x="55" y="328" type="line"/>
      <point x="91" y="328" type="line"/>
      <point x="91" y="12" type="line"/>
      <point x="134" y="12" type="line"/>
      <point x="134" y="666" type="line" smooth="yes"/>
      <point x="134" y="675"/>
      <point x="121" y="688"/>
      <point x="112" y="688" type="qcurve" smooth="yes"/>
    </contour>
    <contour>
      <point x="55" y="645" type="line"/>
      <point x="91" y="645" type="line"/>
      <point x="91" y="372" type="line"/>
      <point x="55" y="372" type="line"/>
    </contour>
    <contour>
      <point x="112" y="700" type="line" smooth="yes"/>
      <point x="126" y="700"/>
      <point x="146" y="680"/>
      <point x="146" y="666" type="qcurve" smooth="yes"/>
      <point x="146" y="0" type="line"/>
      <point x="79" y="0" type="line"/>
      <point x="79" y="316" type="line"/>
      <point x="67" y="316" type="line"/>
      <point x="67" y="0" type="line"/>
      <point x="0" y="0" type="line"/>
      <point x="0" y="666" type="line" smooth="yes"/>
      <point x="0" y="680"/>
      <point x="19" y="700"/>
      <point x="33" y="700" type="qcurve" smooth="yes"/>
    </contour>
    <contour>
      <point x="79" y="384" type="line"/>
      <point x="79" y="633" type="line"/>
      <point x="67" y="633" type="line"/>
      <point x="67" y="384" type="line"/>
    </contour>
  </outline>
</glyph>
<glyph name="B" format="2">
  <advance width="237"/>
  <unicode hex="0042"/>
  <outline>
    <contour>
      <point x="158" y="645" type="line"/>
      <point x="170" y="645" type="line"/>
      <point x="170" y="633" type="line"/>
      <point x="170" y="423" type="line"/>
      <point x="170" y="411" type="line"/>
      <point x="158" y="411" type="line"/>
      <point x="146" y="411" type="line"/>
      <point x="134" y="411" type="line"/>
      <point x="134" y="423" type="line"/>
      <point x="134" y="633" type="line"/>
      <point x="134" y="645" type="line"/>
      <point x="146" y="645" type="line"/>
    </contour>
    <contour>
      <point x="158" y="633" type="line"/>
      <point x="146" y="633" type="line"/>
      <point x="146" y="423" type="line"/>
      <point x="158" y="423" type="line"/>
    </contour>
    <contour>
      <point x="192" y="700" type="line" smooth="yes"/>
      <point x="206" y="700"/>
      <point x="225" y="680"/>
      <point x="225" y="666" type="qcurve" smooth="yes"/>
      <point x="225" y="390" type="line" smooth="yes"/>
      <point x="225" y="376"/>
      <point x="206" y="356"/>
      <point x="192" y="356" type="qcurve" smooth="yes"/>
      <point x="146" y="356" type="line"/>
      <point x="146" y="344" type="line"/>
      <point x="192" y="344" type="line" smooth="yes"/>
      <point x="206" y="344"/>
      <point x="225" y="324"/>
      <point x="225" y="310" type="qcurve" smooth="yes"/>
      <point x="225" y="33" type="line" smooth="yes"/>
      <point x="225" y="19"/>
      <point x="206" y="0"/>
      <point x="192" y="0" type="qcurve" smooth="yes"/>
      <point x="146" y="0" type="line"/>
      <point x="79" y="0" type="line"/>
      <point x="67" y="0" type="line"/>
      <point x="0" y="0" type="line"/>
      <point x="0" y="67" type="line"/>
      <point x="0" y="344" type="line"/>
      <point x="67" y="344" type="line"/>
      <point x="67" y="67" type="line"/>
      <point x="79" y="67" type="line"/>
      <point x="79" y="277" type="line"/>
      <point x="79" y="344" type="line"/>
      <point x="79" y="356" type="line"/>
      <point x="79" y="423" type="line"/>
      <point x="79" y="633" type="line"/>
      <point x="67" y="633" type="line"/>
      <point x="67" y="356" type="line"/>
      <point x="0" y="356" type="line"/>
      <point x="0" y="633" type="line"/>
      <point x="0" y="700" type="line"/>
      <point x="67" y="700" type="line"/>
      <point x="79" y="700" type="line"/>
      <point x="146" y="700" type="line"/>
    </contour>
    <contour>
      <point x="213" y="666" type="line" smooth="yes"/>
      <point x="213" y="675"/>
      <point x="201" y="688"/>
      <point x="192" y="688" type="qcurve" smooth="yes"/>
      <point x="146" y="688" type="line"/>
      <point x="79" y="688" type="line"/>
      <point x="67" y="688" type="line"/>
      <point x="12" y="688" type="line"/>
      <point x="12" y="633" type="line"/>
      <point x="12" y="368" type="line"/>
      <point x="55" y="368" type="line"/>
      <point x="55" y="633" type="line"/>
      <point x="55" y="645" type="line"/>
      <point x="67" y="645" type="line"/>
      <point x="79" y="645" type="line"/>
      <point x="91" y="645" type="line"/>
      <point x="91" y="633" type="line"/>
      <point x="91" y="423" type="line"/>
      <point x="91" y="356" type="line"/>
      <point x="91" y="344" type="line"/>
      <point x="91" y="277" type="line"/>
      <point x="91" y="67" type="line"/>
      <point x="91" y="55" type="line"/>
      <point x="79" y="55" type="line"/>
      <point x="67" y="55" type="line"/>
      <point x="55" y="55" type="line"/>
      <point x="55" y="67" type="line"/>
      <point x="55" y="332" type="line"/>
      <point x="12" y="332" type="line"/>
      <point x="12" y="67" type="line"/>
      <point x="12" y="12" type="line"/>
      <point x="67" y="12" type="line"/>
      <point x="79" y="12" type="line"/>
      <point x="146" y="12" type="line"/>
      <point x="192" y="12" type="line" smooth="yes"/>
      <point x="201" y="12"/>
      <point x="213" y="25"/>
      <point x="213" y="33" type="qcurve" smooth="yes"/>
      <point x="213" y="310" type="line" smooth="yes"/>
      <point x="213" y="319"/>
      <point x="201" y="332"/>
      <point x="192" y="332" type="qcurve" smooth="yes"/>
      <point x="146" y="332" type="line"/>
      <point x="134" y="332" type="line"/>
      <point x="134" y="344" type="line"/>
      <point x="134" y="356" type="line"/>
      <point x="134" y="368" type="line"/>
      <point x="146" y="368" type="line"/>
      <point x="192" y="368" type="line" smooth="yes"/>
      <point x="201" y="368"/>
      <point x="213" y="381"/>
      <point x="213" y="390" type="qcurve" smooth="yes"/>
    </contour>
    <contour>
      <point x="134" y="289" type="line"/>
      <point x="146" y="289" type="line"/>
      <point x="158" y="289" type="line"/>
      <point x="170" y="289" type="line"/>
      <point x="170" y="277" type="line"/>
      <point x="170" y="67" type="line"/>
      <point x="170" y="55" type="line"/>
      <point x="158" y="55" type="line"/>
      <point x="146" y="55" type="line"/>
      <point x="134" y="55" type="line"/>
      <point x="134" y="67" type="line"/>
      <point x="134" y="277" type="line"/>
    </contour>
    <contour>
      <point x="146" y="67" type="line"/>
      <point x="158" y="67" type="line"/>
      <point x="158" y="277" type="line"/>
      <point x="146" y="277" type="line"/>
    </contour>
  </outline>
</glyph>
<glyph name="E" format="2">
  <advance width="158"/>
  <unicode hex="0045"/>
  <outline>
    <contour>
      <point x="12" y="688" type="line"/>
      <point x="12" y="12" type="line"/>
      <point x="134" y="12" type="line"/>
      <point x="134" y="292" type="line"/>
      <point x="91" y="292" type="line"/>
      <point x="91" y="55" type="line"/>
      <point x="55" y="55" type="line"/>
      <point x="55" y="328" type="line"/>
      <point x="134" y="328" type="line"/>
      <point x="134" y="372" type="line"/>
      <point x="55" y="372" type="line"/>
      <point x="55" y="645" type="line"/>
      <point x="91" y="645" type="line"/>
      <point x="91" y="408" type="line"/>
      <point x="134" y="408" type="line"/>
      <point x="134" y="688" type="line"/>
    </contour>
    <contour>
      <point x="146" y="396" type="line"/>
      <point x="79" y="396" type="line"/>
      <point x="79" y="633" type="line"/>
      <point x="67" y="633" type="line"/>
      <point x="67" y="384" type="line"/>
      <point x="146" y="384" type="line"/>
      <point x="146" y="316" type="line"/>
      <point x="67" y="316" type="line"/>
      <point x="67" y="67" type="line"/>
      <point x="79" y="67" type="line"/>
      <point x="79" y="304" type="line"/>
      <point x="146" y="304" type="line"/>
      <point x="146" y="0" type="line"/>
      <point x="0" y="0" type="line"/>
      <point x="0" y="700" type="line"/>
      <point x="146" y="700" type="line"/>
    </contour>
  </outline>
</glyph>
<glyph name="H" format="2">
  <advance width="158"/>
  <unicode hex="0048"/>
  <outline>
    <contour>
      <point x="91" y="688" type="line"/>
      <point x="91" y="372" type="line"/>
      <point x="55" y="372" type="line"/>
      <point x="55" y="688" type="line"/>
      <point x="12" y="688" type="line"/>
      <point x="12" y="12" type="line"/>
      <point x="55" y="12" type="line"/>
      <point x="55" y="328" type="line"/>
      <point x="91" y="328" type="line"/>
      <point x="91" y="12" type="line"/>
      <point x="134" y="12" type="line"/>
      <point x="134" y="688" type="line"/>
    </contour>
    <contour>
      <point x="146" y="0" type="line"/>
      <point x="79" y="0" type="line"/>
      <point x="79" y="316" type="line"/>
      <point x="67" y="316" type="line"/>
      <point x="67" y="0" type="line"/>
      <point x="0" y="0" type="line"/>
      <point x="0" y="700" type="line"/>
      <point x="67" y="700" type="line"/>
      <point x="67" y="384" type="line"/>
      <point x="79" y="384" type="line"/>
      <point x="79" y="700" type="line"/>
      <point x="146" y="700" type="line"/>
    </contour>
  </outline>
</glyph>
<glyph name="I" format="2">
  <advance width="237"/>
  <unicode hex="0049"/>
  <outline>
    <contour>
      <point x="12" y="688" type="line"/>
      <point x="12" y="368" type="line"/>
      <point x="55" y="368" type="line"/>
      <point x="55" y="645" type="line"/>
      <point x="91" y="645" type="line"/>
      <point x="91" y="55" type="line"/>
      <point x="55" y="55" type="line"/>
      <point x="55" y="332" type="line"/>
      <point x="12" y="332" type="line"/>
      <point x="12" y="12" type="line"/>
      <point x="213" y="12" type="line"/>
      <point x="213" y="332" type="line"/>
      <point x="170" y="332" type="line"/>
      <point x="170" y="55" type="line"/>
      <point x="134" y="55" type="line"/>
      <point x="134" y="645" type="line"/>
      <point x="170" y="645" type="line"/>
      <point x="170" y="368" type="line"/>
      <point x="213" y="368" type="line"/>
      <point x="213" y="688" type="line"/>
    </contour>
    <contour>
      <point x="225" y="356" type="line"/>
      <point x="158" y="356" type="line"/>
      <point x="158" y="633" type="line"/>
      <point x="146" y="633" type="line"/>
      <point x="146" y="67" type="line"/>
      <point x="158" y="67" type="line"/>
      <point x="158" y="344" type="line"/>
      <point x="225" y="344" type="line"/>
      <point x="225" y="0" type="line"/>
      <point x="0" y="0" type="line"/>
      <point x="0" y="344" type="line"/>
      <point x="67" y="344" type="line"/>
      <point x="67" y="67" type="line"/>
      <point x="79" y="67" type="line"/>
      <point x="79" y="633" type="line"/>
      <point x="67" y="633" type="line"/>
      <point x="67" y="356" type="line"/>
      <point x="0" y="356" type="line"/>
      <point x="0" y="700" type="line"/>
      <point x="225" y="700" type="line"/>
    </contour>
  </outline>
</glyph>
<glyph name="K" format="2">
  <advance width="158"/>
  <unicode hex="004B"/>
  <outline>
    <contour>
      <point x="91" y="688" type="line"/>
      <point x="91" y="411" type="line"/>
      <point x="55" y="411" type="line"/>
      <point x="55" y="688" type="line"/>
      <point x="12" y="688" type="line"/>
      <point x="12" y="12" type="line"/>
      <point x="55" y="12" type="line"/>
      <point x="55" y="289" type="line"/>
      <point x="91" y="289" type="line"/>
      <point x="91" y="12" type="line"/>
      <point x="134" y="12" type="line"/>
      <point x="134" y="310" type="line" smooth="yes"/>
      <point x="134" y="319"/>
      <point x="121" y="332"/>
      <point x="112" y="332" type="qcurve" smooth="yes"/>
      <point x="55" y="332" type="line"/>
      <point x="55" y="368" type="line"/>
      <point x="112" y="368" type="line" smooth="yes"/>
      <point x="121" y="368"/>
      <point x="134" y="381"/>
      <point x="134" y="390" type="qcurve" smooth="yes"/>
      <point x="134" y="688" type="line"/>
    </contour>
    <contour>
      <point x="146" y="390" type="line" smooth="yes"/>
      <point x="146" y="376"/>
      <point x="126" y="356"/>
      <point x="112" y="356" type="qcurve" smooth="yes"/>
      <point x="67" y="356" type="line"/>
      <point x="67" y="344" type="line"/>
      <point x="112" y="344" type="line" smooth="yes"/>
      <point x="126" y="344"/>
      <point x="146" y="324"/>
      <point x="146" y="310" type="qcurve" smooth="yes"/>
      <point x="146" y="0" type="line"/>
      <point x="79" y="0" type="line"/>
      <point x="79" y="277" type="line"/>
      <point x="67" y="277" type="line"/>
      <point x="67" y="0" type="line"/>
      <point x="0" y="0" type="line"/>
      <point x="0" y="700" type="line"/>
      <point x="67" y="700" type="line"/>
      <point x="67" y="423" type="line"/>
      <point x="79" y="423" type="line"/>
      <point x="79" y="700" type="line"/>
      <point x="146" y="700" type="line"/>
    </contour>
  </outline>
</glyph>
<glyph name="L" format="2">
  <advance width="158"/>
  <unicode hex="004C"/>
  <outline>
    <contour>
      <point x="12" y="688" type="line"/>
      <point x="12" y="12" type="line"/>
      <point x="134" y="12" type="line"/>
      <point x="134" y="332" type="line"/>
      <point x="91" y="332" type="line"/>
      <point x="91" y="55" type="line"/>
      <point x="55" y="55" type="line"/>
      <point x="55" y="688" type="line"/>
    </contour>
    <contour>
      <point x="67" y="67" type="line"/>
      <point x="79" y="67" type="line"/>
      <point x="79" y="344" type="line"/>
      <point x="146" y="344" type="line"/>
      <point x="146" y="0" type="line"/>
      <point x="0" y="0" type="line"/>
      <point x="0" y="700" type="line"/>
      <point x="67" y="700" type="line"/>
    </contour>
  </outline>
</glyph>
<glyph name="M" format="2">
  <advance width="317"/>
  <unicode hex="004D"/>
  <outline>
    <contour>
      <point x="271" y="700" type="line" smooth="yes"/>
      <point x="285" y="700"/>
      <point x="304" y="680"/>
      <point x="304" y="666" type="qcurve" smooth="yes"/>
      <point x="304" y="0" type="line"/>
      <point x="237" y="0" type="line"/>
      <point x="237" y="633" type="line"/>
      <point x="225" y="633" type="line"/>
      <point x="225" y="33" type="line" smooth="yes"/>
      <point x="225" y="19"/>
      <point x="206" y="0"/>
      <point x="192" y="0" type="qcurve" smooth="yes"/>
      <point x="113" y="0" type="line" smooth="yes"/>
      <point x="99" y="0"/>
      <point x="79" y="19"/>
      <point x="79" y="33" type="qcurve" smooth="yes"/>
      <point x="79" y="633" type="line"/>
      <point x="67" y="633" type="line"/>
      <point x="67" y="0" type="line"/>
      <point x="0" y="0" type="line"/>
      <point x="0" y="666" type="line" smooth="yes"/>
      <point x="0" y="680"/>
      <point x="19" y="700"/>
      <point x="33" y="700" type="qcurve" smooth="yes"/>
      <point x="113" y="700" type="line" smooth="yes"/>
      <point x="127" y="700"/>
      <point x="146" y="680"/>
      <point x="146" y="666" type="qcurve" smooth="yes"/>
      <point x="146" y="67" type="line"/>
      <point x="158" y="67" type="line"/>
      <point x="158" y="666" type="line" smooth="yes"/>
      <point x="158" y="680"/>
      <point x="178" y="700"/>
      <point x="192" y="700" type="qcurve" smooth="yes"/>
    </contour>
    <contour>
      <point x="292" y="666" type="line" smooth="yes"/>
      <point x="292" y="675"/>
      <point x="280" y="688"/>
      <point x="271" y="688" type="qcurve" smooth="yes"/>
      <point x="192" y="688" type="line" smooth="yes"/>
      <point x="183" y="688"/>
      <point x="170" y="675"/>
      <point x="170" y="666" type="qcurve" smooth="yes"/>
      <point x="170" y="55" type="line"/>
      <point x="134" y="55" type="line"/>
      <point x="134" y="666" type="line" smooth="yes"/>
      <point x="134" y="675"/>
      <point x="121" y="688"/>
      <point x="113" y="688" type="qcurve" smooth="yes"/>
      <point x="33" y="688" type="line" smooth="yes"/>
      <point x="25" y="688"/>
      <point x="12" y="675"/>
      <point x="12" y="666" type="qcurve" smooth="yes"/>
      <point x="12" y="12" type="line"/>
      <point x="55" y="12" type="line"/>
      <point x="55" y="645" type="line"/>
      <point x="91" y="645" type="line"/>
      <point x="91" y="33" type="line" smooth="yes"/>
      <point x="91" y="25"/>
      <point x="104" y="12"/>
      <point x="113" y="12" type="qcurve" smooth="yes"/>
      <point x="192" y="12" type="line" smooth="yes"/>
      <point x="201" y="12"/>
      <point x="213" y="25"/>
      <point x="213" y="33" type="qcurve" smooth="yes"/>
      <point x="213" y="645" type="line"/>
      <point x="249" y="645" type="line"/>
      <point x="249" y="12" type="line"/>
      <point x="292" y="12" type="line"/>
    </contour>
  </outline>
</glyph>
<glyph name="N" format="2">
  <advance width="237"/>
  <unicode hex="004E"/>
  <outline>
    <contour>
      <point x="170" y="688" type="line"/>
      <point x="170" y="67" type="line"/>
      <point x="170" y="55" type="line"/>
      <point x="134" y="55" type="line"/>
      <point x="134" y="666" type="line" smooth="yes"/>
      <point x="134" y="675"/>
      <point x="122" y="688"/>
      <point x="113" y="688" type="qcurve" smooth="yes"/>
      <point x="12" y="688" type="line"/>
      <point x="12" y="12" type="line"/>
      <point x="56" y="12" type="line"/>
      <point x="56" y="645" type="line"/>
      <point x="92" y="645" type="line"/>
      <point x="92" y="34" type="line" smooth="yes"/>
      <point x="92" y="25"/>
      <point x="104" y="12"/>
      <point x="113" y="12" type="qcurve" smooth="yes"/>
      <point x="213" y="12" type="line"/>
      <point x="213" y="688" type="line"/>
    </contour>
    <contour>
      <point x="225" y="0" type="line"/>
      <point x="113" y="0" type="line" smooth="yes"/>
      <point x="99" y="0"/>
      <point x="80" y="20"/>
      <point x="80" y="34" type="qcurve" smooth="yes"/>
      <point x="80" y="633" type="line"/>
      <point x="68" y="633" type="line"/>
      <point x="68" y="0" type="line"/>
      <point x="0" y="0" type="line"/>
      <point x="0" y="700" type="line"/>
      <point x="113" y="700" type="line" smooth="yes"/>
      <point x="127" y="700"/>
      <point x="146" y="680"/>
      <point x="146" y="666" type="qcurve" smooth="yes"/>
      <point x="146" y="67" type="line"/>
      <point x="158" y="67" type="line"/>
      <point x="158" y="700" type="line"/>
      <point x="225" y="700" type="line"/>
    </contour>
  </outline>
</glyph>
<glyph name="P" format="2">
  <advance width="158"/>
  <unicode hex="0050"/>
  <outline>
    <contour>
      <point x="67" y="0" type="line"/>
      <point x="0" y="0" type="line"/>
      <point x="0" y="700" type="line"/>
      <point x="113" y="700" type="line" smooth="yes"/>
      <point x="127" y="700"/>
      <point x="146" y="680"/>
      <point x="146" y="666" type="qcurve" smooth="yes"/>
      <point x="146" y="350" type="line" smooth="yes"/>
      <point x="146" y="336"/>
      <point x="127" y="316"/>
      <point x="113" y="316" type="qcurve" smooth="yes"/>
      <point x="67" y="316" type="line"/>
    </contour>
    <contour>
      <point x="55" y="328" type="line"/>
      <point x="113" y="328" type="line" smooth="yes"/>
      <point x="122" y="328"/>
      <point x="134" y="341"/>
      <point x="134" y="350" type="qcurve" smooth="yes"/>
      <point x="134" y="666" type="line" smooth="yes"/>
      <point x="134" y="675"/>
      <point x="122" y="688"/>
      <point x="113" y="688" type="qcurve" smooth="yes"/>
      <point x="12" y="688" type="line"/>
      <point x="12" y="12" type="line"/>
      <point x="55" y="12" type="line"/>
    </contour>
    <contour>
      <point x="55" y="372" type="line"/>
      <point x="55" y="645" type="line"/>
      <point x="91" y="645" type="line"/>
      <point x="91" y="372" type="line"/>
    </contour>
    <contour>
      <point x="67" y="384" type="line"/>
      <point x="79" y="384" type="line"/>
      <point x="79" y="633" type="line"/>
      <point x="67" y="633" type="line"/>
    </contour>
  </outline>
</glyph>
<glyph name="S" format="2">
  <advance width="158"/>
  <unicode hex="0053"/>
  <outline>
    <contour>
      <point x="34" y="0" type="line" smooth="yes"/>
      <point x="20" y="0"/>
      <point x="0" y="20"/>
      <point x="0" y="34" type="qcurve" smooth="yes"/>
      <point x="0" y="304" type="line"/>
      <point x="67" y="304" type="line"/>
      <point x="67" y="67" type="line"/>
      <point x="79" y="67" type="line"/>
      <point x="79" y="316" type="line"/>
      <point x="34" y="316" type="line" smooth="yes"/>
      <point x="20" y="316"/>
      <point x="0" y="336"/>
      <point x="0" y="350" type="qcurve" smooth="yes"/>
      <point x="0" y="666" type="line" smooth="yes"/>
      <point x="0" y="680"/>
      <point x="20" y="700"/>
      <point x="34" y="700" type="qcurve" smooth="yes"/>
      <point x="113" y="700" type="line" smooth="yes"/>
      <point x="127" y="700"/>
      <point x="146" y="680"/>
      <point x="146" y="666" type="qcurve" smooth="yes"/>
      <point x="146" y="396" type="line"/>
      <point x="79" y="396" type="line"/>
      <point x="79" y="633" type="line"/>
      <point x="67" y="633" type="line"/>
      <point x="67" y="384" type="line"/>
      <point x="113" y="384" type="line" smooth="yes"/>
      <point x="127" y="384"/>
      <point x="146" y="364"/>
      <point x="146" y="350" type="qcurve" smooth="yes"/>
      <point x="146" y="34" type="line" smooth="yes"/>
      <point x="146" y="20"/>
      <point x="127" y="0"/>
      <point x="113" y="0" type="qcurve" smooth="yes"/>
    </contour>
    <contour>
      <point x="12" y="34" type="line" smooth="yes"/>
      <point x="12" y="25"/>
      <point x="25" y="12"/>
      <point x="34" y="12" type="qcurve" smooth="yes"/>
      <point x="113" y="12" type="line" smooth="yes"/>
      <point x="122" y="12"/>
      <point x="134" y="25"/>
      <point x="134" y="34" type="qcurve" smooth="yes"/>
      <point x="134" y="350" type="line" smooth="yes"/>
      <point x="134" y="359"/>
      <point x="122" y="372"/>
      <point x="113" y="372" type="qcurve" smooth="yes"/>
      <point x="55" y="372" type="line"/>
      <point x="55" y="645" type="line"/>
      <point x="91" y="645" type="line"/>
      <point x="91" y="408" type="line"/>
      <point x="134" y="408" type="line"/>
      <point x="134" y="666" type="line" smooth="yes"/>
      <point x="134" y="675"/>
      <point x="122" y="688"/>
      <point x="113" y="688" type="qcurve" smooth="yes"/>
      <point x="34" y="688" type="line" smooth="yes"/>
      <point x="25" y="688"/>
      <point x="12" y="675"/>
      <point x="12" y="666" type="qcurve" smooth="yes"/>
      <point x="12" y="350" type="line" smooth="yes"/>
      <point x="12" y="341"/>
      <point x="25" y="328"/>
      <point x="34" y="328" type="qcurve" smooth="yes"/>
      <point x="91" y="328" type="line"/>
      <point x="91" y="55" type="line"/>
      <point x="55" y="55" type="line"/>
      <point x="55" y="292" type="line"/>
      <point x="12" y="292" type="line"/>
    </contour>
  </outline>
</glyph>
<glyph name="T" format="2">
  <advance width="237"/>
  <unicode hex="0054"/>
  <outline>
    <contour>
      <point x="67" y="356" type="line"/>
      <point x="0" y="356" type="line"/>
      <point x="0" y="700" type="line"/>
      <point x="225" y="700" type="line"/>
      <point x="225" y="356" type="line"/>
      <point x="158" y="356" type="line"/>
      <point x="158" y="633" type="line"/>
      <point x="146" y="633" type="line"/>
      <point x="146" y="0" type="line"/>
      <point x="79" y="0" type="line"/>
      <point x="79" y="633" type="line"/>
      <point x="67" y="633" type="line"/>
    </contour>
    <contour>
      <point x="55" y="645" type="line"/>
      <point x="91" y="645" type="line"/>
      <point x="91" y="12" type="line"/>
      <point x="134" y="12" type="line"/>
      <point x="134" y="645" type="line"/>
      <point x="170" y="645" type="line"/>
      <point x="170" y="368" type="line"/>
      <point x="213" y="368" type="line"/>
      <point x="213" y="688" type="line"/>
      <point x="12" y="688" type="line"/>
      <point x="12" y="368" type="line"/>
      <point x="55" y="368" type="line"/>
    </contour>
  </outline>
</glyph>
<glyph name="U" format="2">
  <advance width="158"/>
  <unicode hex="0055"/>
  <outline>
    <contour>
      <point x="67" y="67" type="line"/>
      <point x="79" y="67" type="line"/>
      <point x="79" y="700" type="line"/>
      <point x="146" y="700" type="line"/>
      <point x="146" y="34" type="line" smooth="yes"/>
      <point x="146" y="20"/>
      <point x="127" y="0"/>
      <point x="113" y="0" type="qcurve" smooth="yes"/>
      <point x="34" y="0" type="line" smooth="yes"/>
      <point x="20" y="0"/>
      <point x="0" y="20"/>
      <point x="0" y="34" type="qcurve" smooth="yes"/>
      <point x="0" y="700" type="line"/>
      <point x="67" y="700" type="line"/>
    </contour>
    <contour>
      <point x="55" y="55" type="line"/>
      <point x="55" y="688" type="line"/>
      <point x="12" y="688" type="line"/>
      <point x="12" y="34" type="line" smooth="yes"/>
      <point x="12" y="25"/>
      <point x="25" y="12"/>
      <point x="34" y="12" type="qcurve" smooth="yes"/>
      <point x="113" y="12" type="line" smooth="yes"/>
      <point x="122" y="12"/>
      <point x="134" y="25"/>
      <point x="134" y="34" type="qcurve" smooth="yes"/>
      <point x="134" y="688" type="line"/>
      <point x="91" y="688" type="line"/>
      <point x="91" y="55" type="line"/>
    </contour>
  </outline>
</glyph>
<glyph name="V" format="2">
  <advance width="158"/>
  <unicode hex="0056"/>
  <outline>
    <contour>
      <point x="67" y="700" type="line"/>
      <point x="67" y="121" type="line"/>
      <point x="79" y="86" type="line"/>
      <point x="79" y="700" type="line"/>
      <point x="146" y="700" type="line"/>
      <point x="146" y="0" type="line"/>
      <point x="52" y="0" type="line"/>
      <point x="0" y="105" type="line"/>
      <point x="0" y="700" type="line"/>
    </contour>
    <contour>
      <point x="55" y="118" type="line"/>
      <point x="55" y="688" type="line"/>
      <point x="12" y="688" type="line"/>
      <point x="12" y="107" type="line"/>
      <point x="60" y="12" type="line"/>
      <point x="134" y="12" type="line"/>
      <point x="134" y="688" type="line"/>
      <point x="91" y="688" type="line"/>
      <point x="91" y="30" type="line"/>
    </contour>
  </outline>
</glyph>
<glyph name="W" format="2">
  <advance width="316"/>
  <unicode hex="0057"/>
  <outline>
    <contour>
      <point x="237" y="700" type="line"/>
      <point x="304" y="700" type="line"/>
      <point x="304" y="0" type="line"/>
      <point x="192" y="0" type="line" smooth="yes"/>
      <point x="178" y="0"/>
      <point x="158" y="19"/>
      <point x="158" y="33" type="qcurve" smooth="yes"/>
      <point x="158" y="633" type="line"/>
      <point x="146" y="633" type="line"/>
      <point x="146" y="33" type="line" smooth="yes"/>
      <point x="146" y="19"/>
      <point x="127" y="0"/>
      <point x="113" y="0" type="qcurve" smooth="yes"/>
      <point x="0" y="0" type="line"/>
      <point x="0" y="700" type="line"/>
      <point x="67" y="700" type="line"/>
      <point x="67" y="67" type="line"/>
      <point x="79" y="67" type="line"/>
      <point x="79" y="666" type="line" smooth="yes"/>
      <point x="79" y="680"/>
      <point x="99" y="700"/>
      <point x="113" y="700" type="qcurve" smooth="yes"/>
      <point x="192" y="700" type="line" smooth="yes"/>
      <point x="206" y="700"/>
      <point x="225" y="680"/>
      <point x="225" y="666" type="qcurve" smooth="yes"/>
      <point x="225" y="67" type="line"/>
      <point x="237" y="67" type="line"/>
    </contour>
    <contour>
      <point x="213" y="55" type="line"/>
      <point x="213" y="666" type="line" smooth="yes"/>
      <point x="213" y="675"/>
      <point x="201" y="688"/>
      <point x="192" y="688" type="qcurve" smooth="yes"/>
      <point x="113" y="688" type="line" smooth="yes"/>
      <point x="104" y="688"/>
      <point x="91" y="675"/>
      <point x="91" y="666" type="qcurve" smooth="yes"/>
      <point x="91" y="55" type="line"/>
      <point x="55" y="55" type="line"/>
      <point x="55" y="688" type="line"/>
      <point x="12" y="688" type="line"/>
      <point x="12" y="12" type="line"/>
      <point x="113" y="12" type="line" smooth="yes"/>
      <point x="121" y="12"/>
      <point x="134" y="25"/>
      <point x="134" y="33" type="qcurve" smooth="yes"/>
      <point x="134" y="645" type="line"/>
      <point x="170" y="645" type="line"/>
      <point x="170" y="33" type="line" smooth="yes"/>
      <point x="170" y="25"/>
      <point x="183" y="12"/>
      <point x="192" y="12" type="qcurve" smooth="yes"/>
      <point x="292" y="12" type="line"/>
      <point x="292" y="688" type="line"/>
      <point x="249" y="688" type="line"/>
      <point x="249" y="55" type="line"/>
    </contour>
  </outline>
</glyph>
<glyph name="X" format="2">
  <advance width="158"/>
  <unicode hex="0058"/>
  <outline>
    <contour>
      <point x="67" y="0" type="line"/>
      <point x="0" y="0" type="line"/>
      <point x="0" y="310" type="line" smooth="yes"/>
      <point x="0" y="324"/>
      <point x="20" y="344"/>
      <point x="34" y="344" type="qcurve" smooth="yes"/>
      <point x="40" y="344" type="line"/>
      <point x="40" y="356" type="line"/>
      <point x="34" y="356" type="line" smooth="yes"/>
      <point x="20" y="356"/>
      <point x="0" y="375"/>
      <point x="0" y="389" type="qcurve" smooth="yes"/>
      <point x="0" y="700" type="line"/>
      <point x="67" y="700" type="line"/>
      <point x="67" y="422" type="line"/>
      <point x="79" y="422" type="line"/>
      <point x="79" y="700" type="line"/>
      <point x="146" y="700" type="line"/>
      <point x="146" y="389" type="line" smooth="yes"/>
      <point x="146" y="375"/>
      <point x="127" y="356"/>
      <point x="113" y="356" type="qcurve" smooth="yes"/>
      <point x="106" y="356" type="line"/>
      <point x="106" y="344" type="line"/>
      <point x="113" y="344" type="line" smooth="yes"/>
      <point x="127" y="344"/>
      <point x="146" y="324"/>
      <point x="146" y="310" type="qcurve" smooth="yes"/>
      <point x="146" y="0" type="line"/>
      <point x="79" y="0" type="line"/>
      <point x="79" y="276" type="line"/>
      <point x="67" y="276" type="line"/>
    </contour>
    <contour>
      <point x="55" y="288" type="line"/>
      <point x="91" y="288" type="line"/>
      <point x="91" y="12" type="line"/>
      <point x="134" y="12" type="line"/>
      <point x="134" y="310" type="line" smooth="yes"/>
      <point x="134" y="319"/>
      <point x="122" y="332"/>
      <point x="113" y="332" type="qcurve" smooth="yes"/>
      <point x="94" y="332" type="line"/>
      <point x="94" y="368" type="line"/>
      <point x="113" y="368" type="line" smooth="yes"/>
      <point x="122" y="368"/>
      <point x="134" y="380"/>
      <point x="134" y="389" type="qcurve" smooth="yes"/>
      <point x="134" y="688" type="line"/>
      <point x="91" y="688" type="line"/>
      <point x="91" y="411" type="line"/>
      <point x="55" y="411" type="line"/>
      <point x="55" y="688" type="line"/>
      <point x="12" y="688" type="line"/>
      <point x="12" y="389" type="line" smooth="yes"/>
      <point x="12" y="380"/>
      <point x="25" y="368"/>
      <point x="34" y="368" type="qcurve" smooth="yes"/>
      <point x="52" y="368" type="line"/>
      <point x="52" y="332" type="line"/>
      <point x="34" y="332" type="line" smooth="yes"/>
      <point x="25" y="332"/>
      <point x="12" y="319"/>
      <point x="12" y="310" type="qcurve" smooth="yes"/>
      <point x="12" y="12" type="line"/>
      <point x="55" y="12" type="line"/>
    </contour>
  </outline>
</glyph>
<glyph name="Y" format="2">
  <advance width="158"/>
  <unicode hex="0059"/>
  <outline>
    <contour>
      <point x="34" y="317" type="line" smooth="yes"/>
      <point x="20" y="317"/>
      <point x="0" y="336"/>
      <point x="0" y="350" type="qcurve" smooth="yes"/>
      <point x="0" y="700" type="line"/>
      <point x="67" y="700" type="line"/>
      <point x="67" y="384" type="line"/>
      <point x="79" y="384" type="line"/>
      <point x="79" y="700" type="line"/>
      <point x="146" y="700" type="line"/>
      <point x="146" y="350" type="line" smooth="yes"/>
      <point x="146" y="336"/>
      <point x="127" y="317"/>
      <point x="113" y="317" type="qcurve" smooth="yes"/>
      <point x="106" y="317" type="line"/>
      <point x="106" y="0" type="line"/>
      <point x="40" y="0" type="line"/>
      <point x="40" y="317" type="line"/>
    </contour>
    <contour>
      <point x="12" y="350" type="line" smooth="yes"/>
      <point x="12" y="342"/>
      <point x="25" y="329"/>
      <point x="34" y="329" type="qcurve" smooth="yes"/>
      <point x="52" y="329" type="line"/>
      <point x="52" y="12" type="line"/>
      <point x="94" y="12" type="line"/>
      <point x="94" y="329" type="line"/>
      <point x="113" y="329" type="line" smooth="yes"/>
      <point x="122" y="329"/>
      <point x="134" y="342"/>
      <point x="134" y="350" type="qcurve" smooth="yes"/>
      <point x="134" y="688" type="line"/>
      <point x="91" y="688" type="line"/>
      <point x="91" y="372" type="line"/>
      <point x="55" y="372" type="line"/>
      <point x="55" y="688" type="line"/>
      <point x="12" y="688" type="line"/>
    </contour>
  </outline>
</glyph>
<glyph name="Z" format="2">
  <advance width="158"/>
  <unicode hex="005A"/>
  <outline>
    <contour>
      <point x="79" y="403" type="line"/>
      <point x="79" y="633" type="line"/>
      <point x="67" y="633" type="line"/>
      <point x="67" y="435" type="line"/>
      <point x="0" y="435" type="line"/>
      <point x="0" y="700" type="line"/>
      <point x="146" y="700" type="line"/>
      <point x="146" y="390" type="line" smooth="yes"/>
      <point x="146.0" y="382.5" name="inserted"/>
      <point x="141.0" y="370.5"/>
      <point x="136" y="366" type="qcurve"/>
      <point x="67" y="297" type="line"/>
      <point x="67" y="67" type="line"/>
      <point x="79" y="67" type="line"/>
      <point x="79" y="265" type="line"/>
      <point x="146" y="265" type="line"/>
      <point x="146" y="0" type="line"/>
      <point x="0" y="0" type="line"/>
      <point x="0" y="310" type="line" smooth="yes"/>
      <point x="0.0" y="317.0" name="inserted"/>
      <point x="5.0" y="329.0"/>
      <point x="10" y="334" type="qcurve" smooth="yes"/>
    </contour>
    <contour>
      <point x="91" y="645" type="line"/>
      <point x="91" y="398" type="line"/>
      <point x="18" y="326" type="line" smooth="yes"/>
      <point x="15.0" y="323.0" name="inserted"/>
      <point x="12.0" y="315.0"/>
      <point x="12" y="310" type="qcurve" smooth="yes"/>
      <point x="12" y="12" type="line"/>
      <point x="134" y="12" type="line"/>
      <point x="134" y="253" type="line"/>
      <point x="91" y="253" type="line"/>
      <point x="91" y="55" type="line"/>
      <point x="55" y="55" type="line"/>
      <point x="55" y="302" type="line"/>
      <point x="128" y="374" type="line" smooth="yes"/>
      <point x="131.0" y="377.0" name="inserted"/>
      <point x="134.0" y="385.0"/>
      <point x="134" y="390" type="qcurve" smooth="yes"/>
      <point x="134" y="688" type="line"/>
      <point x="12" y="688" type="line"/>
      <point x="12" y="447" type="line"/>
      <point x="55" y="447" type="line"/>
      <point x="55" y="645" type="line"/>
    </contour>
  </outline>
</glyph>
<glyph name="bracketleft" format="2">
  <advance width="158"/>
  <unicode hex="005B"/>
  <outline>
    <contour>
      <point x="67" y="634" type="line"/>
      <point x="67" y="68" type="line"/>
      <point x="146" y="68" type="line"/>
      <point x="146" y="0" type="line"/>
      <point x="0" y="0" type="line"/>
      <point x="0" y="700" type="line"/>
      <point x="146" y="700" type="line"/>
      <point x="146" y="634" type="line"/>
    </contour>
    <contour>
      <point x="55" y="56" type="line"/>
      <point x="55" y="646" type="line"/>
      <point x="134" y="646" type="line"/>
      <point x="134" y="688" type="line"/>
      <point x="12" y="688" type="line"/>
      <point x="12" y="12" type="line"/>
      <point x="134" y="12" type="line"/>
      <point x="134" y="56" type="line"/>
    </contour>
  </outline>
</glyph>
<glyph name="underscore" format="2">
  <advance width="158"/>
  <unicode hex="005F"/>
  <outline>
    <contour>
      <point x="12" y="-24" type="line"/>
      <point x="12" y="-67" type="line"/>
      <point x="134" y="-67" type="line"/>
      <point x="134" y="-24" type="line"/>
    </contour>
    <contour>
      <point x="146" y="-79" type="line"/>
      <point x="0" y="-79" type="line"/>
      <point x="0" y="-12" type="line"/>
      <point x="146" y="-12" type="line"/>
    </contour>
  </outline>
</glyph>
<glyph name="grave" format="2">
  <advance width="158"/>
  <unicode hex="0060"/>
  <outline>
    <contour>
      <point x="67" y="700" type="line"/>
      <point x="67" y="621" type="line"/>
      <point x="146" y="621" type="line"/>
      <point x="146" y="554" type="line"/>
      <point x="34" y="554" type="line" smooth="yes"/>
      <point x="20" y="554"/>
      <point x="0" y="573"/>
      <point x="0" y="587" type="qcurve" smooth="yes"/>
      <point x="0" y="700" type="line"/>
    </contour>
    <contour>
      <point x="55" y="609" type="line"/>
      <point x="55" y="688" type="line"/>
      <point x="12" y="688" type="line"/>
      <point x="12" y="587" type="line" smooth="yes"/>
      <point x="12" y="578"/>
      <point x="25" y="566"/>
      <point x="34" y="566" type="qcurve" smooth="yes"/>
      <point x="134" y="566" type="line"/>
      <point x="134" y="609" type="line"/>
    </contour>
  </outline>
</glyph>
<glyph name="a" format="2">
  <advance width="158"/>
  <unicode hex="0061"/>
  <outline>
    <contour>
      <point x="91" y="250" type="line"/>
      <point x="91" y="56" type="line"/>
      <point x="55" y="56" type="line"/>
      <point x="55" y="250" type="line"/>
    </contour>
    <contour>
      <point x="79" y="238" type="line"/>
      <point x="67" y="238" type="line"/>
      <point x="67" y="68" type="line"/>
      <point x="79" y="68" type="line"/>
    </contour>
    <contour>
      <point x="0" y="509" type="line" smooth="yes"/>
      <point x="0" y="523"/>
      <point x="20" y="542"/>
      <point x="34" y="542" type="qcurve" smooth="yes"/>
      <point x="113" y="542" type="line" smooth="yes"/>
      <point x="127" y="542"/>
      <point x="146" y="523"/>
      <point x="146" y="509" type="qcurve" smooth="yes"/>
      <point x="146" y="0" type="line"/>
      <point x="34" y="0" type="line" smooth="yes"/>
      <point x="20" y="0"/>
      <point x="0" y="20"/>
      <point x="0" y="34" type="qcurve" smooth="yes"/>
      <point x="0" y="271" type="line" smooth="yes"/>
      <point x="0" y="285"/>
      <point x="20" y="305"/>
      <point x="34" y="305" type="qcurve" smooth="yes"/>
      <point x="79" y="305" type="line"/>
      <point x="79" y="475" type="line"/>
      <point x="67" y="475" type="line"/>
      <point x="67" y="317" type="line"/>
      <point x="0" y="317" type="line"/>
    </contour>
    <contour>
      <point x="12" y="329" type="line"/>
      <point x="55" y="329" type="line"/>
      <point x="55" y="487" type="line"/>
      <point x="91" y="487" type="line"/>
      <point x="91" y="293" type="line"/>
      <point x="34" y="293" type="line" smooth="yes"/>
      <point x="25" y="293"/>
      <point x="12" y="280"/>
      <point x="12" y="271" type="qcurve" smooth="yes"/>
      <point x="12" y="34" type="line" smooth="yes"/>
      <point x="12" y="25"/>
      <point x="25" y="12"/>
      <point x="34" y="12" type="qcurve" smooth="yes"/>
      <point x="134" y="12" type="line"/>
      <point x="134" y="509" type="line" smooth="yes"/>
      <point x="134" y="518"/>
      <point x="122" y="530"/>
      <point x="113" y="530" type="qcurve" smooth="yes"/>
      <point x="34" y="530" type="line" smooth="yes"/>
      <point x="25" y="530"/>
      <point x="12" y="518"/>
      <point x="12" y="509" type="qcurve" smooth="yes"/>
    </contour>
  </outline>
</glyph>
<glyph name="e" format="2">
  <advance width="158"/>
  <unicode hex="0065"/>
  <outline>
    <contour>
      <point x="55" y="292" type="line"/>
      <point x="55" y="487" type="line"/>
      <point x="91" y="487" type="line"/>
      <point x="91" y="292" type="line"/>
    </contour>
    <contour>
      <point x="67" y="304" type="line"/>
      <point x="79" y="304" type="line"/>
      <point x="79" y="475" type="line"/>
      <point x="67" y="475" type="line"/>
    </contour>
    <contour>
      <point x="0" y="508" type="line" smooth="yes"/>
      <point x="0" y="522"/>
      <point x="20" y="542"/>
      <point x="34" y="542" type="qcurve" smooth="yes"/>
      <point x="113" y="542" type="line" smooth="yes"/>
      <point x="127" y="542"/>
      <point x="146" y="522"/>
      <point x="146" y="508" type="qcurve" smooth="yes"/>
      <point x="146" y="237" type="line"/>
      <point x="67" y="237" type="line"/>
      <point x="67" y="67" type="line"/>
      <point x="79" y="67" type="line"/>
      <point x="79" y="225" type="line"/>
      <point x="146" y="225" type="line"/>
      <point x="146" y="34" type="line" smooth="yes"/>
      <point x="146" y="20"/>
      <point x="127" y="0"/>
      <point x="113" y="0" type="qcurve" smooth="yes"/>
      <point x="34" y="0" type="line" smooth="yes"/>
      <point x="20" y="0"/>
      <point x="0" y="20"/>
      <point x="0" y="34" type="qcurve" smooth="yes"/>
    </contour>
    <contour>
      <point x="12" y="34" type="line" smooth="yes"/>
      <point x="12" y="25"/>
      <point x="25" y="12"/>
      <point x="34" y="12" type="qcurve" smooth="yes"/>
      <point x="113" y="12" type="line" smooth="yes"/>
      <point x="122" y="12"/>
      <point x="134" y="25"/>
      <point x="134" y="34" type="qcurve" smooth="yes"/>
      <point x="134" y="213" type="line"/>
      <point x="91" y="213" type="line"/>
      <point x="91" y="55" type="line"/>
      <point x="55" y="55" type="line"/>
      <point x="55" y="249" type="line"/>
      <point x="134" y="249" type="line"/>
      <point x="134" y="508" type="line" smooth="yes"/>
      <point x="134" y="517"/>
      <point x="122" y="530"/>
      <point x="113" y="530" type="qcurve" smooth="yes"/>
      <point x="34" y="530" type="line" smooth="yes"/>
      <point x="25" y="530"/>
      <point x="12" y="517"/>
      <point x="12" y="508" type="qcurve" smooth="yes"/>
    </contour>
  </outline>
</glyph>
<glyph name="f" format="2">
  <advance width="158"/>
  <unicode hex="0066"/>
  <outline>
    <contour>
      <point x="113" y="700" type="line" smooth="yes"/>
      <point x="127" y="700"/>
      <point x="146" y="680"/>
      <point x="146" y="666" type="qcurve" smooth="yes"/>
      <point x="146" y="475" type="line"/>
      <point x="79" y="475" type="line"/>
      <point x="79" y="633" type="line"/>
      <point x="67" y="633" type="line"/>
      <point x="67" y="463" type="line"/>
      <point x="146" y="463" type="line"/>
      <point x="146" y="396" type="line"/>
      <point x="67" y="396" type="line"/>
      <point x="67" y="0" type="line"/>
      <point x="0" y="0" type="line"/>
      <point x="0" y="666" type="line" smooth="yes"/>
      <point x="0" y="680"/>
      <point x="20" y="700"/>
      <point x="34" y="700" type="qcurve" smooth="yes"/>
    </contour>
    <contour>
      <point x="134" y="666" type="line" smooth="yes"/>
      <point x="134" y="675"/>
      <point x="122" y="688"/>
      <point x="113" y="688" type="qcurve" smooth="yes"/>
      <point x="34" y="688" type="line" smooth="yes"/>
      <point x="25" y="688"/>
      <point x="12" y="675"/>
      <point x="12" y="666" type="qcurve" smooth="yes"/>
      <point x="12" y="12" type="line"/>
      <point x="55" y="12" type="line"/>
      <point x="55" y="408" type="line"/>
      <point x="134" y="408" type="line"/>
      <point x="134" y="451" type="line"/>
      <point x="55" y="451" type="line"/>
      <point x="55" y="645" type="line"/>
      <point x="91" y="645" type="line"/>
      <point x="91" y="487" type="line"/>
      <point x="134" y="487" type="line"/>
    </contour>
  </outline>
</glyph>
<glyph name="h" format="2">
  <advance width="158"/>
  <unicode hex="0068"/>
  <outline>
    <contour>
      <point x="67" y="700" type="line"/>
      <point x="67" y="542" type="line"/>
      <point x="113" y="542" type="line" smooth="yes"/>
      <point x="127" y="542"/>
      <point x="146" y="522"/>
      <point x="146" y="508" type="qcurve" smooth="yes"/>
      <point x="146" y="0" type="line"/>
      <point x="79" y="0" type="line"/>
      <point x="79" y="475" type="line"/>
      <point x="67" y="475" type="line"/>
      <point x="67" y="0" type="line"/>
      <point x="0" y="0" type="line"/>
      <point x="0" y="700" type="line"/>
    </contour>
    <contour>
      <point x="55" y="530" type="line"/>
      <point x="55" y="688" type="line"/>
      <point x="12" y="688" type="line"/>
      <point x="12" y="12" type="line"/>
      <point x="55" y="12" type="line"/>
      <point x="55" y="487" type="line"/>
      <point x="91" y="487" type="line"/>
      <point x="91" y="12" type="line"/>
      <point x="134" y="12" type="line"/>
      <point x="134" y="508" type="line" smooth="yes"/>
      <point x="134" y="517"/>
      <point x="122" y="530"/>
      <point x="113" y="530" type="qcurve" smooth="yes"/>
    </contour>
  </outline>
</glyph>
<glyph name="i" format="2">
  <advance width="79"/>
  <unicode hex="0069"/>
  <outline>
    <contour>
      <point x="67" y="0" type="line"/>
      <point x="0" y="0" type="line"/>
      <point x="0" y="542" type="line"/>
      <point x="67" y="542" type="line"/>
    </contour>
    <contour>
      <point x="55" y="530" type="line"/>
      <point x="12" y="530" type="line"/>
      <point x="12" y="12" type="line"/>
      <point x="55" y="12" type="line"/>
    </contour>
    <contour>
      <point x="67" y="554" type="line"/>
      <point x="0" y="554" type="line"/>
      <point x="0" y="700" type="line"/>
      <point x="67" y="700" type="line"/>
    </contour>
    <contour>
      <point x="55" y="688" type="line"/>
      <point x="12" y="688" type="line"/>
      <point x="12" y="566" type="line"/>
      <point x="55" y="566" type="line"/>
    </contour>
  </outline>
</glyph>
<glyph name="j" format="2">
  <advance width="79"/>
  <unicode hex="006A"/>
  <outline>
    <contour>
      <point x="-45" y="-158" type="line" smooth="yes"/>
      <point x="-59" y="-158"/>
      <point x="-79" y="-139"/>
      <point x="-79" y="-125" type="qcurve" smooth="yes"/>
      <point x="-79" y="-12" type="line"/>
      <point x="-12" y="-12" type="line"/>
      <point x="-12" y="-91" type="line"/>
      <point x="0" y="-91" type="line"/>
      <point x="0" y="542" type="line"/>
      <point x="67" y="542" type="line"/>
      <point x="67" y="-125" type="line" smooth="yes"/>
      <point x="67" y="-139"/>
      <point x="48" y="-158"/>
      <point x="34" y="-158" type="qcurve" smooth="yes"/>
    </contour>
    <contour>
      <point x="-67" y="-125" type="line" smooth="yes"/>
      <point x="-67" y="-134"/>
      <point x="-54" y="-146"/>
      <point x="-45" y="-146" type="qcurve" smooth="yes"/>
      <point x="34" y="-146" type="line" smooth="yes"/>
      <point x="43" y="-146"/>
      <point x="55" y="-134"/>
      <point x="55" y="-125" type="qcurve" smooth="yes"/>
      <point x="55" y="530" type="line"/>
      <point x="12" y="530" type="line"/>
      <point x="12" y="-103" type="line"/>
      <point x="-24" y="-103" type="line"/>
      <point x="-24" y="-24" type="line"/>
      <point x="-67" y="-24" type="line"/>
    </contour>
    <contour>
      <point x="0" y="700" type="line"/>
      <point x="67" y="700" type="line"/>
      <point x="67" y="554" type="line"/>
      <point x="0" y="554" type="line"/>
    </contour>
    <contour>
      <point x="12" y="566" type="line"/>
      <point x="55" y="566" type="line"/>
      <point x="55" y="688" type="line"/>
      <point x="12" y="688" type="line"/>
    </contour>
  </outline>
</glyph>
<glyph name="l" format="2">
  <advance width="79"/>
  <unicode hex="006C"/>
  <outline>
    <contour>
      <point x="67" y="0" type="line"/>
      <point x="0" y="0" type="line"/>
      <point x="0" y="700" type="line"/>
      <point x="67" y="700" type="line"/>
    </contour>
    <contour>
      <point x="55" y="688" type="line"/>
      <point x="12" y="688" type="line"/>
      <point x="12" y="12" type="line"/>
      <point x="55" y="12" type="line"/>
    </contour>
  </outline>
</glyph>
<glyph name="m" format="2">
  <advance width="237"/>
  <unicode hex="006D"/>
  <outline>
    <contour>
      <point x="67" y="0" type="line"/>
      <point x="0" y="0" type="line"/>
      <point x="0" y="542" type="line"/>
      <point x="192" y="542" type="line" smooth="yes"/>
      <point x="206" y="542"/>
      <point x="225" y="522"/>
      <point x="225" y="508" type="qcurve" smooth="yes"/>
      <point x="225" y="0" type="line"/>
      <point x="158" y="0" type="line"/>
      <point x="158" y="475" type="line"/>
      <point x="146" y="475" type="line"/>
      <point x="146" y="0" type="line"/>
      <point x="79" y="0" type="line"/>
      <point x="79" y="475" type="line"/>
      <point x="67" y="475" type="line"/>
    </contour>
    <contour>
      <point x="55" y="487" type="line"/>
      <point x="91" y="487" type="line"/>
      <point x="91" y="12" type="line"/>
      <point x="134" y="12" type="line"/>
      <point x="134" y="487" type="line"/>
      <point x="170" y="487" type="line"/>
      <point x="170" y="12" type="line"/>
      <point x="213" y="12" type="line"/>
      <point x="213" y="508" type="line" smooth="yes"/>
      <point x="213" y="517"/>
      <point x="200" y="530"/>
      <point x="192" y="530" type="qcurve" smooth="yes"/>
      <point x="12" y="530" type="line"/>
      <point x="12" y="12" type="line"/>
      <point x="55" y="12" type="line"/>
    </contour>
  </outline>
</glyph>
<glyph name="o" format="2">
  <advance width="158"/>
  <unicode hex="006F"/>
  <outline>
    <contour>
      <point x="112" y="542" type="line" smooth="yes"/>
      <point x="126" y="542"/>
      <point x="146" y="522"/>
      <point x="146" y="508" type="qcurve" smooth="yes"/>
      <point x="146" y="34" type="line" smooth="yes"/>
      <point x="146" y="20"/>
      <point x="126" y="0"/>
      <point x="112" y="0" type="qcurve" smooth="yes"/>
      <point x="33" y="0" type="line" smooth="yes"/>
      <point x="19" y="0"/>
      <point x="0" y="20"/>
      <point x="0" y="34" type="qcurve" smooth="yes"/>
      <point x="0" y="508" type="line" smooth="yes"/>
      <point x="0" y="522"/>
      <point x="19" y="542"/>
      <point x="33" y="542" type="qcurve" smooth="yes"/>
    </contour>
    <contour>
      <point x="134" y="508" type="line" smooth="yes"/>
      <point x="134" y="517"/>
      <point x="121" y="530"/>
      <point x="112" y="530" type="qcurve" smooth="yes"/>
      <point x="33" y="530" type="line" smooth="yes"/>
      <point x="24" y="530"/>
      <point x="12" y="517"/>
      <point x="12" y="508" type="qcurve" smooth="yes"/>
      <point x="12" y="34" type="line" smooth="yes"/>
      <point x="12" y="25"/>
      <point x="24" y="12"/>
      <point x="33" y="12" type="qcurve" smooth="yes"/>
      <point x="112" y="12" type="line" smooth="yes"/>
      <point x="121" y="12"/>
      <point x="134" y="25"/>
      <point x="134" y="34" type="qcurve" smooth="yes"/>
    </contour>
    <contour>
      <point x="91" y="487" type="line"/>
      <point x="91" y="55" type="line"/>
      <point x="54" y="55" type="line"/>
      <point x="54" y="487" type="line"/>
    </contour>
    <contour>
      <point x="79" y="475" type="line"/>
      <point x="66" y="475" type="line"/>
      <point x="66" y="67" type="line"/>
      <point x="79" y="67" type="line"/>
    </contour>
  </outline>
</glyph>
<glyph name="q" format="2">
  <advance width="158"/>
  <unicode hex="0071"/>
  <outline>
    <contour>
      <point x="55" y="55" type="line"/>
      <point x="55" y="487" type="line"/>
      <point x="91" y="487" type="line"/>
      <point x="91" y="55" type="line"/>
    </contour>
    <contour>
      <point x="67" y="67" type="line"/>
      <point x="79" y="67" type="line"/>
      <point x="79" y="475" type="line"/>
      <point x="67" y="475" type="line"/>
    </contour>
    <contour>
      <point x="79" y="-158" type="line"/>
      <point x="79" y="0" type="line"/>
      <point x="33" y="0" type="line" smooth="yes"/>
      <point x="19" y="0"/>
      <point x="0" y="20"/>
      <point x="0" y="34" type="qcurve" smooth="yes"/>
      <point x="0" y="508" type="line" smooth="yes"/>
      <point x="0" y="522"/>
      <point x="19" y="542"/>
      <point x="33" y="542" type="qcurve" smooth="yes"/>
      <point x="146" y="542" type="line"/>
      <point x="146" y="-158" type="line"/>
    </contour>
    <contour>
      <point x="91" y="12" type="line"/>
      <point x="91" y="-146" type="line"/>
      <point x="134" y="-146" type="line"/>
      <point x="134" y="530" type="line"/>
      <point x="33" y="530" type="line" smooth="yes"/>
      <point x="24" y="530"/>
      <point x="12" y="517"/>
      <point x="12" y="508" type="qcurve" smooth="yes"/>
      <point x="12" y="34" type="line" smooth="yes"/>
      <point x="12" y="25"/>
      <point x="24" y="12"/>
      <point x="33" y="12" type="qcurve" smooth="yes"/>
    </contour>
  </outline>
</glyph>
<glyph name="r" format="2">
  <advance width="158"/>
  <unicode hex="0072"/>
  <outline>
    <contour>
      <point x="113" y="542" type="line" smooth="yes"/>
      <point x="127" y="542"/>
      <point x="146" y="522"/>
      <point x="146" y="508" type="qcurve" smooth="yes"/>
      <point x="146" y="316" type="line"/>
      <point x="79" y="316" type="line"/>
      <point x="79" y="475" type="line"/>
      <point x="67" y="475" type="line"/>
      <point x="67" y="0" type="line"/>
      <point x="0" y="0" type="line"/>
      <point x="0" y="542" type="line"/>
    </contour>
    <contour>
      <point x="134" y="508" type="line" smooth="yes"/>
      <point x="134" y="517"/>
      <point x="122" y="530"/>
      <point x="113" y="530" type="qcurve" smooth="yes"/>
      <point x="12" y="530" type="line"/>
      <point x="12" y="12" type="line"/>
      <point x="55" y="12" type="line"/>
      <point x="55" y="487" type="line"/>
      <point x="91" y="487" type="line"/>
      <point x="91" y="328" type="line"/>
      <point x="134" y="328" type="line"/>
    </contour>
  </outline>
</glyph>
<glyph name="s" format="2">
  <advance width="158"/>
  <unicode hex="0073"/>
  <outline>
    <contour>
      <point x="33" y="0" type="line" smooth="yes"/>
      <point x="19" y="0"/>
      <point x="0" y="20"/>
      <point x="0" y="34" type="qcurve" smooth="yes"/>
      <point x="0" y="225" type="line"/>
      <point x="67" y="225" type="line"/>
      <point x="67" y="67" type="line"/>
      <point x="79" y="67" type="line"/>
      <point x="79" y="237" type="line"/>
      <point x="33" y="237" type="line" smooth="yes"/>
      <point x="19" y="237"/>
      <point x="0" y="257"/>
      <point x="0" y="271" type="qcurve" smooth="yes"/>
      <point x="0" y="508" type="line" smooth="yes"/>
      <point x="0" y="522"/>
      <point x="19" y="542"/>
      <point x="33" y="542" type="qcurve" smooth="yes"/>
      <point x="113" y="542" type="line" smooth="yes"/>
      <point x="127" y="542"/>
      <point x="146" y="522"/>
      <point x="146" y="508" type="qcurve" smooth="yes"/>
      <point x="146" y="316" type="line"/>
      <point x="79" y="316" type="line"/>
      <point x="79" y="475" type="line"/>
      <point x="67" y="475" type="line"/>
      <point x="67" y="304" type="line"/>
      <point x="113" y="304" type="line" smooth="yes"/>
      <point x="127" y="304"/>
      <point x="146" y="285"/>
      <point x="146" y="271" type="qcurve" smooth="yes"/>
      <point x="146" y="34" type="line" smooth="yes"/>
      <point x="146" y="20"/>
      <point x="127" y="0"/>
      <point x="113" y="0" type="qcurve" smooth="yes"/>
    </contour>
    <contour>
      <point x="12" y="34" type="line" smooth="yes"/>
      <point x="12" y="25"/>
      <point x="25" y="12"/>
      <point x="33" y="12" type="qcurve" smooth="yes"/>
      <point x="113" y="12" type="line" smooth="yes"/>
      <point x="121" y="12"/>
      <point x="134" y="25"/>
      <point x="134" y="34" type="qcurve" smooth="yes"/>
      <point x="134" y="271" type="line" smooth="yes"/>
      <point x="134" y="280"/>
      <point x="121" y="292"/>
      <point x="113" y="292" type="qcurve" smooth="yes"/>
      <point x="55" y="292" type="line"/>
      <point x="55" y="487" type="line"/>
      <point x="91" y="487" type="line"/>
      <point x="91" y="328" type="line"/>
      <point x="134" y="328" type="line"/>
      <point x="134" y="508" type="line" smooth="yes"/>
      <point x="134" y="517"/>
      <point x="121" y="530"/>
      <point x="113" y="530" type="qcurve" smooth="yes"/>
      <point x="33" y="530" type="line" smooth="yes"/>
      <point x="25" y="530"/>
      <point x="12" y="517"/>
      <point x="12" y="508" type="qcurve" smooth="yes"/>
      <point x="12" y="271" type="line" smooth="yes"/>
      <point x="12" y="262"/>
      <point x="25" y="249"/>
      <point x="33" y="249" type="qcurve" smooth="yes"/>
      <point x="91" y="249" type="line"/>
      <point x="91" y="55" type="line"/>
      <point x="55" y="55" type="line"/>
      <point x="55" y="213" type="line"/>
      <point x="12" y="213" type="line"/>
    </contour>
  </outline>
</glyph>
<glyph name="t" format="2">
  <advance width="119"/>
  <unicode hex="0074"/>
  <outline>
    <contour>
      <point x="67" y="700" type="line"/>
      <point x="67" y="542" type="line"/>
      <point x="107" y="542" type="line"/>
      <point x="107" y="475" type="line"/>
      <point x="67" y="475" type="line"/>
      <point x="67" y="0" type="line"/>
      <point x="0" y="0" type="line"/>
      <point x="0" y="700" type="line"/>
    </contour>
    <contour>
      <point x="55" y="530" type="line"/>
      <point x="55" y="688" type="line"/>
      <point x="12" y="688" type="line"/>
      <point x="12" y="12" type="line"/>
      <point x="55" y="12" type="line"/>
      <point x="55" y="487" type="line"/>
      <point x="95" y="487" type="line"/>
      <point x="95" y="530" type="line"/>
    </contour>
  </outline>
</glyph>
<glyph name="v" format="2">
  <advance width="158"/>
  <unicode hex="0076"/>
  <outline>
    <contour>
      <point x="67" y="542" type="line"/>
      <point x="67" y="121" type="line"/>
      <point x="79" y="86" type="line"/>
      <point x="79" y="542" type="line"/>
      <point x="146" y="542" type="line"/>
      <point x="146" y="0" type="line"/>
      <point x="52" y="0" type="line"/>
      <point x="0" y="105" type="line"/>
      <point x="0" y="542" type="line"/>
    </contour>
    <contour>
      <point x="55" y="118" type="line"/>
      <point x="55" y="530" type="line"/>
      <point x="12" y="530" type="line"/>
      <point x="12" y="107" type="line"/>
      <point x="60" y="12" type="line"/>
      <point x="134" y="12" type="line"/>
      <point x="134" y="530" type="line"/>
      <point x="91" y="530" type="line"/>
      <point x="91" y="30" type="line"/>
    </contour>
  </outline>
</glyph>
<glyph name="w" format="2">
  <advance width="237"/>
  <unicode hex="0077"/>
  <outline>
    <contour>
      <point x="225" y="34" type="line" smooth="yes"/>
      <point x="225" y="20"/>
      <point x="206" y="0"/>
      <point x="192" y="0" type="qcurve" smooth="yes"/>
      <point x="0" y="0" type="line"/>
      <point x="0" y="542" type="line"/>
      <point x="67" y="542" type="line"/>
      <point x="67" y="67" type="line"/>
      <point x="79" y="67" type="line"/>
      <point x="79" y="542" type="line"/>
      <point x="146" y="542" type="line"/>
      <point x="146" y="67" type="line"/>
      <point x="158" y="67" type="line"/>
      <point x="158" y="542" type="line"/>
      <point x="225" y="542" type="line"/>
    </contour>
    <contour>
      <point x="12" y="12" type="line"/>
      <point x="192" y="12" type="line" smooth="yes"/>
      <point x="201" y="12"/>
      <point x="213" y="25"/>
      <point x="213" y="34" type="qcurve" smooth="yes"/>
      <point x="213" y="530" type="line"/>
      <point x="170" y="530" type="line"/>
      <point x="170" y="55" type="line"/>
      <point x="134" y="55" type="line"/>
      <point x="134" y="530" type="line"/>
      <point x="91" y="530" type="line"/>
      <point x="91" y="55" type="line"/>
      <point x="55" y="55" type="line"/>
      <point x="55" y="530" type="line"/>
      <point x="12" y="530" type="line"/>
    </contour>
  </outline>
</glyph>
<glyph name="x" format="2">
  <advance width="158"/>
  <unicode hex="0078"/>
  <outline>
    <contour>
      <point x="67" y="0" type="line"/>
      <point x="0" y="0" type="line"/>
      <point x="0" y="232" type="line" smooth="yes"/>
      <point x="0" y="246"/>
      <point x="20" y="266"/>
      <point x="34" y="266" type="qcurve" smooth="yes"/>
      <point x="40" y="266" type="line"/>
      <point x="40" y="278" type="line"/>
      <point x="34" y="278" type="line" smooth="yes"/>
      <point x="20" y="278"/>
      <point x="0" y="297"/>
      <point x="0" y="311" type="qcurve" smooth="yes"/>
      <point x="0" y="542" type="line"/>
      <point x="67" y="542" type="line"/>
      <point x="67" y="344" type="line"/>
      <point x="79" y="344" type="line"/>
      <point x="79" y="542" type="line"/>
      <point x="146" y="542" type="line"/>
      <point x="146" y="311" type="line" smooth="yes"/>
      <point x="146" y="297"/>
      <point x="127" y="278"/>
      <point x="113" y="278" type="qcurve" smooth="yes"/>
      <point x="106" y="278" type="line"/>
      <point x="106" y="266" type="line"/>
      <point x="113" y="266" type="line" smooth="yes"/>
      <point x="127" y="266"/>
      <point x="146" y="246"/>
      <point x="146" y="232" type="qcurve" smooth="yes"/>
      <point x="146" y="0" type="line"/>
      <point x="79" y="0" type="line"/>
      <point x="79" y="198" type="line"/>
      <point x="67" y="198" type="line"/>
    </contour>
    <contour>
      <point x="55" y="210" type="line"/>
      <point x="91" y="210" type="line"/>
      <point x="91" y="12" type="line"/>
      <point x="134" y="12" type="line"/>
      <point x="134" y="232" type="line" smooth="yes"/>
      <point x="134" y="241"/>
      <point x="122" y="254"/>
      <point x="113" y="254" type="qcurve" smooth="yes"/>
      <point x="94" y="254" type="line"/>
      <point x="94" y="290" type="line"/>
      <point x="113" y="290" type="line" smooth="yes"/>
      <point x="122" y="290"/>
      <point x="134" y="302"/>
      <point x="134" y="311" type="qcurve" smooth="yes"/>
      <point x="134" y="530" type="line"/>
      <point x="91" y="530" type="line"/>
      <point x="91" y="333" type="line"/>
      <point x="55" y="333" type="line"/>
      <point x="55" y="530" type="line"/>
      <point x="12" y="530" type="line"/>
      <point x="12" y="311" type="line" smooth="yes"/>
      <point x="12" y="302"/>
      <point x="25" y="290"/>
      <point x="34" y="290" type="qcurve" smooth="yes"/>
      <point x="52" y="290" type="line"/>
      <point x="52" y="254" type="line"/>
      <point x="34" y="254" type="line" smooth="yes"/>
      <point x="25" y="254"/>
      <point x="12" y="241"/>
      <point x="12" y="232" type="qcurve" smooth="yes"/>
      <point x="12" y="12" type="line"/>
      <point x="55" y="12" type="line"/>
    </contour>
  </outline>
</glyph>
<glyph name="y" format="2">
  <advance width="158"/>
  <unicode hex="0079"/>
  <outline>
    <contour>
      <point x="67" y="67" type="line"/>
      <point x="79" y="67" type="line"/>
      <point x="79" y="542" type="line"/>
      <point x="146" y="542" type="line"/>
      <point x="146" y="-125" type="line" smooth="yes"/>
      <point x="146" y="-139"/>
      <point x="127" y="-158"/>
      <point x="113" y="-158" type="qcurve" smooth="yes"/>
      <point x="33" y="-158" type="line" smooth="yes"/>
      <point x="19" y="-158"/>
      <point x="0" y="-139"/>
      <point x="0" y="-125" type="qcurve" smooth="yes"/>
      <point x="0" y="-12" type="line"/>
      <point x="67" y="-12" type="line"/>
      <point x="67" y="-91" type="line"/>
      <point x="79" y="-91" type="line"/>
      <point x="79" y="0" type="line"/>
      <point x="33" y="0" type="line" smooth="yes"/>
      <point x="19" y="0"/>
      <point x="0" y="20"/>
      <point x="0" y="34" type="qcurve" smooth="yes"/>
      <point x="0" y="542" type="line"/>
      <point x="67" y="542" type="line"/>
    </contour>
    <contour>
      <point x="55" y="55" type="line"/>
      <point x="55" y="530" type="line"/>
      <point x="12" y="530" type="line"/>
      <point x="12" y="34" type="line" smooth="yes"/>
      <point x="12" y="25"/>
      <point x="25" y="12"/>
      <point x="33" y="12" type="qcurve" smooth="yes"/>
      <point x="91" y="12" type="line"/>
      <point x="91" y="-103" type="line"/>
      <point x="55" y="-103" type="line"/>
      <point x="55" y="-24" type="line"/>
      <point x="12" y="-24" type="line"/>
      <point x="12" y="-125" type="line" smooth="yes"/>
      <point x="12" y="-134"/>
      <point x="25" y="-146"/>
      <point x="33" y="-146" type="qcurve" smooth="yes"/>
      <point x="113" y="-146" type="line" smooth="yes"/>
      <point x="121" y="-146"/>
      <point x="134" y="-134"/>
      <point x="134" y="-125" type="qcurve" smooth="yes"/>
      <point x="134" y="530" type="line"/>
      <point x="91" y="530" type="line"/>
      <point x="91" y="55" type="line"/>
    </contour>
  </outline>
</glyph>
<glyph name="z" format="2">
  <advance width="158"/>
  <unicode hex="007A"/>
  <outline>
    <contour>
      <point x="79" y="324" type="line"/>
      <point x="79" y="475" type="line"/>
      <point x="67" y="475" type="line"/>
      <point x="67" y="356" type="line"/>
      <point x="0" y="356" type="line"/>
      <point x="0" y="542" type="line"/>
      <point x="146" y="542" type="line"/>
      <point x="146" y="310" type="line" smooth="yes"/>
      <point x="146.0" y="303.0" name="inserted"/>
      <point x="141.5" y="291.5"/>
      <point x="137" y="287" type="qcurve" smooth="yes"/>
      <point x="67" y="217" type="line"/>
      <point x="67" y="67" type="line"/>
      <point x="79" y="67" type="line"/>
      <point x="79" y="186" type="line"/>
      <point x="146" y="186" type="line"/>
      <point x="146" y="0" type="line"/>
      <point x="0" y="0" type="line"/>
      <point x="0" y="231" type="line" smooth="yes"/>
      <point x="0.0" y="238.0" name="inserted"/>
      <point x="5.0" y="250.0"/>
      <point x="10" y="255" type="qcurve" smooth="yes"/>
    </contour>
    <contour>
      <point x="91" y="487" type="line"/>
      <point x="91" y="319" type="line"/>
      <point x="19" y="247" type="line" smooth="yes"/>
      <point x="15.5" y="243.5" name="inserted"/>
      <point x="12.0" y="235.5"/>
      <point x="12" y="231" type="qcurve" smooth="yes"/>
      <point x="12" y="12" type="line"/>
      <point x="135" y="12" type="line"/>
      <point x="135" y="174" type="line"/>
      <point x="91" y="174" type="line"/>
      <point x="91" y="55" type="line"/>
      <point x="55" y="55" type="line"/>
      <point x="55" y="222" type="line"/>
      <point x="128" y="295" type="line" smooth="yes"/>
      <point x="131.5" y="298.5" name="inserted"/>
      <point x="135.0" y="306.0"/>
      <point x="135" y="310" type="qcurve" smooth="yes"/>
      <point x="135" y="530" type="line"/>
      <point x="12" y="530" type="line"/>
      <point x="12" y="368" type="line"/>
      <point x="55" y="368" type="line"/>
      <point x="55" y="487" type="line"/>
    </contour>
  </outline>
</glyph>
<glyph name="braceleft" format="2">
  <advance width="158"/>
  <unicode hex="007B"/>
  <outline>
    <contour>
      <point x="33" y="277" type="line" smooth="yes"/>
      <point x="19" y="277"/>
      <point x="0" y="296"/>
      <point x="0" y="310" type="qcurve" smooth="yes"/>
      <point x="0" y="390" type="line" smooth="yes"/>
      <point x="0" y="404"/>
      <point x="19" y="423"/>
      <point x="33" y="423" type="qcurve" smooth="yes"/>
      <point x="40" y="423" type="line"/>
      <point x="40" y="666" type="line" smooth="yes"/>
      <point x="40" y="680"/>
      <point x="59" y="700"/>
      <point x="73" y="700" type="qcurve" smooth="yes"/>
      <point x="146" y="700" type="line"/>
      <point x="146" y="633" type="line"/>
      <point x="107" y="633" type="line"/>
      <point x="107" y="390" type="line" smooth="yes"/>
      <point x="107" y="376"/>
      <point x="87" y="356"/>
      <point x="73" y="356" type="qcurve" smooth="yes"/>
      <point x="67" y="356" type="line"/>
      <point x="67" y="344" type="line"/>
      <point x="73" y="344" type="line" smooth="yes"/>
      <point x="87" y="344"/>
      <point x="107" y="324"/>
      <point x="107" y="310" type="qcurve" smooth="yes"/>
      <point x="107" y="67" type="line"/>
      <point x="146" y="67" type="line"/>
      <point x="146" y="0" type="line"/>
      <point x="73" y="0" type="line" smooth="yes"/>
      <point x="59" y="0"/>
      <point x="40" y="19"/>
      <point x="40" y="33" type="qcurve" smooth="yes"/>
      <point x="40" y="277" type="line"/>
    </contour>
    <contour>
      <point x="12" y="310" type="line" smooth="yes"/>
      <point x="12" y="302"/>
      <point x="25" y="289"/>
      <point x="33" y="289" type="qcurve" smooth="yes"/>
      <point x="52" y="289" type="line"/>
      <point x="52" y="33" type="line" smooth="yes"/>
      <point x="52" y="25"/>
      <point x="64" y="12"/>
      <point x="73" y="12" type="qcurve" smooth="yes"/>
      <point x="134" y="12" type="line"/>
      <point x="134" y="55" type="line"/>
      <point x="95" y="55" type="line"/>
      <point x="95" y="310" type="line" smooth="yes"/>
      <point x="95" y="319"/>
      <point x="82" y="332"/>
      <point x="73" y="332" type="qcurve" smooth="yes"/>
      <point x="55" y="332" type="line"/>
      <point x="55" y="368" type="line"/>
      <point x="73" y="368" type="line" smooth="yes"/>
      <point x="82" y="368"/>
      <point x="95" y="381"/>
      <point x="95" y="390" type="qcurve" smooth="yes"/>
      <point x="95" y="645" type="line"/>
      <point x="134" y="645" type="line"/>
      <point x="134" y="688" type="line"/>
      <point x="73" y="688" type="line" smooth="yes"/>
      <point x="64" y="688"/>
      <point x="52" y="675"/>
      <point x="52" y="666" type="qcurve" smooth="yes"/>
      <point x="52" y="411" type="line"/>
      <point x="33" y="411" type="line" smooth="yes"/>
      <point x="25" y="411"/>
      <point x="12" y="398"/>
      <point x="12" y="390" type="qcurve" smooth="yes"/>
    </contour>
  </outline>
</glyph>
<glyph name="bar" format="2">
  <advance width="79"/>
  <unicode hex="007C"/>
  <outline>
    <contour>
      <point x="67" y="-79" type="line"/>
      <point x="0" y="-79" type="line"/>
      <point x="0" y="779" type="line"/>
      <point x="67" y="779" type="line"/>
    </contour>
    <contour>
      <point x="55" y="767" type="line"/>
      <point x="12" y="767" type="line"/>
      <point x="12" y="-67" type="line"/>
      <point x="55" y="-67" type="line"/>
    </contour>
  </outline>
</glyph>
<glyph name="asciitilde" format="2">
  <advance width="198"/>
  <unicode hex="007E"/>
  <outline>
    <contour>
      <point x="119" y="344" type="line"/>
      <point x="186" y="344" type="line"/>
      <point x="186" y="271" type="line" smooth="yes"/>
      <point x="186" y="257"/>
      <point x="166" y="237"/>
      <point x="152" y="237" type="qcurve" smooth="yes"/>
      <point x="67" y="237" type="line"/>
      <point x="67" y="198" type="line"/>
      <point x="0" y="198" type="line"/>
      <point x="0" y="271" type="line" smooth="yes"/>
      <point x="0" y="285"/>
      <point x="19" y="304"/>
      <point x="33" y="304" type="qcurve" smooth="yes"/>
      <point x="119" y="304" type="line"/>
    </contour>
    <contour>
      <point x="131" y="292" type="line"/>
      <point x="33" y="292" type="line" smooth="yes"/>
      <point x="25" y="292"/>
      <point x="12" y="280"/>
      <point x="12" y="271" type="qcurve" smooth="yes"/>
      <point x="12" y="210" type="line"/>
      <point x="55" y="210" type="line"/>
      <point x="55" y="249" type="line"/>
      <point x="152" y="249" type="line" smooth="yes"/>
      <point x="161" y="249"/>
      <point x="174" y="262"/>
      <point x="174" y="271" type="qcurve" smooth="yes"/>
      <point x="174" y="332" type="line"/>
      <point x="131" y="332" type="line"/>
    </contour>
  </outline>
</glyph>
<glyph name="cent" format="2">
  <advance width="237"/>
  <unicode hex="00A2"/>
  <outline>
    <contour>
      <point x="55" y="55" type="line"/>
      <point x="55" y="487" type="line"/>
      <point x="91" y="487" type="line"/>
      <point x="91" y="55" type="line"/>
    </contour>
    <contour>
      <point x="67" y="67" type="line"/>
      <point x="79" y="67" type="line"/>
      <point x="79" y="475" type="line"/>
      <point x="67" y="475" type="line"/>
    </contour>
    <contour>
      <point x="0" y="508" type="line" smooth="yes"/>
      <point x="0" y="522"/>
      <point x="19" y="542"/>
      <point x="33" y="542" type="qcurve" smooth="yes"/>
      <point x="79" y="542" type="line"/>
      <point x="79" y="621" type="line"/>
      <point x="146" y="621" type="line"/>
      <point x="146" y="542" type="line"/>
      <point x="192" y="542" type="line" smooth="yes"/>
      <point x="206" y="542"/>
      <point x="225" y="522"/>
      <point x="225" y="508" type="qcurve" smooth="yes"/>
      <point x="225" y="277" type="line"/>
      <point x="158" y="277" type="line"/>
      <point x="158" y="475" type="line"/>
      <point x="146" y="475" type="line"/>
      <point x="146" y="67" type="line"/>
      <point x="158" y="67" type="line"/>
      <point x="158" y="265" type="line"/>
      <point x="225" y="265" type="line"/>
      <point x="225" y="33" type="line" smooth="yes"/>
      <point x="225" y="19"/>
      <point x="206" y="0"/>
      <point x="192" y="0" type="qcurve" smooth="yes"/>
      <point x="146" y="0" type="line"/>
      <point x="146" y="-79" type="line"/>
      <point x="79" y="-79" type="line"/>
      <point x="79" y="0" type="line"/>
      <point x="33" y="0" type="line" smooth="yes"/>
      <point x="19" y="0"/>
      <point x="0" y="19"/>
      <point x="0" y="33" type="qcurve" smooth="yes"/>
    </contour>
    <contour>
      <point x="33" y="530" type="line" smooth="yes"/>
      <point x="25" y="530"/>
      <point x="12" y="517"/>
      <point x="12" y="508" type="qcurve" smooth="yes"/>
      <point x="12" y="33" type="line" smooth="yes"/>
      <point x="12" y="25"/>
      <point x="25" y="12"/>
      <point x="33" y="12" type="qcurve" smooth="yes"/>
      <point x="91" y="12" type="line"/>
      <point x="91" y="-67" type="line"/>
      <point x="134" y="-67" type="line"/>
      <point x="134" y="12" type="line"/>
      <point x="192" y="12" type="line" smooth="yes"/>
      <point x="201" y="12"/>
      <point x="213" y="25"/>
      <point x="213" y="33" type="qcurve" smooth="yes"/>
      <point x="213" y="253" type="line"/>
      <point x="170" y="253" type="line"/>
      <point x="170" y="55" type="line"/>
      <point x="134" y="55" type="line"/>
      <point x="134" y="487" type="line"/>
      <point x="170" y="487" type="line"/>
      <point x="170" y="289" type="line"/>
      <point x="213" y="289" type="line"/>
      <point x="213" y="508" type="line" smooth="yes"/>
      <point x="213" y="517"/>
      <point x="201" y="530"/>
      <point x="192" y="530" type="qcurve" smooth="yes"/>
      <point x="134" y="530" type="line"/>
      <point x="134" y="609" type="line"/>
      <point x="91" y="609" type="line"/>
      <point x="91" y="530" type="line"/>
    </contour>
  </outline>
</glyph>
<glyph name="sterling" format="2">
  <advance width="237"/>
  <unicode hex="00A3"/>
  <outline>
    <contour>
      <point x="79" y="146" type="line"/>
      <point x="79" y="317" type="line"/>
      <point x="0" y="317" type="line"/>
      <point x="0" y="384" type="line"/>
      <point x="79" y="384" type="line"/>
      <point x="79" y="706" type="line" smooth="yes"/>
      <point x="79" y="720"/>
      <point x="99" y="740"/>
      <point x="113" y="740" type="qcurve" smooth="yes"/>
      <point x="192" y="740" type="line" smooth="yes"/>
      <point x="206" y="740"/>
      <point x="225" y="720"/>
      <point x="225" y="706" type="qcurve" smooth="yes"/>
      <point x="225" y="396" type="line"/>
      <point x="158" y="396" type="line"/>
      <point x="158" y="673" type="line"/>
      <point x="146" y="673" type="line"/>
      <point x="146" y="384" type="line"/>
      <point x="225" y="384" type="line"/>
      <point x="225" y="317" type="line"/>
      <point x="146" y="317" type="line"/>
      <point x="146" y="113" type="line" smooth="yes"/>
      <point x="146" y="99"/>
      <point x="127" y="79"/>
      <point x="113" y="79" type="qcurve" smooth="yes"/>
      <point x="67" y="79" type="line"/>
      <point x="67" y="67" type="line"/>
      <point x="225" y="67" type="line"/>
      <point x="225" y="0" type="line"/>
      <point x="0" y="0" type="line"/>
      <point x="0" y="113" type="line" smooth="yes"/>
      <point x="0" y="127"/>
      <point x="19" y="146"/>
      <point x="33" y="146" type="qcurve" smooth="yes"/>
    </contour>
    <contour>
      <point x="91" y="329" type="line"/>
      <point x="91" y="134" type="line"/>
      <point x="33" y="134" type="line" smooth="yes"/>
      <point x="25" y="134"/>
      <point x="12" y="122"/>
      <point x="12" y="113" type="qcurve" smooth="yes"/>
      <point x="12" y="12" type="line"/>
      <point x="213" y="12" type="line"/>
      <point x="213" y="55" type="line"/>
      <point x="55" y="55" type="line"/>
      <point x="55" y="91" type="line"/>
      <point x="113" y="91" type="line" smooth="yes"/>
      <point x="121" y="91"/>
      <point x="134" y="104"/>
      <point x="134" y="113" type="qcurve" smooth="yes"/>
      <point x="134" y="329" type="line"/>
      <point x="213" y="329" type="line"/>
      <point x="213" y="372" type="line"/>
      <point x="134" y="372" type="line"/>
      <point x="134" y="685" type="line"/>
      <point x="170" y="685" type="line"/>
      <point x="170" y="408" type="line"/>
      <point x="213" y="408" type="line"/>
      <point x="213" y="706" type="line" smooth="yes"/>
      <point x="213" y="715"/>
      <point x="201" y="728"/>
      <point x="192" y="728" type="qcurve" smooth="yes"/>
      <point x="113" y="728" type="line" smooth="yes"/>
      <point x="104" y="728"/>
      <point x="91" y="715"/>
      <point x="91" y="706" type="qcurve" smooth="yes"/>
      <point x="91" y="372" type="line"/>
      <point x="12" y="372" type="line"/>
      <point x="12" y="329" type="line"/>
    </contour>
  </outline>
</glyph>
<glyph name="currency" format="2">
  <advance width="237"/>
  <unicode hex="00A4"/>
  <outline>
    <contour>
      <point x="131" y="487" type="line"/>
      <point x="131" y="214" type="line"/>
      <point x="95" y="214" type="line"/>
      <point x="95" y="487" type="line"/>
    </contour>
    <contour>
      <point x="119" y="475" type="line"/>
      <point x="107" y="475" type="line"/>
      <point x="107" y="226" type="line"/>
      <point x="119" y="226" type="line"/>
    </contour>
    <contour>
      <point x="146" y="621" type="line"/>
      <point x="146" y="542" type="line"/>
      <point x="152" y="542" type="line" smooth="yes"/>
      <point x="166" y="542"/>
      <point x="186" y="523"/>
      <point x="186" y="509" type="qcurve" smooth="yes"/>
      <point x="186" y="384" type="line"/>
      <point x="225" y="384" type="line"/>
      <point x="225" y="317" type="line"/>
      <point x="186" y="317" type="line"/>
      <point x="186" y="192" type="line" smooth="yes"/>
      <point x="186" y="178"/>
      <point x="166" y="159"/>
      <point x="152" y="159" type="qcurve" smooth="yes"/>
      <point x="146" y="159" type="line"/>
      <point x="146" y="80" type="line"/>
      <point x="79" y="80" type="line"/>
      <point x="79" y="159" type="line"/>
      <point x="73" y="159" type="line" smooth="yes"/>
      <point x="59" y="159"/>
      <point x="40" y="178"/>
      <point x="40" y="192" type="qcurve" smooth="yes"/>
      <point x="40" y="317" type="line"/>
      <point x="0" y="317" type="line"/>
      <point x="0" y="384" type="line"/>
      <point x="40" y="384" type="line"/>
      <point x="40" y="509" type="line" smooth="yes"/>
      <point x="40" y="523"/>
      <point x="59" y="542"/>
      <point x="73" y="542" type="qcurve" smooth="yes"/>
      <point x="79" y="542" type="line"/>
      <point x="79" y="621" type="line"/>
    </contour>
    <contour>
      <point x="134" y="530" type="line"/>
      <point x="134" y="609" type="line"/>
      <point x="91" y="609" type="line"/>
      <point x="91" y="530" type="line"/>
      <point x="73" y="530" type="line" smooth="yes"/>
      <point x="64" y="530"/>
      <point x="52" y="518"/>
      <point x="52" y="509" type="qcurve" smooth="yes"/>
      <point x="52" y="372" type="line"/>
      <point x="12" y="372" type="line"/>
      <point x="12" y="329" type="line"/>
      <point x="52" y="329" type="line"/>
      <point x="52" y="192" type="line" smooth="yes"/>
      <point x="52" y="183"/>
      <point x="64" y="171"/>
      <point x="73" y="171" type="qcurve" smooth="yes"/>
      <point x="91" y="171" type="line"/>
      <point x="91" y="92" type="line"/>
      <point x="134" y="92" type="line"/>
      <point x="134" y="171" type="line"/>
      <point x="152" y="171" type="line" smooth="yes"/>
      <point x="161" y="171"/>
      <point x="174" y="183"/>
      <point x="174" y="192" type="qcurve" smooth="yes"/>
      <point x="174" y="329" type="line"/>
      <point x="213" y="329" type="line"/>
      <point x="213" y="372" type="line"/>
      <point x="174" y="372" type="line"/>
      <point x="174" y="509" type="line" smooth="yes"/>
      <point x="174" y="518"/>
      <point x="161" y="530"/>
      <point x="152" y="530" type="qcurve" smooth="yes"/>
    </contour>
  </outline>
</glyph>
<glyph name="yen" format="2">
  <advance width="158"/>
  <unicode hex="00A5"/>
  <outline>
    <contour>
      <point x="40" y="265" type="line"/>
      <point x="40" y="277" type="line"/>
      <point x="0" y="277" type="line"/>
      <point x="0" y="344" type="line"/>
      <point x="40" y="344" type="line"/>
      <point x="40" y="356" type="line"/>
      <point x="33" y="356" type="line" smooth="yes"/>
      <point x="19" y="356"/>
      <point x="0" y="376"/>
      <point x="0" y="390" type="qcurve" smooth="yes"/>
      <point x="0" y="700" type="line"/>
      <point x="67" y="700" type="line"/>
      <point x="67" y="423" type="line"/>
      <point x="79" y="423" type="line"/>
      <point x="79" y="700" type="line"/>
      <point x="146" y="700" type="line"/>
      <point x="146" y="390" type="line" smooth="yes"/>
      <point x="146" y="376"/>
      <point x="127" y="356"/>
      <point x="113" y="356" type="qcurve" smooth="yes"/>
      <point x="107" y="356" type="line"/>
      <point x="107" y="344" type="line"/>
      <point x="146" y="344" type="line"/>
      <point x="146" y="277" type="line"/>
      <point x="107" y="277" type="line"/>
      <point x="107" y="265" type="line"/>
      <point x="146" y="265" type="line"/>
      <point x="146" y="198" type="line"/>
      <point x="107" y="198" type="line"/>
      <point x="107" y="0" type="line"/>
      <point x="40" y="0" type="line"/>
      <point x="40" y="198" type="line"/>
      <point x="0" y="198" type="line"/>
      <point x="0" y="265" type="line"/>
    </contour>
    <contour>
      <point x="52" y="289" type="line"/>
      <point x="52" y="253" type="line"/>
      <point x="12" y="253" type="line"/>
      <point x="12" y="210" type="line"/>
      <point x="52" y="210" type="line"/>
      <point x="52" y="12" type="line"/>
      <point x="95" y="12" type="line"/>
      <point x="95" y="210" type="line"/>
      <point x="134" y="210" type="line"/>
      <point x="134" y="253" type="line"/>
      <point x="95" y="253" type="line"/>
      <point x="95" y="289" type="line"/>
      <point x="134" y="289" type="line"/>
      <point x="134" y="332" type="line"/>
      <point x="95" y="332" type="line"/>
      <point x="95" y="368" type="line"/>
      <point x="113" y="368" type="line" smooth="yes"/>
      <point x="121" y="368"/>
      <point x="134" y="381"/>
      <point x="134" y="390" type="qcurve" smooth="yes"/>
      <point x="134" y="688" type="line"/>
      <point x="91" y="688" type="line"/>
      <point x="91" y="411" type="line"/>
      <point x="55" y="411" type="line"/>
      <point x="55" y="688" type="line"/>
      <point x="12" y="688" type="line"/>
      <point x="12" y="390" type="line" smooth="yes"/>
      <point x="12" y="381"/>
      <point x="25" y="368"/>
      <point x="33" y="368" type="qcurve" smooth="yes"/>
      <point x="52" y="368" type="line"/>
      <point x="52" y="332" type="line"/>
      <point x="12" y="332" type="line"/>
      <point x="12" y="289" type="line"/>
    </contour>
  </outline>
</glyph>
<glyph name="brokenbar" format="2">
  <advance width="79"/>
  <unicode hex="00A6"/>
  <outline>
    <contour>
      <point x="67" y="395" type="line"/>
      <point x="0" y="395" type="line"/>
      <point x="0" y="778" type="line"/>
      <point x="67" y="778" type="line"/>
    </contour>
    <contour>
      <point x="55" y="766" type="line"/>
      <point x="12" y="766" type="line"/>
      <point x="12" y="407" type="line"/>
      <point x="55" y="407" type="line"/>
    </contour>
    <contour>
      <point x="0" y="303" type="line"/>
      <point x="67" y="303" type="line"/>
      <point x="67" y="-80" type="line"/>
      <point x="0" y="-80" type="line"/>
    </contour>
    <contour>
      <point x="12" y="-68" type="line"/>
      <point x="55" y="-68" type="line"/>
      <point x="55" y="291" type="line"/>
      <point x="12" y="291" type="line"/>
    </contour>
  </outline>
</glyph>
<glyph name="section" format="2">
  <advance width="158"/>
  <unicode hex="00A7"/>
  <outline>
    <contour>
      <point x="55" y="292" type="line"/>
      <point x="55" y="408" type="line"/>
      <point x="91" y="408" type="line"/>
      <point x="91" y="292" type="line"/>
    </contour>
    <contour>
      <point x="67" y="304" type="line"/>
      <point x="79" y="304" type="line"/>
      <point x="79" y="396" type="line"/>
      <point x="67" y="396" type="line"/>
    </contour>
    <contour>
      <point x="0" y="666" type="line" smooth="yes"/>
      <point x="0" y="680"/>
      <point x="20" y="700"/>
      <point x="34" y="700" type="qcurve" smooth="yes"/>
      <point x="146" y="700" type="line"/>
      <point x="146" y="475" type="line"/>
      <point x="79" y="475" type="line"/>
      <point x="79" y="633" type="line"/>
      <point x="67" y="633" type="line"/>
      <point x="67" y="463" type="line"/>
      <point x="113" y="463" type="line" smooth="yes"/>
      <point x="127" y="463"/>
      <point x="146" y="443"/>
      <point x="146" y="429" type="qcurve" smooth="yes"/>
      <point x="146" y="33" type="line" smooth="yes"/>
      <point x="146" y="19"/>
      <point x="127" y="0"/>
      <point x="113" y="0" type="qcurve" smooth="yes"/>
      <point x="0" y="0" type="line"/>
      <point x="0" y="225" type="line"/>
      <point x="67" y="225" type="line"/>
      <point x="67" y="67" type="line"/>
      <point x="79" y="67" type="line"/>
      <point x="79" y="237" type="line"/>
      <point x="34" y="237" type="line" smooth="yes"/>
      <point x="20" y="237"/>
      <point x="0" y="257"/>
      <point x="0" y="271" type="qcurve" smooth="yes"/>
    </contour>
    <contour>
      <point x="134" y="688" type="line"/>
      <point x="34" y="688" type="line" smooth="yes"/>
      <point x="25" y="688"/>
      <point x="12" y="675"/>
      <point x="12" y="666" type="qcurve" smooth="yes"/>
      <point x="12" y="271" type="line" smooth="yes"/>
      <point x="12" y="262"/>
      <point x="25" y="249"/>
      <point x="34" y="249" type="qcurve" smooth="yes"/>
      <point x="91" y="249" type="line"/>
      <point x="91" y="55" type="line"/>
      <point x="55" y="55" type="line"/>
      <point x="55" y="213" type="line"/>
      <point x="12" y="213" type="line"/>
      <point x="12" y="12" type="line"/>
      <point x="113" y="12" type="line" smooth="yes"/>
      <point x="122" y="12"/>
      <point x="134" y="25"/>
      <point x="134" y="33" type="qcurve" smooth="yes"/>
      <point x="134" y="429" type="line" smooth="yes"/>
      <point x="134" y="438"/>
      <point x="122" y="451"/>
      <point x="113" y="451" type="qcurve" smooth="yes"/>
      <point x="55" y="451" type="line"/>
      <point x="55" y="645" type="line"/>
      <point x="91" y="645" type="line"/>
      <point x="91" y="487" type="line"/>
      <point x="134" y="487" type="line"/>
    </contour>
  </outline>
</glyph>
<glyph name="ordfeminine" format="2">
  <advance width="158"/>
  <unicode hex="00AA"/>
  <outline>
    <contour>
      <point x="91" y="527" type="line"/>
      <point x="91" y="453" type="line"/>
      <point x="55" y="453" type="line"/>
      <point x="55" y="527" type="line"/>
    </contour>
    <contour>
      <point x="79" y="515" type="line"/>
      <point x="67" y="515" type="line"/>
      <point x="67" y="465" type="line"/>
      <point x="79" y="465" type="line"/>
    </contour>
    <contour>
      <point x="0" y="667" type="line" smooth="yes"/>
      <point x="0" y="681"/>
      <point x="20" y="700"/>
      <point x="34" y="700" type="qcurve" smooth="yes"/>
      <point x="113" y="700" type="line" smooth="yes"/>
      <point x="127" y="700"/>
      <point x="146" y="681"/>
      <point x="146" y="667" type="qcurve" smooth="yes"/>
      <point x="146" y="397" type="line"/>
      <point x="34" y="397" type="line" smooth="yes"/>
      <point x="20" y="397"/>
      <point x="0" y="417"/>
      <point x="0" y="431" type="qcurve" smooth="yes"/>
      <point x="0" y="548" type="line" smooth="yes"/>
      <point x="0" y="562"/>
      <point x="20" y="582"/>
      <point x="34" y="582" type="qcurve" smooth="yes"/>
      <point x="79" y="582" type="line"/>
      <point x="79" y="633" type="line"/>
      <point x="67" y="633" type="line"/>
      <point x="67" y="595" type="line"/>
      <point x="0" y="595" type="line"/>
    </contour>
    <contour>
      <point x="12" y="607" type="line"/>
      <point x="55" y="607" type="line"/>
      <point x="55" y="645" type="line"/>
      <point x="91" y="645" type="line"/>
      <point x="91" y="570" type="line"/>
      <point x="34" y="570" type="line" smooth="yes"/>
      <point x="25" y="570"/>
      <point x="12" y="557"/>
      <point x="12" y="548" type="qcurve" smooth="yes"/>
      <point x="12" y="431" type="line" smooth="yes"/>
      <point x="12" y="422"/>
      <point x="25" y="409"/>
      <point x="34" y="409" type="qcurve" smooth="yes"/>
      <point x="134" y="409" type="line"/>
      <point x="134" y="667" type="line" smooth="yes"/>
      <point x="134" y="676"/>
      <point x="122" y="688"/>
      <point x="113" y="688" type="qcurve" smooth="yes"/>
      <point x="34" y="688" type="line" smooth="yes"/>
      <point x="25" y="688"/>
      <point x="12" y="676"/>
      <point x="12" y="667" type="qcurve" smooth="yes"/>
    </contour>
  </outline>
</glyph>
<glyph name="guillemotleft" format="2">
  <advance width="237"/>
  <unicode hex="00AB"/>
  <outline>
    <contour>
      <point x="119" y="351" type="line" smooth="yes"/>
      <point x="119" y="365"/>
      <point x="138" y="384"/>
      <point x="152" y="384" type="qcurve" smooth="yes"/>
      <point x="225" y="384" type="line"/>
      <point x="225" y="318" type="line"/>
      <point x="186" y="318" type="line"/>
      <point x="186" y="226" type="line"/>
      <point x="225" y="226" type="line"/>
      <point x="225" y="159" type="line"/>
      <point x="152" y="159" type="line" smooth="yes"/>
      <point x="138" y="159"/>
      <point x="119" y="179"/>
      <point x="119" y="193" type="qcurve" smooth="yes"/>
    </contour>
    <contour>
      <point x="213" y="372" type="line"/>
      <point x="152" y="372" type="line" smooth="yes"/>
      <point x="143" y="372"/>
      <point x="131" y="360"/>
      <point x="131" y="351" type="qcurve" smooth="yes"/>
      <point x="131" y="193" type="line" smooth="yes"/>
      <point x="131" y="184"/>
      <point x="143" y="171"/>
      <point x="152" y="171" type="qcurve" smooth="yes"/>
      <point x="213" y="171" type="line"/>
      <point x="213" y="214" type="line"/>
      <point x="174" y="214" type="line"/>
      <point x="174" y="330" type="line"/>
      <point x="186" y="330" type="line"/>
      <point x="213" y="330" type="line"/>
    </contour>
    <contour>
      <point x="67" y="318" type="line"/>
      <point x="67" y="226" type="line"/>
      <point x="107" y="226" type="line"/>
      <point x="107" y="159" type="line"/>
      <point x="33" y="159" type="line" smooth="yes"/>
      <point x="19" y="159"/>
      <point x="0" y="179"/>
      <point x="0" y="193" type="qcurve" smooth="yes"/>
      <point x="0" y="351" type="line" smooth="yes"/>
      <point x="0" y="365"/>
      <point x="19" y="384"/>
      <point x="33" y="384" type="qcurve" smooth="yes"/>
      <point x="107" y="384" type="line"/>
      <point x="107" y="318" type="line"/>
    </contour>
    <contour>
      <point x="55" y="214" type="line"/>
      <point x="55" y="330" type="line"/>
      <point x="95" y="330" type="line"/>
      <point x="95" y="372" type="line"/>
      <point x="33" y="372" type="line" smooth="yes"/>
      <point x="25" y="372"/>
      <point x="12" y="360"/>
      <point x="12" y="351" type="qcurve" smooth="yes"/>
      <point x="12" y="193" type="line" smooth="yes"/>
      <point x="12" y="184"/>
      <point x="25" y="171"/>
      <point x="33" y="171" type="qcurve" smooth="yes"/>
      <point x="95" y="171" type="line"/>
      <point x="95" y="214" type="line"/>
    </contour>
  </outline>
</glyph>
<glyph name="logicalnot" format="2">
  <advance width="237"/>
  <unicode hex="00AC"/>
  <outline>
    <contour>
      <point x="0" y="305" type="line"/>
      <point x="225" y="305" type="line"/>
      <point x="225" y="159" type="line"/>
      <point x="158" y="159" type="line"/>
      <point x="158" y="238" type="line"/>
      <point x="0" y="238" type="line"/>
    </contour>
    <contour>
      <point x="12" y="250" type="line"/>
      <point x="170" y="250" type="line"/>
      <point x="170" y="171" type="line"/>
      <point x="213" y="171" type="line"/>
      <point x="213" y="293" type="line"/>
      <point x="12" y="293" type="line"/>
    </contour>
  </outline>
</glyph>
<glyph name="registered" format="2">
  <advance width="158"/>
  <unicode hex="00AE"/>
  <outline>
    <contour>
      <point x="91" y="645" type="line"/>
      <point x="91" y="569" type="line"/>
      <point x="55" y="569" type="line"/>
      <point x="55" y="645" type="line"/>
    </contour>
    <contour>
      <point x="79" y="633" type="line"/>
      <point x="67" y="633" type="line"/>
      <point x="67" y="581" type="line"/>
      <point x="79" y="581" type="line"/>
    </contour>
    <contour>
      <point x="113" y="700" type="line" smooth="yes"/>
      <point x="127" y="700"/>
      <point x="146" y="680"/>
      <point x="146" y="666" type="qcurve" smooth="yes"/>
      <point x="146" y="548" type="line" smooth="yes"/>
      <point x="146" y="534"/>
      <point x="127" y="514"/>
      <point x="113" y="514" type="qcurve" smooth="yes"/>
      <point x="67" y="514" type="line"/>
      <point x="67" y="502" type="line"/>
      <point x="113" y="502" type="line" smooth="yes"/>
      <point x="127" y="502"/>
      <point x="146" y="482"/>
      <point x="146" y="468" type="qcurve" smooth="yes"/>
      <point x="146" y="317" type="line"/>
      <point x="79" y="317" type="line"/>
      <point x="79" y="435" type="line"/>
      <point x="67" y="435" type="line"/>
      <point x="67" y="317" type="line"/>
      <point x="0" y="317" type="line"/>
      <point x="0" y="700" type="line"/>
    </contour>
    <contour>
      <point x="134" y="666" type="line" smooth="yes"/>
      <point x="134" y="675"/>
      <point x="122" y="688"/>
      <point x="113" y="688" type="qcurve" smooth="yes"/>
      <point x="12" y="688" type="line"/>
      <point x="12" y="329" type="line"/>
      <point x="55" y="329" type="line"/>
      <point x="55" y="447" type="line"/>
      <point x="91" y="447" type="line"/>
      <point x="91" y="329" type="line"/>
      <point x="134" y="329" type="line"/>
      <point x="134" y="468" type="line" smooth="yes"/>
      <point x="134" y="477"/>
      <point x="122" y="490"/>
      <point x="113" y="490" type="qcurve" smooth="yes"/>
      <point x="67" y="490" type="line"/>
      <point x="55" y="490" type="line"/>
      <point x="55" y="526" type="line"/>
      <point x="113" y="526" type="line" smooth="yes"/>
      <point x="122" y="526"/>
      <point x="134" y="539"/>
      <point x="134" y="548" type="qcurve" smooth="yes"/>
    </contour>
  </outline>
</glyph>
<glyph name="macron" format="2">
  <advance width="158"/>
  <unicode hex="00AF"/>
  <outline>
    <contour>
      <point x="12" y="609" type="line"/>
      <point x="12" y="566" type="line"/>
      <point x="134" y="566" type="line"/>
      <point x="134" y="609" type="line"/>
    </contour>
    <contour>
      <point x="146" y="554" type="line"/>
      <point x="0" y="554" type="line"/>
      <point x="0" y="621" type="line"/>
      <point x="146" y="621" type="line"/>
    </contour>
  </outline>
</glyph>
<glyph name="acute" format="2">
  <advance width="158"/>
  <unicode hex="00B4"/>
  <outline>
    <contour>
      <point x="146" y="700" type="line"/>
      <point x="146" y="587" type="line" smooth="yes"/>
      <point x="146" y="573"/>
      <point x="126" y="554"/>
      <point x="112" y="554" type="qcurve" smooth="yes"/>
      <point x="0" y="554" type="line"/>
      <point x="0" y="621" type="line"/>
      <point x="79" y="621" type="line"/>
      <point x="79" y="700" type="line"/>
    </contour>
    <contour>
      <point x="12" y="609" type="line"/>
      <point x="12" y="566" type="line"/>
      <point x="112" y="566" type="line" smooth="yes"/>
      <point x="121" y="566"/>
      <point x="134" y="578"/>
      <point x="134" y="587" type="qcurve" smooth="yes"/>
      <point x="134" y="688" type="line"/>
      <point x="91" y="688" type="line"/>
      <point x="91" y="609" type="line"/>
    </contour>
  </outline>
</glyph>
<glyph name="cedilla" format="2">
  <advance width="79"/>
  <unicode hex="00B8"/>
  <outline>
    <contour>
      <point x="40" y="-91" type="line"/>
      <point x="40" y="-79" type="line"/>
      <point x="33" y="-79" type="line" smooth="yes"/>
      <point x="19" y="-79"/>
      <point x="0" y="-60"/>
      <point x="0" y="-46" type="qcurve" smooth="yes"/>
      <point x="0" y="67" type="line"/>
      <point x="67" y="67" type="line"/>
      <point x="67" y="-12" type="line"/>
      <point x="73" y="-12" type="line" smooth="yes"/>
      <point x="87" y="-12"/>
      <point x="107" y="-32"/>
      <point x="107" y="-46" type="qcurve" smooth="yes"/>
      <point x="107" y="-125" type="line" smooth="yes"/>
      <point x="107" y="-139"/>
      <point x="87" y="-158"/>
      <point x="73" y="-158" type="qcurve" smooth="yes"/>
      <point x="0" y="-158" type="line"/>
      <point x="0" y="-91" type="line"/>
    </contour>
    <contour>
      <point x="52" y="-67" type="line"/>
      <point x="52" y="-103" type="line"/>
      <point x="12" y="-103" type="line"/>
      <point x="12" y="-146" type="line"/>
      <point x="73" y="-146" type="line" smooth="yes"/>
      <point x="82" y="-146"/>
      <point x="95" y="-134"/>
      <point x="95" y="-125" type="qcurve" smooth="yes"/>
      <point x="95" y="-46" type="line" smooth="yes"/>
      <point x="95" y="-37"/>
      <point x="82" y="-24"/>
      <point x="73" y="-24" type="qcurve" smooth="yes"/>
      <point x="55" y="-24" type="line"/>
      <point x="55" y="55" type="line"/>
      <point x="12" y="55" type="line"/>
      <point x="12" y="-46" type="line" smooth="yes"/>
      <point x="12" y="-54"/>
      <point x="25" y="-67"/>
      <point x="33" y="-67" type="qcurve" smooth="yes"/>
    </contour>
  </outline>
</glyph>
<glyph name="ordmasculine" format="2">
  <advance width="158"/>
  <unicode hex="00BA"/>
  <outline>
    <contour>
      <point x="34" y="688" type="line" smooth="yes"/>
      <point x="25" y="688"/>
      <point x="12" y="675"/>
      <point x="12" y="666" type="qcurve" smooth="yes"/>
      <point x="12" y="429" type="line" smooth="yes"/>
      <point x="12" y="420"/>
      <point x="25" y="408"/>
      <point x="34" y="408" type="qcurve" smooth="yes"/>
      <point x="113" y="408" type="line" smooth="yes"/>
      <point x="122" y="408"/>
      <point x="134" y="420"/>
      <point x="134" y="429" type="qcurve" smooth="yes"/>
      <point x="134" y="666" type="line" smooth="yes"/>
      <point x="134" y="675"/>
      <point x="122" y="688"/>
      <point x="113" y="688" type="qcurve" smooth="yes"/>
    </contour>
    <contour>
      <point x="55" y="644" type="line"/>
      <point x="91" y="644" type="line"/>
      <point x="91" y="450" type="line"/>
      <point x="55" y="450" type="line"/>
    </contour>
    <contour>
      <point x="113" y="700" type="line" smooth="yes"/>
      <point x="127" y="700"/>
      <point x="146" y="680"/>
      <point x="146" y="666" type="qcurve" smooth="yes"/>
      <point x="146" y="429" type="line" smooth="yes"/>
      <point x="146" y="415"/>
      <point x="127" y="396"/>
      <point x="113" y="396" type="qcurve" smooth="yes"/>
      <point x="34" y="396" type="line" smooth="yes"/>
      <point x="20" y="396"/>
      <point x="0" y="415"/>
      <point x="0" y="429" type="qcurve" smooth="yes"/>
      <point x="0" y="666" type="line" smooth="yes"/>
      <point x="0" y="680"/>
      <point x="20" y="700"/>
      <point x="34" y="700" type="qcurve" smooth="yes"/>
    </contour>
    <contour>
      <point x="79" y="462" type="line"/>
      <point x="79" y="632" type="line"/>
      <point x="67" y="632" type="line"/>
      <point x="67" y="462" type="line"/>
    </contour>
  </outline>
</glyph>
<glyph name="Acircumflex" format="2">
  <advance width="158"/>
  <unicode hex="00C2"/>
  <outline>
    <contour>
      <point x="33" y="530" type="line" smooth="yes"/>
      <point x="24" y="530"/>
      <point x="12" y="517"/>
      <point x="12" y="508" type="qcurve" smooth="yes"/>
      <point x="12" y="12" type="line"/>
      <point x="55" y="12" type="line"/>
      <point x="55" y="248" type="line"/>
      <point x="91" y="248" type="line"/>
      <point x="91" y="12" type="line"/>
      <point x="134" y="12" type="line"/>
      <point x="134" y="508" type="line" smooth="yes"/>
      <point x="134" y="517"/>
      <point x="121" y="530"/>
      <point x="112" y="530" type="qcurve" smooth="yes"/>
    </contour>
    <contour>
      <point x="55" y="487" type="line"/>
      <point x="91" y="487" type="line"/>
      <point x="91" y="292" type="line"/>
      <point x="55" y="292" type="line"/>
    </contour>
    <contour>
      <point x="112" y="542" type="line" smooth="yes"/>
      <point x="126" y="542"/>
      <point x="146" y="522"/>
      <point x="146" y="508" type="qcurve" smooth="yes"/>
      <point x="146" y="0" type="line"/>
      <point x="79" y="0" type="line"/>
      <point x="79" y="236" type="line"/>
      <point x="67" y="236" type="line"/>
      <point x="67" y="0" type="line"/>
      <point x="0" y="0" type="line"/>
      <point x="0" y="508" type="line" smooth="yes"/>
      <point x="0" y="522"/>
      <point x="19" y="542"/>
      <point x="33" y="542" type="qcurve" smooth="yes"/>
    </contour>
    <contour>
      <point x="79" y="304" type="line"/>
      <point x="79" y="475" type="line"/>
      <point x="67" y="475" type="line"/>
      <point x="67" y="304" type="line"/>
    </contour>
    <contour>
      <point x="136" y="651" type="line" smooth="yes"/>
      <point x="141.0" y="646.0" name="inserted"/>
      <point x="146.0" y="634.0"/>
      <point x="146" y="627" type="qcurve" smooth="yes"/>
      <point x="146" y="554" type="line"/>
      <point x="79" y="554" type="line"/>
      <point x="79" y="613" type="line"/>
      <point x="73" y="619" type="line"/>
      <point x="67" y="613" type="line"/>
      <point x="67" y="554" type="line"/>
      <point x="0" y="554" type="line"/>
      <point x="0" y="627" type="line" smooth="yes"/>
      <point x="0.0" y="633.0" name="inserted"/>
      <point x="5.0" y="645.0"/>
      <point x="10" y="651" type="qcurve"/>
      <point x="49" y="690" type="line" smooth="yes"/>
      <point x="54.0" y="695.0" name="inserted"/>
      <point x="66.0" y="700.0"/>
      <point x="73" y="700" type="qcurve" smooth="yes"/>
      <point x="80.0" y="700.0" name="inserted"/>
      <point x="92.0" y="695.0"/>
      <point x="97" y="690" type="qcurve" smooth="yes"/>
    </contour>
    <contour>
      <point x="134" y="627" type="line" smooth="yes"/>
      <point x="134.0" y="631.5" name="inserted"/>
      <point x="131.0" y="639.0"/>
      <point x="128" y="642" type="qcurve" smooth="yes"/>
      <point x="88" y="682" type="line" smooth="yes"/>
      <point x="85.0" y="685.0" name="inserted"/>
      <point x="77.5" y="688.0"/>
      <point x="73" y="688" type="qcurve" smooth="yes"/>
      <point x="68.5" y="688.0" name="inserted"/>
      <point x="61.0" y="685.0"/>
      <point x="58" y="682" type="qcurve" smooth="yes"/>
      <point x="18" y="642" type="line" smooth="yes"/>
      <point x="15.0" y="639.0" name="inserted"/>
      <point x="12.0" y="631.5"/>
      <point x="12" y="627" type="qcurve" smooth="yes"/>
      <point x="12" y="566" type="line"/>
      <point x="55" y="566" type="line"/>
      <point x="55" y="618" type="line"/>
      <point x="73" y="636" type="line"/>
      <point x="91" y="618" type="line"/>
      <point x="91" y="566" type="line"/>
      <point x="134" y="566" type="line"/>
    </contour>
  </outline>
</glyph>
<glyph name="Atilde" format="2">
  <advance width="158"/>
  <unicode hex="00C3"/>
  <outline>
    <contour>
      <point x="33" y="530" type="line" smooth="yes"/>
      <point x="24" y="530"/>
      <point x="12" y="517"/>
      <point x="12" y="508" type="qcurve" smooth="yes"/>
      <point x="12" y="12" type="line"/>
      <point x="55" y="12" type="line"/>
      <point x="55" y="248" type="line"/>
      <point x="91" y="248" type="line"/>
      <point x="91" y="12" type="line"/>
      <point x="134" y="12" type="line"/>
      <point x="134" y="508" type="line" smooth="yes"/>
      <point x="134" y="517"/>
      <point x="121" y="530"/>
      <point x="112" y="530" type="qcurve" smooth="yes"/>
    </contour>
    <contour>
      <point x="55" y="487" type="line"/>
      <point x="91" y="487" type="line"/>
      <point x="91" y="292" type="line"/>
      <point x="55" y="292" type="line"/>
    </contour>
    <contour>
      <point x="112" y="542" type="line" smooth="yes"/>
      <point x="126" y="542"/>
      <point x="146" y="522"/>
      <point x="146" y="508" type="qcurve" smooth="yes"/>
      <point x="146" y="0" type="line"/>
      <point x="79" y="0" type="line"/>
      <point x="79" y="236" type="line"/>
      <point x="67" y="236" type="line"/>
      <point x="67" y="0" type="line"/>
      <point x="0" y="0" type="line"/>
      <point x="0" y="508" type="line" smooth="yes"/>
      <point x="0" y="522"/>
      <point x="19" y="542"/>
      <point x="33" y="542" type="qcurve" smooth="yes"/>
    </contour>
    <contour>
      <point x="79" y="304" type="line"/>
      <point x="79" y="475" type="line"/>
      <point x="67" y="475" type="line"/>
      <point x="67" y="304" type="line"/>
    </contour>
    <contour>
      <point x="79" y="700" type="line"/>
      <point x="146" y="700" type="line"/>
      <point x="146" y="627" type="line" smooth="yes"/>
      <point x="146" y="613"/>
      <point x="126" y="593"/>
      <point x="112" y="593" type="qcurve" smooth="yes"/>
      <point x="67" y="593" type="line"/>
      <point x="67" y="554" type="line"/>
      <point x="0" y="554" type="line"/>
      <point x="0" y="627" type="line" smooth="yes"/>
      <point x="0" y="641"/>
      <point x="19" y="660"/>
      <point x="33" y="660" type="qcurve" smooth="yes"/>
      <point x="79" y="660" type="line"/>
    </contour>
    <contour>
      <point x="91" y="648" type="line"/>
      <point x="33" y="648" type="line" smooth="yes"/>
      <point x="25" y="648"/>
      <point x="12" y="636"/>
      <point x="12" y="627" type="qcurve" smooth="yes"/>
      <point x="12" y="566" type="line"/>
      <point x="55" y="566" type="line"/>
      <point x="55" y="605" type="line"/>
      <point x="112" y="605" type="line" smooth="yes"/>
      <point x="121" y="605"/>
      <point x="134" y="618"/>
      <point x="134" y="627" type="qcurve" smooth="yes"/>
      <point x="134" y="688" type="line"/>
      <point x="91" y="688" type="line"/>
    </contour>
  </outline>
</glyph>
<glyph name="Adieresis" format="2">
  <advance width="158"/>
  <unicode hex="00C4"/>
  <outline>
    <contour>
      <point x="33" y="530" type="line" smooth="yes"/>
      <point x="24" y="530"/>
      <point x="12" y="517"/>
      <point x="12" y="508" type="qcurve" smooth="yes"/>
      <point x="12" y="12" type="line"/>
      <point x="55" y="12" type="line"/>
      <point x="55" y="248" type="line"/>
      <point x="91" y="248" type="line"/>
      <point x="91" y="12" type="line"/>
      <point x="134" y="12" type="line"/>
      <point x="134" y="508" type="line" smooth="yes"/>
      <point x="134" y="517"/>
      <point x="121" y="530"/>
      <point x="112" y="530" type="qcurve" smooth="yes"/>
    </contour>
    <contour>
      <point x="55" y="487" type="line"/>
      <point x="91" y="487" type="line"/>
      <point x="91" y="292" type="line"/>
      <point x="55" y="292" type="line"/>
    </contour>
    <contour>
      <point x="112" y="542" type="line" smooth="yes"/>
      <point x="126" y="542"/>
      <point x="146" y="522"/>
      <point x="146" y="508" type="qcurve" smooth="yes"/>
      <point x="146" y="0" type="line"/>
      <point x="79" y="0" type="line"/>
      <point x="79" y="236" type="line"/>
      <point x="67" y="236" type="line"/>
      <point x="67" y="0" type="line"/>
      <point x="0" y="0" type="line"/>
      <point x="0" y="508" type="line" smooth="yes"/>
      <point x="0" y="522"/>
      <point x="19" y="542"/>
      <point x="33" y="542" type="qcurve" smooth="yes"/>
    </contour>
    <contour>
      <point x="79" y="304" type="line"/>
      <point x="79" y="475" type="line"/>
      <point x="67" y="475" type="line"/>
      <point x="67" y="304" type="line"/>
    </contour>
    <contour>
      <point x="91" y="688" type="line"/>
      <point x="91" y="566" type="line"/>
      <point x="134" y="566" type="line"/>
      <point x="134" y="688" type="line"/>
    </contour>
    <contour>
      <point x="12" y="688" type="line"/>
      <point x="12" y="566" type="line"/>
      <point x="55" y="566" type="line"/>
      <point x="55" y="688" type="line"/>
    </contour>
    <contour>
      <point x="146" y="554" type="line"/>
      <point x="79" y="554" type="line"/>
      <point x="79" y="700" type="line"/>
      <point x="146" y="700" type="line"/>
    </contour>
    <contour>
      <point x="67" y="554" type="line"/>
      <point x="0" y="554" type="line"/>
      <point x="0" y="700" type="line"/>
      <point x="67" y="700" type="line"/>
    </contour>
  </outline>
</glyph>
<glyph name="Aring" format="2">
  <advance width="158"/>
  <unicode hex="00C5"/>
  <outline>
    <contour>
      <point x="33" y="530" type="line" smooth="yes"/>
      <point x="24" y="530"/>
      <point x="12" y="517"/>
      <point x="12" y="508" type="qcurve" smooth="yes"/>
      <point x="12" y="12" type="line"/>
      <point x="55" y="12" type="line"/>
      <point x="55" y="248" type="line"/>
      <point x="91" y="248" type="line"/>
      <point x="91" y="12" type="line"/>
      <point x="134" y="12" type="line"/>
      <point x="134" y="508" type="line" smooth="yes"/>
      <point x="134" y="517"/>
      <point x="121" y="530"/>
      <point x="112" y="530" type="qcurve" smooth="yes"/>
    </contour>
    <contour>
      <point x="55" y="487" type="line"/>
      <point x="91" y="487" type="line"/>
      <point x="91" y="292" type="line"/>
      <point x="55" y="292" type="line"/>
    </contour>
    <contour>
      <point x="112" y="542" type="line" smooth="yes"/>
      <point x="126" y="542"/>
      <point x="146" y="522"/>
      <point x="146" y="508" type="qcurve" smooth="yes"/>
      <point x="146" y="0" type="line"/>
      <point x="79" y="0" type="line"/>
      <point x="79" y="236" type="line"/>
      <point x="67" y="236" type="line"/>
      <point x="67" y="0" type="line"/>
      <point x="0" y="0" type="line"/>
      <point x="0" y="508" type="line" smooth="yes"/>
      <point x="0" y="522"/>
      <point x="19" y="542"/>
      <point x="33" y="542" type="qcurve" smooth="yes"/>
    </contour>
    <contour>
      <point x="79" y="304" type="line"/>
      <point x="79" y="475" type="line"/>
      <point x="67" y="475" type="line"/>
      <point x="67" y="304" type="line"/>
    </contour>
    <contour>
      <point x="91" y="645" type="line"/>
      <point x="91" y="609" type="line"/>
      <point x="55" y="609" type="line"/>
      <point x="55" y="645" type="line"/>
    </contour>
    <contour>
      <point x="79" y="633" type="line"/>
      <point x="67" y="633" type="line"/>
      <point x="67" y="621" type="line"/>
      <point x="79" y="621" type="line"/>
    </contour>
    <contour>
      <point x="112" y="700" type="line" smooth="yes"/>
      <point x="126" y="700"/>
      <point x="146" y="680"/>
      <point x="146" y="666" type="qcurve" smooth="yes"/>
      <point x="146" y="587" type="line" smooth="yes"/>
      <point x="146" y="573"/>
      <point x="126" y="554"/>
      <point x="112" y="554" type="qcurve" smooth="yes"/>
      <point x="33" y="554" type="line" smooth="yes"/>
      <point x="19" y="554"/>
      <point x="0" y="573"/>
      <point x="0" y="587" type="qcurve" smooth="yes"/>
      <point x="0" y="666" type="line" smooth="yes"/>
      <point x="0" y="680"/>
      <point x="19" y="700"/>
      <point x="33" y="700" type="qcurve" smooth="yes"/>
    </contour>
    <contour>
      <point x="134" y="666" type="line" smooth="yes"/>
      <point x="134" y="675"/>
      <point x="121" y="688"/>
      <point x="112" y="688" type="qcurve" smooth="yes"/>
      <point x="33" y="688" type="line" smooth="yes"/>
      <point x="24" y="688"/>
      <point x="12" y="675"/>
      <point x="12" y="666" type="qcurve" smooth="yes"/>
      <point x="12" y="587" type="line" smooth="yes"/>
      <point x="12" y="578"/>
      <point x="24" y="566"/>
      <point x="33" y="566" type="qcurve" smooth="yes"/>
      <point x="112" y="566" type="line" smooth="yes"/>
      <point x="121" y="566"/>
      <point x="134" y="578"/>
      <point x="134" y="587" type="qcurve" smooth="yes"/>
    </contour>
  </outline>
</glyph>
<glyph name="AE" format="2">
  <advance width="237"/>
  <unicode hex="00C6"/>
  <outline>
    <contour>
      <point x="55" y="371" type="line"/>
      <point x="55" y="645" type="line"/>
      <point x="91" y="645" type="line"/>
      <point x="91" y="371" type="line"/>
    </contour>
    <contour>
      <point x="67" y="383" type="line"/>
      <point x="79" y="383" type="line"/>
      <point x="79" y="633" type="line"/>
      <point x="67" y="633" type="line"/>
    </contour>
    <contour>
      <point x="0" y="666" type="line" smooth="yes"/>
      <point x="0" y="680"/>
      <point x="19" y="700"/>
      <point x="33" y="700" type="qcurve" smooth="yes"/>
      <point x="225" y="700" type="line"/>
      <point x="225" y="396" type="line"/>
      <point x="158" y="396" type="line"/>
      <point x="158" y="633" type="line"/>
      <point x="146" y="633" type="line"/>
      <point x="146" y="383" type="line"/>
      <point x="225" y="383" type="line"/>
      <point x="225" y="316" type="line"/>
      <point x="146" y="316" type="line"/>
      <point x="146" y="67" type="line"/>
      <point x="158" y="67" type="line"/>
      <point x="158" y="304" type="line"/>
      <point x="225" y="304" type="line"/>
      <point x="225" y="0" type="line"/>
      <point x="79" y="0" type="line"/>
      <point x="79" y="316" type="line"/>
      <point x="67" y="316" type="line"/>
      <point x="67" y="0" type="line"/>
      <point x="0" y="0" type="line"/>
    </contour>
    <contour>
      <point x="12" y="12" type="line"/>
      <point x="55" y="12" type="line"/>
      <point x="55" y="328" type="line"/>
      <point x="91" y="328" type="line"/>
      <point x="91" y="12" type="line"/>
      <point x="213" y="12" type="line"/>
      <point x="213" y="292" type="line"/>
      <point x="170" y="292" type="line"/>
      <point x="170" y="55" type="line"/>
      <point x="134" y="55" type="line"/>
      <point x="134" y="328" type="line"/>
      <point x="213" y="328" type="line"/>
      <point x="213" y="371" type="line"/>
      <point x="134" y="371" type="line"/>
      <point x="134" y="645" type="line"/>
      <point x="170" y="645" type="line"/>
      <point x="170" y="408" type="line"/>
      <point x="213" y="408" type="line"/>
      <point x="213" y="688" type="line"/>
      <point x="33" y="688" type="line" smooth="yes"/>
      <point x="25" y="688"/>
      <point x="12" y="675"/>
      <point x="12" y="666" type="qcurve" smooth="yes"/>
    </contour>
  </outline>
</glyph>
<glyph name="Ccedilla" format="2">
  <advance width="158"/>
  <unicode hex="00C7"/>
  <outline>
    <contour>
      <point x="0" y="666" type="line" smooth="yes"/>
      <point x="0" y="680"/>
      <point x="19" y="700"/>
      <point x="33" y="700" type="qcurve" smooth="yes"/>
      <point x="113" y="700" type="line" smooth="yes"/>
      <point x="127" y="700"/>
      <point x="146" y="680"/>
      <point x="146" y="666" type="qcurve" smooth="yes"/>
      <point x="146" y="356" type="line"/>
      <point x="79" y="356" type="line"/>
      <point x="79" y="633" type="line"/>
      <point x="67" y="633" type="line"/>
      <point x="67" y="67" type="line"/>
      <point x="79" y="67" type="line"/>
      <point x="79" y="344" type="line"/>
      <point x="146" y="344" type="line"/>
      <point x="146" y="33" type="line" smooth="yes"/>
      <point x="146" y="19"/>
      <point x="127" y="0"/>
      <point x="113" y="0" type="qcurve" smooth="yes"/>
      <point x="107" y="0" type="line"/>
      <point x="107" y="-12" type="line"/>
      <point x="113" y="-12" type="line" smooth="yes"/>
      <point x="127" y="-12"/>
      <point x="146" y="-32"/>
      <point x="146" y="-46" type="qcurve" smooth="yes"/>
      <point x="146" y="-125" type="line" smooth="yes"/>
      <point x="146" y="-139"/>
      <point x="127" y="-158"/>
      <point x="113" y="-158" type="qcurve" smooth="yes"/>
      <point x="40" y="-158" type="line"/>
      <point x="40" y="-91" type="line"/>
      <point x="79" y="-91" type="line"/>
      <point x="79" y="-79" type="line"/>
      <point x="73" y="-79" type="line" smooth="yes"/>
      <point x="59" y="-79"/>
      <point x="40" y="-60"/>
      <point x="40" y="-46" type="qcurve" smooth="yes"/>
      <point x="40" y="0" type="line"/>
      <point x="33" y="0" type="line" smooth="yes"/>
      <point x="19" y="0"/>
      <point x="0" y="19"/>
      <point x="0" y="33" type="qcurve" smooth="yes"/>
    </contour>
    <contour>
      <point x="134" y="666" type="line" smooth="yes"/>
      <point x="134" y="675"/>
      <point x="121" y="688"/>
      <point x="113" y="688" type="qcurve" smooth="yes"/>
      <point x="33" y="688" type="line" smooth="yes"/>
      <point x="25" y="688"/>
      <point x="12" y="675"/>
      <point x="12" y="666" type="qcurve" smooth="yes"/>
      <point x="12" y="33" type="line" smooth="yes"/>
      <point x="12" y="25"/>
      <point x="25" y="12"/>
      <point x="33" y="12" type="qcurve" smooth="yes"/>
      <point x="52" y="12" type="line"/>
      <point x="52" y="-46" type="line" smooth="yes"/>
      <point x="52" y="-55"/>
      <point x="64" y="-67"/>
      <point x="73" y="-67" type="qcurve" smooth="yes"/>
      <point x="91" y="-67" type="line"/>
      <point x="91" y="-103" type="line"/>
      <point x="52" y="-103" type="line"/>
      <point x="52" y="-146" type="line"/>
      <point x="113" y="-146" type="line" smooth="yes"/>
      <point x="121" y="-146"/>
      <point x="134" y="-134"/>
      <point x="134" y="-125" type="qcurve" smooth="yes"/>
      <point x="134" y="-46" type="line" smooth="yes"/>
      <point x="134" y="-37"/>
      <point x="121" y="-24"/>
      <point x="113" y="-24" type="qcurve" smooth="yes"/>
      <point x="95" y="-24" type="line"/>
      <point x="95" y="12" type="line"/>
      <point x="113" y="12" type="line" smooth="yes"/>
      <point x="121" y="12"/>
      <point x="134" y="25"/>
      <point x="134" y="33" type="qcurve" smooth="yes"/>
      <point x="134" y="332" type="line"/>
      <point x="91" y="332" type="line"/>
      <point x="91" y="55" type="line"/>
      <point x="55" y="55" type="line"/>
      <point x="55" y="645" type="line"/>
      <point x="91" y="645" type="line"/>
      <point x="91" y="368" type="line"/>
      <point x="134" y="368" type="line"/>
    </contour>
  </outline>
</glyph>
<glyph name="Egrave" format="2">
  <advance width="158"/>
  <unicode hex="00C8"/>
  <outline>
    <contour>
      <point x="12" y="530" type="line"/>
      <point x="12" y="12" type="line"/>
      <point x="134" y="12" type="line"/>
      <point x="134" y="213" type="line"/>
      <point x="91" y="213" type="line"/>
      <point x="91" y="55" type="line"/>
      <point x="55" y="55" type="line"/>
      <point x="55" y="249" type="line"/>
      <point x="134" y="249" type="line"/>
      <point x="134" y="293" type="line"/>
      <point x="55" y="293" type="line"/>
      <point x="55" y="487" type="line"/>
      <point x="91" y="487" type="line"/>
      <point x="91" y="329" type="line"/>
      <point x="134" y="329" type="line"/>
      <point x="134" y="530" type="line"/>
    </contour>
    <contour>
      <point x="146" y="317" type="line"/>
      <point x="79" y="317" type="line"/>
      <point x="79" y="475" type="line"/>
      <point x="67" y="475" type="line"/>
      <point x="67" y="305" type="line"/>
      <point x="146" y="305" type="line"/>
      <point x="146" y="237" type="line"/>
      <point x="67" y="237" type="line"/>
      <point x="67" y="67" type="line"/>
      <point x="79" y="67" type="line"/>
      <point x="79" y="225" type="line"/>
      <point x="146" y="225" type="line"/>
      <point x="146" y="0" type="line"/>
      <point x="0" y="0" type="line"/>
      <point x="0" y="542" type="line"/>
      <point x="146" y="542" type="line"/>
    </contour>
    <contour>
      <point x="67" y="700" type="line"/>
      <point x="67" y="621" type="line"/>
      <point x="146" y="621" type="line"/>
      <point x="146" y="554" type="line"/>
      <point x="34" y="554" type="line" smooth="yes"/>
      <point x="20" y="554"/>
      <point x="0" y="573"/>
      <point x="0" y="587" type="qcurve" smooth="yes"/>
      <point x="0" y="700" type="line"/>
    </contour>
    <contour>
      <point x="55" y="609" type="line"/>
      <point x="55" y="688" type="line"/>
      <point x="12" y="688" type="line"/>
      <point x="12" y="587" type="line" smooth="yes"/>
      <point x="12" y="578"/>
      <point x="25" y="566"/>
      <point x="34" y="566" type="qcurve" smooth="yes"/>
      <point x="134" y="566" type="line"/>
      <point x="134" y="609" type="line"/>
    </contour>
  </outline>
</glyph>
<glyph name="Eacute" format="2">
  <advance width="158"/>
  <unicode hex="00C9"/>
  <outline>
    <contour>
      <point x="134" y="530" type="line"/>
      <point x="134" y="329" type="line"/>
      <point x="91" y="329" type="line"/>
      <point x="91" y="487" type="line"/>
      <point x="55" y="487" type="line"/>
      <point x="55" y="293" type="line"/>
      <point x="134" y="293" type="line"/>
      <point x="134" y="249" type="line"/>
      <point x="55" y="249" type="line"/>
      <point x="55" y="55" type="line"/>
      <point x="91" y="55" type="line"/>
      <point x="91" y="213" type="line"/>
      <point x="134" y="213" type="line"/>
      <point x="134" y="12" type="line"/>
      <point x="12" y="12" type="line"/>
      <point x="12" y="530" type="line"/>
    </contour>
    <contour>
      <point x="146" y="542" type="line"/>
      <point x="0" y="542" type="line"/>
      <point x="0" y="0" type="line"/>
      <point x="146" y="0" type="line"/>
      <point x="146" y="225" type="line"/>
      <point x="79" y="225" type="line"/>
      <point x="79" y="67" type="line"/>
      <point x="67" y="67" type="line"/>
      <point x="67" y="237" type="line"/>
      <point x="146" y="237" type="line"/>
      <point x="146" y="305" type="line"/>
      <point x="67" y="305" type="line"/>
      <point x="67" y="475" type="line"/>
      <point x="79" y="475" type="line"/>
      <point x="79" y="317" type="line"/>
      <point x="146" y="317" type="line"/>
    </contour>
    <contour>
      <point x="146" y="700" type="line"/>
      <point x="146" y="587" type="line" smooth="yes"/>
      <point x="146" y="573"/>
      <point x="126" y="554"/>
      <point x="112" y="554" type="qcurve" smooth="yes"/>
      <point x="0" y="554" type="line"/>
      <point x="0" y="621" type="line"/>
      <point x="79" y="621" type="line"/>
      <point x="79" y="700" type="line"/>
    </contour>
    <contour>
      <point x="12" y="609" type="line"/>
      <point x="12" y="566" type="line"/>
      <point x="112" y="566" type="line" smooth="yes"/>
      <point x="121" y="566"/>
      <point x="134" y="578"/>
      <point x="134" y="587" type="qcurve" smooth="yes"/>
      <point x="134" y="688" type="line"/>
      <point x="91" y="688" type="line"/>
      <point x="91" y="609" type="line"/>
    </contour>
  </outline>
</glyph>
<glyph name="Igrave" format="2">
  <advance width="237"/>
  <unicode hex="00CC"/>
  <outline>
    <contour>
      <point x="12" y="530" type="line"/>
      <point x="12" y="289" type="line"/>
      <point x="55" y="289" type="line"/>
      <point x="55" y="487" type="line"/>
      <point x="91" y="487" type="line"/>
      <point x="91" y="55" type="line"/>
      <point x="55" y="55" type="line"/>
      <point x="55" y="253" type="line"/>
      <point x="12" y="253" type="line"/>
      <point x="12" y="12" type="line"/>
      <point x="213" y="12" type="line"/>
      <point x="213" y="253" type="line"/>
      <point x="170" y="253" type="line"/>
      <point x="170" y="55" type="line"/>
      <point x="134" y="55" type="line"/>
      <point x="134" y="487" type="line"/>
      <point x="170" y="487" type="line"/>
      <point x="170" y="289" type="line"/>
      <point x="213" y="289" type="line"/>
      <point x="213" y="530" type="line"/>
    </contour>
    <contour>
      <point x="225" y="277" type="line"/>
      <point x="158" y="277" type="line"/>
      <point x="158" y="475" type="line"/>
      <point x="146" y="475" type="line"/>
      <point x="146" y="67" type="line"/>
      <point x="158" y="67" type="line"/>
      <point x="158" y="265" type="line"/>
      <point x="225" y="265" type="line"/>
      <point x="225" y="0" type="line"/>
      <point x="0" y="0" type="line"/>
      <point x="0" y="265" type="line"/>
      <point x="67" y="265" type="line"/>
      <point x="67" y="67" type="line"/>
      <point x="79" y="67" type="line"/>
      <point x="79" y="475" type="line"/>
      <point x="67" y="475" type="line"/>
      <point x="67" y="277" type="line"/>
      <point x="0" y="277" type="line"/>
      <point x="0" y="542" type="line"/>
      <point x="225" y="542" type="line"/>
    </contour>
    <contour>
      <point x="106" y="700" type="line"/>
      <point x="106" y="621" type="line"/>
      <point x="185" y="621" type="line"/>
      <point x="185" y="554" type="line"/>
      <point x="73" y="554" type="line" smooth="yes"/>
      <point x="59" y="554"/>
      <point x="39" y="573"/>
      <point x="39" y="587" type="qcurve" smooth="yes"/>
      <point x="39" y="700" type="line"/>
    </contour>
    <contour>
      <point x="94" y="609" type="line"/>
      <point x="94" y="688" type="line"/>
      <point x="51" y="688" type="line"/>
      <point x="51" y="587" type="line" smooth="yes"/>
      <point x="51" y="578"/>
      <point x="64" y="566"/>
      <point x="73" y="566" type="qcurve" smooth="yes"/>
      <point x="173" y="566" type="line"/>
      <point x="173" y="609" type="line"/>
    </contour>
  </outline>
</glyph>
<glyph name="Iacute" format="2">
  <advance width="237"/>
  <unicode hex="00CD"/>
  <outline>
    <contour>
      <point x="213" y="530" type="line"/>
      <point x="213" y="289" type="line"/>
      <point x="170" y="289" type="line"/>
      <point x="170" y="487" type="line"/>
      <point x="134" y="487" type="line"/>
      <point x="134" y="55" type="line"/>
      <point x="170" y="55" type="line"/>
      <point x="170" y="253" type="line"/>
      <point x="213" y="253" type="line"/>
      <point x="213" y="12" type="line"/>
      <point x="12" y="12" type="line"/>
      <point x="12" y="253" type="line"/>
      <point x="55" y="253" type="line"/>
      <point x="55" y="55" type="line"/>
      <point x="91" y="55" type="line"/>
      <point x="91" y="487" type="line"/>
      <point x="55" y="487" type="line"/>
      <point x="55" y="289" type="line"/>
      <point x="12" y="289" type="line"/>
      <point x="12" y="530" type="line"/>
    </contour>
    <contour>
      <point x="225" y="542" type="line"/>
      <point x="0" y="542" type="line"/>
      <point x="0" y="277" type="line"/>
      <point x="67" y="277" type="line"/>
      <point x="67" y="475" type="line"/>
      <point x="79" y="475" type="line"/>
      <point x="79" y="67" type="line"/>
      <point x="67" y="67" type="line"/>
      <point x="67" y="265" type="line"/>
      <point x="0" y="265" type="line"/>
      <point x="0" y="0" type="line"/>
      <point x="225" y="0" type="line"/>
      <point x="225" y="265" type="line"/>
      <point x="158" y="265" type="line"/>
      <point x="158" y="67" type="line"/>
      <point x="146" y="67" type="line"/>
      <point x="146" y="475" type="line"/>
      <point x="158" y="475" type="line"/>
      <point x="158" y="277" type="line"/>
      <point x="225" y="277" type="line"/>
    </contour>
    <contour>
      <point x="185" y="700" type="line"/>
      <point x="185" y="587" type="line" smooth="yes"/>
      <point x="185" y="573"/>
      <point x="165" y="554"/>
      <point x="151" y="554" type="qcurve" smooth="yes"/>
      <point x="39" y="554" type="line"/>
      <point x="39" y="621" type="line"/>
      <point x="118" y="621" type="line"/>
      <point x="118" y="700" type="line"/>
    </contour>
    <contour>
      <point x="51" y="609" type="line"/>
      <point x="51" y="566" type="line"/>
      <point x="151" y="566" type="line" smooth="yes"/>
      <point x="160" y="566"/>
      <point x="173" y="578"/>
      <point x="173" y="587" type="qcurve" smooth="yes"/>
      <point x="173" y="688" type="line"/>
      <point x="130" y="688" type="line"/>
      <point x="130" y="609" type="line"/>
    </contour>
  </outline>
</glyph>
<glyph name="Icircumflex" format="2">
  <advance width="237"/>
  <unicode hex="00CE"/>
  <outline>
    <contour>
      <point x="12" y="530" type="line"/>
      <point x="12" y="289" type="line"/>
      <point x="55" y="289" type="line"/>
      <point x="55" y="487" type="line"/>
      <point x="91" y="487" type="line"/>
      <point x="91" y="55" type="line"/>
      <point x="55" y="55" type="line"/>
      <point x="55" y="253" type="line"/>
      <point x="12" y="253" type="line"/>
      <point x="12" y="12" type="line"/>
      <point x="213" y="12" type="line"/>
      <point x="213" y="253" type="line"/>
      <point x="170" y="253" type="line"/>
      <point x="170" y="55" type="line"/>
      <point x="134" y="55" type="line"/>
      <point x="134" y="487" type="line"/>
      <point x="170" y="487" type="line"/>
      <point x="170" y="289" type="line"/>
      <point x="213" y="289" type="line"/>
      <point x="213" y="530" type="line"/>
    </contour>
    <contour>
      <point x="225" y="277" type="line"/>
      <point x="158" y="277" type="line"/>
      <point x="158" y="475" type="line"/>
      <point x="146" y="475" type="line"/>
      <point x="146" y="67" type="line"/>
      <point x="158" y="67" type="line"/>
      <point x="158" y="265" type="line"/>
      <point x="225" y="265" type="line"/>
      <point x="225" y="0" type="line"/>
      <point x="0" y="0" type="line"/>
      <point x="0" y="265" type="line"/>
      <point x="67" y="265" type="line"/>
      <point x="67" y="67" type="line"/>
      <point x="79" y="67" type="line"/>
      <point x="79" y="475" type="line"/>
      <point x="67" y="475" type="line"/>
      <point x="67" y="277" type="line"/>
      <point x="0" y="277" type="line"/>
      <point x="0" y="542" type="line"/>
      <point x="225" y="542" type="line"/>
    </contour>
    <contour>
      <point x="175" y="651" type="line" smooth="yes"/>
      <point x="180.0" y="646.0" name="inserted"/>
      <point x="185.0" y="634.0"/>
      <point x="185" y="627" type="qcurve" smooth="yes"/>
      <point x="185" y="554" type="line"/>
      <point x="118" y="554" type="line"/>
      <point x="118" y="613" type="line"/>
      <point x="112" y="619" type="line"/>
      <point x="106" y="613" type="line"/>
      <point x="106" y="554" type="line"/>
      <point x="39" y="554" type="line"/>
      <point x="39" y="627" type="line" smooth="yes"/>
      <point x="39.0" y="633.0" name="inserted"/>
      <point x="44.0" y="645.0"/>
      <point x="49" y="651" type="qcurve"/>
      <point x="88" y="690" type="line" smooth="yes"/>
      <point x="93.0" y="695.0" name="inserted"/>
      <point x="105.0" y="700.0"/>
      <point x="112" y="700" type="qcurve" smooth="yes"/>
      <point x="119.0" y="700.0" name="inserted"/>
      <point x="131.0" y="695.0"/>
      <point x="136" y="690" type="qcurve" smooth="yes"/>
    </contour>
    <contour>
      <point x="173" y="627" type="line" smooth="yes"/>
      <point x="173.0" y="631.5" name="inserted"/>
      <point x="170.0" y="639.0"/>
      <point x="167" y="642" type="qcurve" smooth="yes"/>
      <point x="127" y="682" type="line" smooth="yes"/>
      <point x="124.0" y="685.0" name="inserted"/>
      <point x="116.5" y="688.0"/>
      <point x="112" y="688" type="qcurve" smooth="yes"/>
      <point x="107.5" y="688.0" name="inserted"/>
      <point x="100.0" y="685.0"/>
      <point x="97" y="682" type="qcurve" smooth="yes"/>
      <point x="57" y="642" type="line" smooth="yes"/>
      <point x="54.0" y="639.0" name="inserted"/>
      <point x="51.0" y="631.5"/>
      <point x="51" y="627" type="qcurve" smooth="yes"/>
      <point x="51" y="566" type="line"/>
      <point x="94" y="566" type="line"/>
      <point x="94" y="618" type="line"/>
      <point x="112" y="636" type="line"/>
      <point x="130" y="618" type="line"/>
      <point x="130" y="566" type="line"/>
      <point x="173" y="566" type="line"/>
    </contour>
  </outline>
</glyph>
<glyph name="Eth" format="2">
  <advance width="237"/>
  <unicode hex="00D0"/>
  <outline>
    <contour>
      <point x="170" y="645" type="line"/>
      <point x="170" y="371" type="line"/>
      <point x="134" y="371" type="line"/>
      <point x="134" y="645" type="line"/>
    </contour>
    <contour>
      <point x="158" y="633" type="line"/>
      <point x="146" y="633" type="line"/>
      <point x="146" y="383" type="line"/>
      <point x="158" y="383" type="line"/>
    </contour>
    <contour>
      <point x="170" y="328" type="line"/>
      <point x="170" y="55" type="line"/>
      <point x="134" y="55" type="line"/>
      <point x="134" y="328" type="line"/>
    </contour>
    <contour>
      <point x="158" y="316" type="line"/>
      <point x="146" y="316" type="line"/>
      <point x="146" y="67" type="line"/>
      <point x="158" y="67" type="line"/>
    </contour>
    <contour>
      <point x="225" y="33" type="line" smooth="yes"/>
      <point x="225" y="19"/>
      <point x="206" y="0"/>
      <point x="192" y="0" type="qcurve" smooth="yes"/>
      <point x="0" y="0" type="line"/>
      <point x="0" y="304" type="line"/>
      <point x="67" y="304" type="line"/>
      <point x="67" y="67" type="line"/>
      <point x="79" y="67" type="line"/>
      <point x="79" y="316" type="line"/>
      <point x="0" y="316" type="line"/>
      <point x="0" y="383" type="line"/>
      <point x="79" y="383" type="line"/>
      <point x="79" y="633" type="line"/>
      <point x="67" y="633" type="line"/>
      <point x="67" y="396" type="line"/>
      <point x="0" y="396" type="line"/>
      <point x="0" y="700" type="line"/>
      <point x="192" y="700" type="line" smooth="yes"/>
      <point x="206" y="700"/>
      <point x="225" y="680"/>
      <point x="225" y="666" type="qcurve" smooth="yes"/>
    </contour>
    <contour>
      <point x="213" y="666" type="line" smooth="yes"/>
      <point x="213" y="675"/>
      <point x="201" y="688"/>
      <point x="192" y="688" type="qcurve" smooth="yes"/>
      <point x="12" y="688" type="line"/>
      <point x="12" y="408" type="line"/>
      <point x="55" y="408" type="line"/>
      <point x="55" y="645" type="line"/>
      <point x="91" y="645" type="line"/>
      <point x="91" y="371" type="line"/>
      <point x="12" y="371" type="line"/>
      <point x="12" y="328" type="line"/>
      <point x="91" y="328" type="line"/>
      <point x="91" y="55" type="line"/>
      <point x="55" y="55" type="line"/>
      <point x="55" y="292" type="line"/>
      <point x="12" y="292" type="line"/>
      <point x="12" y="12" type="line"/>
      <point x="192" y="12" type="line" smooth="yes"/>
      <point x="201" y="12"/>
      <point x="213" y="25"/>
      <point x="213" y="33" type="qcurve" smooth="yes"/>
    </contour>
  </outline>
</glyph>
<glyph name="Ntilde" format="2">
  <advance width="237"/>
  <unicode hex="00D1"/>
  <outline>
    <contour>
      <point x="170" y="530" type="line"/>
      <point x="170" y="67" type="line"/>
      <point x="170" y="55" type="line"/>
      <point x="134" y="55" type="line"/>
      <point x="134" y="508" type="line" smooth="yes"/>
      <point x="134" y="517"/>
      <point x="122" y="530"/>
      <point x="113" y="530" type="qcurve" smooth="yes"/>
      <point x="12" y="530" type="line"/>
      <point x="12" y="12" type="line"/>
      <point x="56" y="12" type="line"/>
      <point x="56" y="487" type="line"/>
      <point x="92" y="487" type="line"/>
      <point x="92" y="34" type="line" smooth="yes"/>
      <point x="92" y="25"/>
      <point x="104" y="12"/>
      <point x="113" y="12" type="qcurve" smooth="yes"/>
      <point x="213" y="12" type="line"/>
      <point x="213" y="530" type="line"/>
    </contour>
    <contour>
      <point x="225" y="0" type="line"/>
      <point x="113" y="0" type="line" smooth="yes"/>
      <point x="99" y="0"/>
      <point x="80" y="20"/>
      <point x="80" y="34" type="qcurve" smooth="yes"/>
      <point x="80" y="475" type="line"/>
      <point x="68" y="475" type="line"/>
      <point x="68" y="0" type="line"/>
      <point x="0" y="0" type="line"/>
      <point x="0" y="542" type="line"/>
      <point x="113" y="542" type="line" smooth="yes"/>
      <point x="127" y="542"/>
      <point x="147" y="522"/>
      <point x="147" y="508" type="qcurve" smooth="yes"/>
      <point x="147" y="67" type="line"/>
      <point x="158" y="67" type="line"/>
      <point x="158" y="542" type="line"/>
      <point x="225" y="542" type="line"/>
    </contour>
    <contour>
      <point x="124" y="700" type="line"/>
      <point x="191" y="700" type="line"/>
      <point x="191" y="627" type="line" smooth="yes"/>
      <point x="191" y="613"/>
      <point x="171" y="593"/>
      <point x="157" y="593" type="qcurve" smooth="yes"/>
      <point x="112" y="593" type="line"/>
      <point x="112" y="554" type="line"/>
      <point x="45" y="554" type="line"/>
      <point x="45" y="627" type="line" smooth="yes"/>
      <point x="45" y="641"/>
      <point x="64" y="660"/>
      <point x="78" y="660" type="qcurve" smooth="yes"/>
      <point x="124" y="660" type="line"/>
    </contour>
    <contour>
      <point x="136" y="648" type="line"/>
      <point x="78" y="648" type="line" smooth="yes"/>
      <point x="70" y="648"/>
      <point x="57" y="636"/>
      <point x="57" y="627" type="qcurve" smooth="yes"/>
      <point x="57" y="566" type="line"/>
      <point x="100" y="566" type="line"/>
      <point x="100" y="605" type="line"/>
      <point x="157" y="605" type="line" smooth="yes"/>
      <point x="166" y="605"/>
      <point x="179" y="618"/>
      <point x="179" y="627" type="qcurve" smooth="yes"/>
      <point x="179" y="688" type="line"/>
      <point x="136" y="688" type="line"/>
    </contour>
  </outline>
</glyph>
<glyph name="Oslash" format="2">
  <advance width="237"/>
  <unicode hex="00D8"/>
  <outline>
    <contour>
      <point x="55" y="134" type="line"/>
      <point x="55" y="566" type="line"/>
      <point x="91" y="566" type="line"/>
      <point x="91" y="134" type="line"/>
    </contour>
    <contour>
      <point x="67" y="146" type="line"/>
      <point x="79" y="146" type="line"/>
      <point x="79" y="554" type="line"/>
      <point x="67" y="554" type="line"/>
    </contour>
    <contour>
      <point x="134" y="134" type="line"/>
      <point x="134" y="566" type="line"/>
      <point x="170" y="566" type="line"/>
      <point x="170" y="134" type="line"/>
    </contour>
    <contour>
      <point x="146" y="146" type="line"/>
      <point x="158" y="146" type="line"/>
      <point x="158" y="554" type="line"/>
      <point x="146" y="554" type="line"/>
    </contour>
    <contour>
      <point x="0" y="587" type="line" smooth="yes"/>
      <point x="0" y="601"/>
      <point x="19" y="621"/>
      <point x="33" y="621" type="qcurve" smooth="yes"/>
      <point x="79" y="621" type="line"/>
      <point x="79" y="700" type="line"/>
      <point x="146" y="700" type="line"/>
      <point x="146" y="621" type="line"/>
      <point x="192" y="621" type="line" smooth="yes"/>
      <point x="206" y="621"/>
      <point x="225" y="601"/>
      <point x="225" y="587" type="qcurve" smooth="yes"/>
      <point x="225" y="113" type="line" smooth="yes"/>
      <point x="225" y="99"/>
      <point x="206" y="79"/>
      <point x="192" y="79" type="qcurve" smooth="yes"/>
      <point x="146" y="79" type="line"/>
      <point x="146" y="0" type="line"/>
      <point x="79" y="0" type="line"/>
      <point x="79" y="79" type="line"/>
      <point x="33" y="79" type="line" smooth="yes"/>
      <point x="19" y="79"/>
      <point x="0" y="99"/>
      <point x="0" y="113" type="qcurve" smooth="yes"/>
    </contour>
    <contour>
      <point x="12" y="113" type="line" smooth="yes"/>
      <point x="12" y="104"/>
      <point x="25" y="91"/>
      <point x="33" y="91" type="qcurve" smooth="yes"/>
      <point x="91" y="91" type="line"/>
      <point x="91" y="12" type="line"/>
      <point x="134" y="12" type="line"/>
      <point x="134" y="91" type="line"/>
      <point x="192" y="91" type="line" smooth="yes"/>
      <point x="201" y="91"/>
      <point x="213" y="104"/>
      <point x="213" y="113" type="qcurve" smooth="yes"/>
      <point x="213" y="587" type="line" smooth="yes"/>
      <point x="213" y="596"/>
      <point x="201" y="609"/>
      <point x="192" y="609" type="qcurve" smooth="yes"/>
      <point x="134" y="609" type="line"/>
      <point x="134" y="688" type="line"/>
      <point x="91" y="688" type="line"/>
      <point x="91" y="609" type="line"/>
      <point x="33" y="609" type="line" smooth="yes"/>
      <point x="25" y="609"/>
      <point x="12" y="596"/>
      <point x="12" y="587" type="qcurve" smooth="yes"/>
    </contour>
  </outline>
</glyph>
